<?xml version="1.0" encoding="UTF-8" standalone="no"?>
<!-- Created with Inkscape (http://www.inkscape.org/) -->

<svg
   xmlns:dc="http://purl.org/dc/elements/1.1/"
   xmlns:cc="http://creativecommons.org/ns#"
   xmlns:rdf="http://www.w3.org/1999/02/22-rdf-syntax-ns#"
   xmlns:svg="http://www.w3.org/2000/svg"
   xmlns="http://www.w3.org/2000/svg"
   xmlns:sodipodi="http://sodipodi.sourceforge.net/DTD/sodipodi-0.dtd"
   xmlns:inkscape="http://www.inkscape.org/namespaces/inkscape"
   version="1.1"
   id="svg2"
   xml:space="preserve"
   width="714.66669"
   height="309.33334"
   viewBox="0 0 714.66669 309.33334"
   sodipodi:docname="GIL.svg"
   inkscape:version="0.92.2 5c3e80d, 2017-08-06"><metadata
     id="metadata8"><rdf:RDF><cc:Work
         rdf:about=""><dc:format>image/svg+xml</dc:format><dc:type
           rdf:resource="http://purl.org/dc/dcmitype/StillImage" /><dc:title></dc:title></cc:Work></rdf:RDF></metadata><defs
     id="defs6" /><sodipodi:namedview
     pagecolor="#ffffff"
     bordercolor="#666666"
     borderopacity="1"
     objecttolerance="10"
     gridtolerance="10"
     guidetolerance="10"
     inkscape:pageopacity="0"
     inkscape:pageshadow="2"
     inkscape:window-width="1366"
     inkscape:window-height="739"
     id="namedview4"
     showgrid="false"
     inkscape:zoom="0.94171309"
     inkscape:cx="476.8151"
     inkscape:cy="126.56857"
     inkscape:window-x="0"
     inkscape:window-y="0"
     inkscape:window-maximized="1"
     inkscape:current-layer="g10" /><g
     id="g10"
     inkscape:groupmode="layer"
     inkscape:label="ink_ext_XXXXXX"
     transform="matrix(1.3333333,0,0,-1.3333333,0,309.33333)"><g
       transform="matrix(0.8811197,0,0,1,63.713693,0)"
       id="g14"><text
         id="text18"
         style="font-variant:normal;font-weight:bold;font-size:12px;font-family:'DejaVu Sans';-inkscape-font-specification:DejaVuSans-Bold;writing-mode:lr-tb;fill:#000000;fill-opacity:1;fill-rule:nonzero;stroke:none"
         transform="matrix(1,0,0,-1,8.34883,222.883)"><tspan
           id="tspan16"
           sodipodi:role="line"
           y="0"
           x="0 9.3359842 15.335984 20.004105 23.003933 27.707777 34.379898 38.376053 43.704247 49.032352 54.3964 60.396259 67.068375 73.740501 79.068687 84.396797 88.392952 91.764816 97.764671 104.43679 107.43661 115.40445 118.74037 125.41249 130.74068 133.74051 137.77255 147.10854 151.77644 159.78061">Gas Interconnection Line (GIL)</tspan></text>
</g><path
       inkscape:connector-curvature="0"
       id="path20"
       style="fill:#000000;fill-opacity:1;fill-rule:evenodd;stroke:none;stroke-width:0.09386798"
       d="M 71.069324,220.421 H 215.46986 v 1.14102 H 71.069324 Z" /><g
       transform="matrix(0.8811197,0,0,1,63.713693,0)"
       id="g22"><text
         id="text26"
         style="font-variant:normal;font-weight:bold;font-size:12px;font-family:'DejaVu Sans';-inkscape-font-specification:DejaVuSans-Bold;writing-mode:lr-tb;fill:#000000;fill-opacity:1;fill-rule:nonzero;stroke:none"
         transform="matrix(1,0,0,-1,8.34883,194.383)"><tspan
           id="tspan24"
           sodipodi:role="line"
           y="0"
           x="0 8.6638594 14.663715 24.659908 34.656101 40.656101 47.32822 203.90662 211.91043 215.9066 219.90277 225.25478 230.58289">CommandEffect</tspan></text>
</g><path
       inkscape:connector-curvature="0"
       id="path28"
       style="fill:#000000;fill-opacity:1;fill-rule:evenodd;stroke:none;stroke-width:0.09386798"
       d="m 66.09891,205.844 h 0.423007 v 0.47969 H 66.09891 Z" /><path
       inkscape:connector-curvature="0"
       id="path30"
       style="fill:#000000;fill-opacity:1;fill-rule:evenodd;stroke:none;stroke-width:0.09386798"
       d="m 66.09891,205.844 h 0.423007 v 0.47969 H 66.09891 Z" /><path
       inkscape:connector-curvature="0"
       id="path32"
       style="fill:#000000;fill-opacity:1;fill-rule:evenodd;stroke:none;stroke-width:0.09386798"
       d="M 66.522606,205.844 H 245.76174 v 0.47969 H 66.522606 Z" /><path
       inkscape:connector-curvature="0"
       id="path34"
       style="fill:#000000;fill-opacity:1;fill-rule:evenodd;stroke:none;stroke-width:0.09386798"
       d="m 245.76095,205.844 h 0.42301 v 0.47969 h -0.42301 z" /><path
       inkscape:connector-curvature="0"
       id="path36"
       style="fill:#000000;fill-opacity:1;fill-rule:evenodd;stroke:none;stroke-width:0.09386798"
       d="m 246.18477,205.844 h 211.90929 v 0.47969 H 246.18477 Z" /><path
       inkscape:connector-curvature="0"
       id="path38"
       style="fill:#000000;fill-opacity:1;fill-rule:evenodd;stroke:none;stroke-width:0.09386798"
       d="m 458.09406,205.844 h 0.42301 v 0.47969 h -0.42301 z" /><path
       inkscape:connector-curvature="0"
       id="path40"
       style="fill:#000000;fill-opacity:1;fill-rule:evenodd;stroke:none;stroke-width:0.09386798"
       d="m 458.09406,205.844 h 0.42301 v 0.47969 h -0.42301 z" /><path
       inkscape:connector-curvature="0"
       id="path42"
       style="fill:#000000;fill-opacity:1;fill-rule:evenodd;stroke:none;stroke-width:0.09386798"
       d="m 66.09891,191.805 h 0.423007 v 14.0391 H 66.09891 Z" /><path
       inkscape:connector-curvature="0"
       id="path44"
       style="fill:#000000;fill-opacity:1;fill-rule:evenodd;stroke:none;stroke-width:0.09386798"
       d="m 245.76095,191.805 h 0.42301 v 14.0391 h -0.42301 z" /><path
       inkscape:connector-curvature="0"
       id="path46"
       style="fill:#000000;fill-opacity:1;fill-rule:evenodd;stroke:none;stroke-width:0.09386798"
       d="m 458.09406,191.805 h 0.42301 v 14.0391 h -0.42301 z" /><g
       transform="matrix(0.8811197,0,0,1,63.713693,0)"
       id="g48"><text
         id="text54"
         style="font-variant:normal;font-weight:normal;font-size:12px;font-family:'DejaVu Sans';-inkscape-font-specification:DejaVuSans;writing-mode:lr-tb;fill:#000000;fill-opacity:1;fill-rule:nonzero;stroke:none"
         transform="matrix(1,0,0,-1,8.34883,180.043)"><tspan
           id="tspan50"
           sodipodi:role="line"
           y="0"
           x="0 8.6638594 14.664052 18.000088 203.90289 212.56674 217.89462 221.23062 227.23073 232.55876 237.22678 241.39082 246.73067 252.73053 258.73071 264.73093 270.05896 275.38708 278.77115 284.09921 290.0993 294.17935 297.51538 303.51526 307.60742 316.2836 320.27945 327.5994 331.66736 336.99521 340.99127 346.34317 350.42322 355.75134 361.75119 367.7514 371.08743 375.13153 381.13141 384.46741 387.83932 393.16739 399.16748 403.25964 409.25974 415.25983 419.32776 422.66382 428.664 433.99203">AutoValves connected to GIL are controlled by the </tspan><tspan
           id="tspan52"
           sodipodi:role="line"
           y="13.9801"
           x="203.89999 209.22812 215.22798 221.23988 224.5638 228.60791 234.61987 237.95587 240.95586 245.62387 251.62396 256.32791 259.66394 264.992">control system</tspan></text>
</g><path
       inkscape:connector-curvature="0"
       id="path56"
       style="fill:#000000;fill-opacity:1;fill-rule:evenodd;stroke:none;stroke-width:0.09386798"
       d="m 66.09891,191.325 h 0.423007 v 0.48008 H 66.09891 Z" /><path
       inkscape:connector-curvature="0"
       id="path58"
       style="fill:#000000;fill-opacity:1;fill-rule:evenodd;stroke:none;stroke-width:0.09386798"
       d="M 66.522606,191.325 H 245.76174 v 0.48008 H 66.522606 Z" /><path
       inkscape:connector-curvature="0"
       id="path60"
       style="fill:#000000;fill-opacity:1;fill-rule:evenodd;stroke:none;stroke-width:0.09386798"
       d="m 245.76095,191.325 h 0.42301 v 0.48008 h -0.42301 z" /><path
       inkscape:connector-curvature="0"
       id="path62"
       style="fill:#000000;fill-opacity:1;fill-rule:evenodd;stroke:none;stroke-width:0.09386798"
       d="m 246.18477,191.325 h 211.90929 v 0.48008 H 246.18477 Z" /><path
       inkscape:connector-curvature="0"
       id="path64"
       style="fill:#000000;fill-opacity:1;fill-rule:evenodd;stroke:none;stroke-width:0.09386798"
       d="m 458.09406,191.325 h 0.42301 v 0.48008 h -0.42301 z" /><path
       inkscape:connector-curvature="0"
       id="path66"
       style="fill:#000000;fill-opacity:1;fill-rule:evenodd;stroke:none;stroke-width:0.09386798"
       d="m 66.09891,163.363 h 0.423007 v 27.9609 H 66.09891 Z" /><path
       inkscape:connector-curvature="0"
       id="path68"
       style="fill:#000000;fill-opacity:1;fill-rule:evenodd;stroke:none;stroke-width:0.09386798"
       d="m 245.76095,163.363 h 0.42301 v 27.9609 h -0.42301 z" /><path
       inkscape:connector-curvature="0"
       id="path70"
       style="fill:#000000;fill-opacity:1;fill-rule:evenodd;stroke:none;stroke-width:0.09386798"
       d="m 458.09406,163.363 h 0.42301 v 27.9609 h -0.42301 z" /><g
       transform="matrix(0.8811197,0,0,1,63.713693,0)"
       id="g72"><text
         id="text78"
         style="font-variant:normal;font-weight:normal;font-size:12px;font-family:'DejaVu Sans';-inkscape-font-specification:DejaVuSans;writing-mode:lr-tb;fill:#000000;fill-opacity:1;fill-rule:nonzero;stroke:none"
         transform="matrix(1,0,0,-1,8.34883,151.603)"><tspan
           id="tspan74"
           sodipodi:role="line"
           y="0"
           x="0 10.668109 15.995989 22.007893 28.008085 33.36018 203.91498 212.57884 217.90672 221.24272 227.24281 232.57086 237.23888 249.20293 254.54277 260.54263 266.54282 272.543 277.87106 283.19919 286.58325 291.91132 297.91138 309.79144 313.12747 319.12735 331.0195 339.69568 343.75171 351.08374 362.93958 368.26746 372.26352 377.62753 389.49548 398.73541 404.06329 410.0752 416.07541 421.40329 424.77521 428.11121 434.1113">ManualValves connected to GIL are manually </tspan><tspan
           id="tspan76"
           sodipodi:role="line"
           y="13.9801"
           x="203.89999 209.22812 215.22798 221.23988 224.5638 228.60791 234.61987 237.95587 241.3278 246.65585">controlled</tspan></text>
</g><path
       inkscape:connector-curvature="0"
       id="path80"
       style="fill:#000000;fill-opacity:1;fill-rule:evenodd;stroke:none;stroke-width:0.09386798"
       d="m 66.09891,162.883 h 0.423007 v 0.48008 H 66.09891 Z" /><path
       inkscape:connector-curvature="0"
       id="path82"
       style="fill:#000000;fill-opacity:1;fill-rule:evenodd;stroke:none;stroke-width:0.09386798"
       d="M 66.522606,162.883 H 245.76174 v 0.48008 H 66.522606 Z" /><path
       inkscape:connector-curvature="0"
       id="path84"
       style="fill:#000000;fill-opacity:1;fill-rule:evenodd;stroke:none;stroke-width:0.09386798"
       d="m 245.76095,162.883 h 0.42301 v 0.48008 h -0.42301 z" /><path
       inkscape:connector-curvature="0"
       id="path86"
       style="fill:#000000;fill-opacity:1;fill-rule:evenodd;stroke:none;stroke-width:0.09386798"
       d="m 246.18477,162.883 h 211.90929 v 0.48008 H 246.18477 Z" /><path
       inkscape:connector-curvature="0"
       id="path88"
       style="fill:#000000;fill-opacity:1;fill-rule:evenodd;stroke:none;stroke-width:0.09386798"
       d="m 458.09406,162.883 h 0.42301 v 0.48008 h -0.42301 z" /><path
       inkscape:connector-curvature="0"
       id="path90"
       style="fill:#000000;fill-opacity:1;fill-rule:evenodd;stroke:none;stroke-width:0.09386798"
       d="m 66.09891,134.922 h 0.423007 v 27.9613 H 66.09891 Z" /><path
       inkscape:connector-curvature="0"
       id="path92"
       style="fill:#000000;fill-opacity:1;fill-rule:evenodd;stroke:none;stroke-width:0.09386798"
       d="m 245.76095,134.922 h 0.42301 v 27.9613 h -0.42301 z" /><path
       inkscape:connector-curvature="0"
       id="path94"
       style="fill:#000000;fill-opacity:1;fill-rule:evenodd;stroke:none;stroke-width:0.09386798"
       d="m 458.09406,134.922 h 0.42301 v 27.9613 h -0.42301 z" /><g
       transform="matrix(0.8811197,0,0,1,63.713693,0)"
       id="g96"><text
         id="text102"
         style="font-variant:normal;font-weight:normal;font-size:12px;font-family:'DejaVu Sans';-inkscape-font-specification:DejaVuSans;writing-mode:lr-tb;fill:#000000;fill-opacity:1;fill-rule:nonzero;stroke:none"
         transform="matrix(1,0,0,-1,8.34883,123.163)"><tspan
           id="tspan98"
           sodipodi:role="line"
           y="0"
           x="0 3.9958596 9.9960518 15.347932 19.343994 203.89799 212.56192 218.562 223.89005 227.88611 233.21399 236.58595 241.914 251.63391 260.29797 264.29382 271.62589 281.32196 284.65796 290.65814 295.98621 300.0303 303.36633 313.03821 319.0383 324.36618 327.70218 333.71399 339.07797 348.72601 352.72202 361.37418 367.37415 373.37408 377.37012 387.04196 392.36984 398.37003 404.38223 414.04239 422.70645 426.7023 434.03433">InertOperate GIL inert valve (V29) and GIL </tspan><tspan
           id="tspan100"
           sodipodi:role="line"
           y="13.9801"
           x="203.89999 209.9001 215.22813 221.22833 224.56438 227.94841 231.28442 236.6244 240.00848 243.34448 249.34435 255.34454 258.34451 264.3446 269.70844 273.04443 279.04453 284.37256 287.37256 291.41663 300.08047 306.06833 312.0683">ventilation valve (V25)</tspan></text>
</g><path
       inkscape:connector-curvature="0"
       id="path104"
       style="fill:#000000;fill-opacity:1;fill-rule:evenodd;stroke:none;stroke-width:0.09386798"
       d="m 66.09891,134.442 h 0.423007 v 0.47969 H 66.09891 Z" /><path
       inkscape:connector-curvature="0"
       id="path106"
       style="fill:#000000;fill-opacity:1;fill-rule:evenodd;stroke:none;stroke-width:0.09386798"
       d="M 66.522606,134.442 H 245.76174 v 0.47969 H 66.522606 Z" /><path
       inkscape:connector-curvature="0"
       id="path108"
       style="fill:#000000;fill-opacity:1;fill-rule:evenodd;stroke:none;stroke-width:0.09386798"
       d="m 245.76095,134.442 h 0.42301 v 0.47969 h -0.42301 z" /><path
       inkscape:connector-curvature="0"
       id="path110"
       style="fill:#000000;fill-opacity:1;fill-rule:evenodd;stroke:none;stroke-width:0.09386798"
       d="m 246.18477,134.442 h 211.90929 v 0.47969 H 246.18477 Z" /><path
       inkscape:connector-curvature="0"
       id="path112"
       style="fill:#000000;fill-opacity:1;fill-rule:evenodd;stroke:none;stroke-width:0.09386798"
       d="m 458.09406,134.442 h 0.42301 v 0.47969 h -0.42301 z" /><path
       inkscape:connector-curvature="0"
       id="path114"
       style="fill:#000000;fill-opacity:1;fill-rule:evenodd;stroke:none;stroke-width:0.09386798"
       d="m 66.09891,106.484 h 0.423007 v 27.957 H 66.09891 Z" /><path
       inkscape:connector-curvature="0"
       id="path116"
       style="fill:#000000;fill-opacity:1;fill-rule:evenodd;stroke:none;stroke-width:0.09386798"
       d="m 245.76095,106.484 h 0.42301 v 27.957 h -0.42301 z" /><path
       inkscape:connector-curvature="0"
       id="path118"
       style="fill:#000000;fill-opacity:1;fill-rule:evenodd;stroke:none;stroke-width:0.09386798"
       d="m 458.09406,106.484 h 0.42301 v 27.957 h -0.42301 z" /><g
       transform="matrix(0.8811197,0,0,1,63.713693,0)"
       id="g120"><text
         id="text124"
         style="font-variant:normal;font-weight:normal;font-size:12px;font-family:'DejaVu Sans';-inkscape-font-specification:DejaVuSans;writing-mode:lr-tb;fill:#000000;fill-opacity:1;fill-rule:nonzero;stroke:none"
         transform="matrix(1,0,0,-1,8.34883,94.7227)"><tspan
           id="tspan122"
           sodipodi:role="line"
           y="0"
           x="0 8.6638594 13.99198 17.328016 20.664015 26.664108 32.040024 35.37606 203.90286 215.12282 218.45882 221.84286 225.17886 228.17885 234.1787 240.17879 245.50684 251.50702 254.507 263.17108 267.17905 274.49899 277.51108 283.51117 288.86325 292.19925 298.19934 303.5274 306.52737 310.57144 319.23532 325.23526 331.23523 335.21915 338.23123 341.56723 347.56744 350.56741 356.5675 362.56735 365.93933 371.95123 374.9512 381.62314 386.95102 392.27914">ActivateWill open GIL valve (V28) in both Pacs</tspan></text>
</g><path
       inkscape:connector-curvature="0"
       id="path126"
       style="fill:#000000;fill-opacity:1;fill-rule:evenodd;stroke:none;stroke-width:0.09386798"
       d="m 66.09891,106.004 h 0.423007 v 0.48008 H 66.09891 Z" /><path
       inkscape:connector-curvature="0"
       id="path128"
       style="fill:#000000;fill-opacity:1;fill-rule:evenodd;stroke:none;stroke-width:0.09386798"
       d="M 66.522606,106.004 H 245.76174 v 0.48008 H 66.522606 Z" /><path
       inkscape:connector-curvature="0"
       id="path130"
       style="fill:#000000;fill-opacity:1;fill-rule:evenodd;stroke:none;stroke-width:0.09386798"
       d="m 245.76095,106.004 h 0.42301 v 0.48008 h -0.42301 z" /><path
       inkscape:connector-curvature="0"
       id="path132"
       style="fill:#000000;fill-opacity:1;fill-rule:evenodd;stroke:none;stroke-width:0.09386798"
       d="m 246.18477,106.004 h 211.90929 v 0.48008 H 246.18477 Z" /><path
       inkscape:connector-curvature="0"
       id="path134"
       style="fill:#000000;fill-opacity:1;fill-rule:evenodd;stroke:none;stroke-width:0.09386798"
       d="m 458.09406,106.004 h 0.42301 v 0.48008 h -0.42301 z" /><path
       inkscape:connector-curvature="0"
       id="path136"
       style="fill:#000000;fill-opacity:1;fill-rule:evenodd;stroke:none;stroke-width:0.09386798"
       d="m 66.09891,92.0238 h 0.423007 v 13.9801 H 66.09891 Z" /><path
       inkscape:connector-curvature="0"
       id="path138"
       style="fill:#000000;fill-opacity:1;fill-rule:evenodd;stroke:none;stroke-width:0.09386798"
       d="m 245.76095,92.0238 h 0.42301 v 13.9801 h -0.42301 z" /><path
       inkscape:connector-curvature="0"
       id="path140"
       style="fill:#000000;fill-opacity:1;fill-rule:evenodd;stroke:none;stroke-width:0.09386798"
       d="m 458.09406,92.0238 h 0.42301 v 13.9801 h -0.42301 z" /><g
       transform="matrix(0.8811197,0,0,1,63.713693,0)"
       id="g142"><text
         id="text146"
         style="font-variant:normal;font-weight:normal;font-size:12px;font-family:'DejaVu Sans';-inkscape-font-specification:DejaVuSans;writing-mode:lr-tb;fill:#000000;fill-opacity:1;fill-rule:nonzero;stroke:none"
         transform="matrix(1,0,0,-1,8.34883,80.2629)"><tspan
           id="tspan144"
           sodipodi:role="line"
           y="0"
           x="0 8.0041246 11.340125 17.339981 22.007994 203.89799 215.11795 218.45395 221.838 225.174 228.17398 233.50209 236.88614 242.886 247.55402 252.88206 255.88205 264.54611 268.54196 275.87402 278.87399 284.8858 290.21368 293.58563 299.58572 304.91376 307.91376 311.93359 320.59744 326.59741 332.58527 336.5813 339.58127 342.91727 348.92917 351.92917 357.92926 363.92911 367.30106 373.31299 376.31296 382.98489 388.31277 393.6409">CloseWill close GIL valve (V28) in both Pacs</tspan></text>
</g><path
       inkscape:connector-curvature="0"
       id="path148"
       style="fill:#000000;fill-opacity:1;fill-rule:evenodd;stroke:none;stroke-width:0.09386798"
       d="m 66.09891,91.543 h 0.423007 v 0.480078 H 66.09891 Z" /><path
       inkscape:connector-curvature="0"
       id="path150"
       style="fill:#000000;fill-opacity:1;fill-rule:evenodd;stroke:none;stroke-width:0.09386798"
       d="M 66.522606,91.543 H 245.76174 v 0.480078 H 66.522606 Z" /><path
       inkscape:connector-curvature="0"
       id="path152"
       style="fill:#000000;fill-opacity:1;fill-rule:evenodd;stroke:none;stroke-width:0.09386798"
       d="m 245.76095,91.543 h 0.42301 v 0.480078 h -0.42301 z" /><path
       inkscape:connector-curvature="0"
       id="path154"
       style="fill:#000000;fill-opacity:1;fill-rule:evenodd;stroke:none;stroke-width:0.09386798"
       d="m 246.18477,91.543 h 211.90929 v 0.480078 H 246.18477 Z" /><path
       inkscape:connector-curvature="0"
       id="path156"
       style="fill:#000000;fill-opacity:1;fill-rule:evenodd;stroke:none;stroke-width:0.09386798"
       d="m 458.09406,91.543 h 0.42301 v 0.480078 h -0.42301 z" /><path
       inkscape:connector-curvature="0"
       id="path158"
       style="fill:#000000;fill-opacity:1;fill-rule:evenodd;stroke:none;stroke-width:0.09386798"
       d="m 66.09891,77.5629 h 0.423007 V 91.543 H 66.09891 Z" /><path
       inkscape:connector-curvature="0"
       id="path160"
       style="fill:#000000;fill-opacity:1;fill-rule:evenodd;stroke:none;stroke-width:0.09386798"
       d="m 245.76095,77.5629 h 0.42301 V 91.543 h -0.42301 z" /><path
       inkscape:connector-curvature="0"
       id="path162"
       style="fill:#000000;fill-opacity:1;fill-rule:evenodd;stroke:none;stroke-width:0.09386798"
       d="m 458.09406,77.5629 h 0.42301 V 91.543 h -0.42301 z" /><g
       transform="matrix(0.8811197,0,0,1,63.713693,0)"
       id="g164"><text
         id="text170"
         style="font-variant:normal;font-weight:normal;font-size:12px;font-family:'DejaVu Sans';-inkscape-font-specification:DejaVuSans;writing-mode:lr-tb;fill:#000000;fill-opacity:1;fill-rule:nonzero;stroke:none"
         transform="matrix(1,0,0,-1,8.34883,65.8027)"><tspan
           id="tspan166"
           sodipodi:role="line"
           y="0"
           x="0 7.332047 16.559891 21.887939 25.884001 31.907906 37.235954 43.236145 48.564266 54.564358 57.564342 64.248405 67.584442 73.584297 203.91629 215.13625 218.47224 221.84419 225.18019 231.62431 236.29233 242.29251 248.29271 251.65256 258.06076 264.06082 270.0607 278.73685 284.73703 291.121 299.12488 307.08096 310.08093 316.48914 327.15726 335.82132 343.15335 346.15335 352.54941 359.88147 367.2135 373.59747 378.92535 384.92554 390.92563 397.35764 404.0296 407.36563 413.36548 417.38538 422.71326 428.71335 434.04138">Emergency StopWill shut down BC, MGE, EL and Storage </tspan><tspan
           id="tspan168"
           sodipodi:role="line"
           y="14"
           x="203.89999 211.23199 216.55988 222.57178">Tank</tspan></text>
</g><path
       inkscape:connector-curvature="0"
       id="path172"
       style="fill:#000000;fill-opacity:1;fill-rule:evenodd;stroke:none;stroke-width:0.09386798"
       d="m 66.09891,77.082 h 0.423007 v 0.480078 H 66.09891 Z" /><path
       inkscape:connector-curvature="0"
       id="path174"
       style="fill:#000000;fill-opacity:1;fill-rule:evenodd;stroke:none;stroke-width:0.09386798"
       d="M 66.522606,77.082 H 245.76174 v 0.480078 H 66.522606 Z" /><path
       inkscape:connector-curvature="0"
       id="path176"
       style="fill:#000000;fill-opacity:1;fill-rule:evenodd;stroke:none;stroke-width:0.09386798"
       d="m 245.76095,77.082 h 0.42301 v 0.480078 h -0.42301 z" /><path
       inkscape:connector-curvature="0"
       id="path178"
       style="fill:#000000;fill-opacity:1;fill-rule:evenodd;stroke:none;stroke-width:0.09386798"
       d="m 246.18477,77.082 h 211.90929 v 0.480078 H 246.18477 Z" /><path
       inkscape:connector-curvature="0"
       id="path180"
       style="fill:#000000;fill-opacity:1;fill-rule:evenodd;stroke:none;stroke-width:0.09386798"
       d="m 458.09406,77.082 h 0.42301 v 0.480078 h -0.42301 z" /><path
       inkscape:connector-curvature="0"
       id="path182"
       style="fill:#000000;fill-opacity:1;fill-rule:evenodd;stroke:none;stroke-width:0.09386798"
       d="m 66.09891,49.102 h 0.423007 V 77.0821 H 66.09891 Z" /><path
       inkscape:connector-curvature="0"
       id="path184"
       style="fill:#000000;fill-opacity:1;fill-rule:evenodd;stroke:none;stroke-width:0.09386798"
       d="m 245.76095,49.102 h 0.42301 v 27.9801 h -0.42301 z" /><path
       inkscape:connector-curvature="0"
       id="path186"
       style="fill:#000000;fill-opacity:1;fill-rule:evenodd;stroke:none;stroke-width:0.09386798"
       d="m 458.09406,49.102 h 0.42301 v 27.9801 h -0.42301 z" /><g
       transform="matrix(0.8811197,0,0,1,63.713693,0)"
       id="g188"><text
         id="text192"
         style="font-variant:normal;font-weight:normal;font-size:12px;font-family:'DejaVu Sans';-inkscape-font-specification:DejaVuSans;writing-mode:lr-tb;fill:#000000;fill-opacity:1;fill-rule:nonzero;stroke:none"
         transform="matrix(1,0,0,-1,8.34883,37.343)"><tspan
           id="tspan190"
           sodipodi:role="line"
           y="0"
           x="0 8.0040627 13.33211 18.000122 23.340279 203.89587 211.89995 217.22798 221.896 227.22404 230.56009 233.56007 236.94415 240.94022 244.31215 250.31224 254.98026 257.98022 263.30811 269.30832 275.3205 278.3205 283.01233 289.01251 295.0127 298.34875 304.34882 310.36078 319.02484 325.02502">ResetReset trips and shutdowns</tspan></text>
</g><path
       inkscape:connector-curvature="0"
       id="path194"
       style="fill:#000000;fill-opacity:1;fill-rule:evenodd;stroke:none;stroke-width:0.09386798"
       d="m 66.09891,48.6219 h 0.423007 v 0.480078 H 66.09891 Z" /><path
       inkscape:connector-curvature="0"
       id="path196"
       style="fill:#000000;fill-opacity:1;fill-rule:evenodd;stroke:none;stroke-width:0.09386798"
       d="M 66.522606,48.6219 H 245.76174 v 0.480078 H 66.522606 Z" /><path
       inkscape:connector-curvature="0"
       id="path198"
       style="fill:#000000;fill-opacity:1;fill-rule:evenodd;stroke:none;stroke-width:0.09386798"
       d="m 245.76095,48.6219 h 0.42301 v 0.480078 h -0.42301 z" /><path
       inkscape:connector-curvature="0"
       id="path200"
       style="fill:#000000;fill-opacity:1;fill-rule:evenodd;stroke:none;stroke-width:0.09386798"
       d="m 246.18477,48.6219 h 211.90929 v 0.480078 H 246.18477 Z" /><path
       inkscape:connector-curvature="0"
       id="path202"
       style="fill:#000000;fill-opacity:1;fill-rule:evenodd;stroke:none;stroke-width:0.09386798"
       d="m 458.09406,48.6219 h 0.42301 v 0.480078 h -0.42301 z" /><path
       inkscape:connector-curvature="0"
       id="path204"
       style="fill:#000000;fill-opacity:1;fill-rule:evenodd;stroke:none;stroke-width:0.09386798"
       d="m 66.09891,34.6441 h 0.423007 v 13.977 H 66.09891 Z" /><path
       inkscape:connector-curvature="0"
       id="path206"
       style="fill:#000000;fill-opacity:1;fill-rule:evenodd;stroke:none;stroke-width:0.09386798"
       d="m 66.09891,34.1648 h 0.423007 v 0.480078 H 66.09891 Z" /><path
       inkscape:connector-curvature="0"
       id="path208"
       style="fill:#000000;fill-opacity:1;fill-rule:evenodd;stroke:none;stroke-width:0.09386798"
       d="m 66.09891,34.1648 h 0.423007 v 0.480078 H 66.09891 Z" /><path
       inkscape:connector-curvature="0"
       id="path210"
       style="fill:#000000;fill-opacity:1;fill-rule:evenodd;stroke:none;stroke-width:0.09386798"
       d="M 66.522606,34.1648 H 245.76174 v 0.480078 H 66.522606 Z" /><path
       inkscape:connector-curvature="0"
       id="path212"
       style="fill:#000000;fill-opacity:1;fill-rule:evenodd;stroke:none;stroke-width:0.09386798"
       d="m 245.76095,34.6441 h 0.42301 v 13.977 h -0.42301 z" /><path
       inkscape:connector-curvature="0"
       id="path214"
       style="fill:#000000;fill-opacity:1;fill-rule:evenodd;stroke:none;stroke-width:0.09386798"
       d="m 245.76095,34.1648 h 0.42301 v 0.480078 h -0.42301 z" /><path
       inkscape:connector-curvature="0"
       id="path216"
       style="fill:#000000;fill-opacity:1;fill-rule:evenodd;stroke:none;stroke-width:0.09386798"
       d="m 246.18477,34.1648 h 211.90929 v 0.480078 H 246.18477 Z" /><path
       inkscape:connector-curvature="0"
       id="path218"
       style="fill:#000000;fill-opacity:1;fill-rule:evenodd;stroke:none;stroke-width:0.09386798"
       d="m 458.09406,34.6441 h 0.42301 v 13.977 h -0.42301 z" /><path
       inkscape:connector-curvature="0"
       id="path220"
       style="fill:#000000;fill-opacity:1;fill-rule:evenodd;stroke:none;stroke-width:0.09386798"
       d="m 458.09406,34.1648 h 0.42301 v 0.480078 h -0.42301 z" /><path
       inkscape:connector-curvature="0"
       id="path222"
       style="fill:#000000;fill-opacity:1;fill-rule:evenodd;stroke:none;stroke-width:0.09386798"
       d="m 458.09406,34.1648 h 0.42301 v 0.480078 h -0.42301 z" /><g
       transform="matrix(0.8811197,0,0,1,63.713693,0)"
       id="g224"><text
         id="text230"
         style="font-variant:normal;font-weight:normal;font-size:12px;font-family:'DejaVu Sans';-inkscape-font-specification:DejaVuSans;writing-mode:lr-tb;fill:#000000;fill-opacity:1;fill-rule:nonzero;stroke:none"
         transform="matrix(0.779888,0,0,-1,-0.251172,16.6105)"><tspan
           id="tspan226"
           sodipodi:role="line"
           y="0"
           x="0 8.6640406 14.664197 18.000437 23.328413 27.34837 30.960209 34.956108 38.327919 42.323917 47.016144 50.603943 56.615944 62.616096 65.952339 69.564178 75.56395 81.564102 86.232285 90.900467 94.272354 100.28415 103.62016 108.94796 112.57182 115.90806 121.90822 125.52006 130.84781 136.17595 139.54776 142.88376 148.896 154.22375 157.60757 162.92354 166.53539 175.19916 179.19505 186.5273 190.10307 193.43907 197.43526 201.01105 207.01082 213.01097 216.34721 222.35921 226.13936 231.47935 237.47932 243.49112 246.82712 252.82693 258.15491 261.741 265.077 268.41299 274.43719 279.76517 284.46942 288.05719 292.05304 299.38528 306.7175 310.71335 314.32516 319.65295 323.64883 329.01288 332.60065 337.92844 343.26859 346.62836 349.96436 355.97662 361.3046 364.30435 367.92822 375.26022 381.26041 384.59641 389.26443 392.87625 402.11642 407.45624 413.45612 417.05594 422.38406 427.71182 433.72385 438.392 443.74405 447.27222 452.61203 456.15222 461.48035 467.48035 472.80811 478.8201 484.81989 490.14786 493.71161 499.71176 505.71167 511.03964 515.05957 518.58777 521.92395 527.92413 531.47638 540.08899 548.7052 552.04102 560.7052 567.37701 579.53284 583.52869 589.52887 593.52472 597.04089 600.37714 606.37714 611.7041 615.52008 624.19617 632.8244 637.49255 644.04449 648.04034 653.35632 659.3681 662.87225 666.8681 670.86395 676.86414 686.09229"
           style="-inkscape-font-specification:'sans-serif Italic';font-family:sans-serif;font-weight:normal;font-style:italic;font-stretch:normal;font-variant:normal">Note! It’s not possible to activate GIL if both engine lines (EL) are active. This may cause a change over to DO/HFOfor the DGs,fed from </tspan><tspan
           id="tspan228"
           sodipodi:role="line"
           y="13.9801"
           x="0 3.3362401 9.3362284 14.664204 17.663977 24.996214 33.660255 42.324028 45.323799 51.960041 57.287811 62.615944 65.627739 68.987526 74.999519 80.327293 83.663536 86.663307 90.047218 94.715401 97.715172 103.71494 109.72712 113.06313 119.08698 125.08675 128.08652 131.42276 137.42291 140.43472 146.43449 151.78651 154.84641 160.18654 163.52254 169.52254 174.22678 179.55476 188.5788 194.57857 200.57872 209.2549 215.25487 218.25465 221.25443 229.21037 235.21053 238.54677 244.54674 247.54652 254.89029 262.21051 265.22229 270.48901 276.48898 282.48874 285.48853 296.16861 304.83237 312.16461 315.1644 321.16437 326.49213 332.50406 337.82001 340.81976 344.15601 350.16818 353.16797 359.16772 364.53177 367.55557 375.55963 378.89563 384.90765 389.57584 394.89178 400.90359 403.90335 409.90314 415.25516 419.25101 425.25116 429.24704 434.56299 437.57477 446.22653 450.22241 457.55463 460.55438 465.88217 471.23434 474.57059 477.94244 483.94235 489.28214 492.61838 496.00226 502.00244 508.00241 511.00217 514.3382 519.00616 522.04199 527.35797 533.37 538.646 544.64575 548.01764 553.34558 559.35284"
           style="-inkscape-font-specification:'sans-serif Italic';font-family:sans-serif;font-weight:normal;font-style:italic;font-stretch:normal;font-variant:normal">the LNG Pac that is going to be closeddown. Both EL and MGE have to be Closed before GIL activation is enabled.</tspan></text>
</g></g></svg>