<?xml version="1.0" encoding="UTF-8" standalone="no"?>
<!-- Created with Inkscape (http://www.inkscape.org/) -->

<svg
   xmlns:dc="http://purl.org/dc/elements/1.1/"
   xmlns:cc="http://creativecommons.org/ns#"
   xmlns:rdf="http://www.w3.org/1999/02/22-rdf-syntax-ns#"
   xmlns:svg="http://www.w3.org/2000/svg"
   xmlns="http://www.w3.org/2000/svg"
   xmlns:sodipodi="http://sodipodi.sourceforge.net/DTD/sodipodi-0.dtd"
   xmlns:inkscape="http://www.inkscape.org/namespaces/inkscape"
   width="210mm"
   height="297mm"
   viewBox="0 0 210 297"
   version="1.1"
   id="svg2017"
   inkscape:version="0.92.2 5c3e80d, 2017-08-06"
   sodipodi:docname="LBL.svg">
  <defs
     id="defs2011" />
  <sodipodi:namedview
     id="base"
     pagecolor="#ffffff"
     bordercolor="#666666"
     borderopacity="1.0"
     inkscape:pageopacity="0.0"
     inkscape:pageshadow="2"
     inkscape:zoom="1.2960937"
     inkscape:cx="226.01567"
     inkscape:cy="560"
     inkscape:document-units="mm"
     inkscape:current-layer="layer1"
     showgrid="false"
     inkscape:window-width="1920"
     inkscape:window-height="1171"
     inkscape:window-x="0"
     inkscape:window-y="0"
     inkscape:window-maximized="1" />
  <metadata
     id="metadata2014">
    <rdf:RDF>
      <cc:Work
         rdf:about="">
        <dc:format>image/svg+xml</dc:format>
        <dc:type
           rdf:resource="http://purl.org/dc/dcmitype/StillImage" />
        <dc:title></dc:title>
      </cc:Work>
    </rdf:RDF>
  </metadata>
  <g
     inkscape:label="Calque 1"
     inkscape:groupmode="layer"
     id="layer1">
    <g
       transform="matrix(0.35277777,0,0,-0.35277777,18.02418,305.58221)"
       id="g1822">
      <g
         id="g14">
        <text
           transform="matrix(1,0,0,-1,7.88984,592.883)"
           style="font-variant:normal;font-weight:bold;font-size:12px;font-family:'DejaVu Sans';-inkscape-font-specification:DejaVuSans-Bold;writing-mode:lr-tb;fill:#000000;fill-opacity:1;fill-rule:nonzero;stroke:none"
           id="text18">
          <tspan
             x="0 8.0041561 11.340078 18.012161 24.684282 28.056141 34.728226 37.728054 45.659946 52.332066 59.040127 65.700211 71.028404 76.356514 79.356339 87.360497 90.696419 97.368538 102.69673 105.69656 109.69267 117.68472 125.66465 133.63248"
             y="0"
             sodipodi:role="line"
             id="tspan16">Liquid Bunker Line (LBL)</tspan>
        </text>
      </g>
      <path
         d="m 7.89102,590.421 h 137.719 v 1.14102 H 7.89102 Z"
         style="fill:#000000;fill-opacity:1;fill-rule:evenodd;stroke:none;stroke-width:0.1"
         id="path20"
         inkscape:connector-curvature="0" />
      <g
         id="g22">
        <text
           transform="matrix(1,0,0,-1,7.88984,564.383)"
           style="font-variant:normal;font-weight:bold;font-size:12px;font-family:'DejaVu Sans';-inkscape-font-specification:DejaVuSans-Bold;writing-mode:lr-tb;fill:#000000;fill-opacity:1;fill-rule:nonzero;stroke:none"
           id="text26">
          <tspan
             x="0 8.6638594 14.663715 24.659908 34.656101 40.656101 47.32822 203.91982 211.92363 215.9198 219.91597 225.26797 230.59608"
             y="0"
             sodipodi:role="line"
             id="tspan24">CommandEffect</tspan>
        </text>
      </g>
      <path
         d="m 2.25,575.844 h 0.480078 v 0.48008 H 2.25 Z"
         style="fill:#000000;fill-opacity:1;fill-rule:evenodd;stroke:none;stroke-width:0.1"
         id="path28"
         inkscape:connector-curvature="0" />
      <path
         d="m 2.25,575.844 h 0.480078 v 0.48008 H 2.25 Z"
         style="fill:#000000;fill-opacity:1;fill-rule:evenodd;stroke:none;stroke-width:0.1"
         id="path30"
         inkscape:connector-curvature="0" />
      <path
         d="m 2.73008,575.844 h 203.418 v 0.48008 H 2.73008 Z"
         style="fill:#000000;fill-opacity:1;fill-rule:evenodd;stroke:none;stroke-width:0.1"
         id="path32"
         inkscape:connector-curvature="0" />
      <path
         d="m 206.148,575.844 h 0.48008 v 0.48008 H 206.148 Z"
         style="fill:#000000;fill-opacity:1;fill-rule:evenodd;stroke:none;stroke-width:0.1"
         id="path34"
         inkscape:connector-curvature="0" />
      <path
         d="m 206.629,575.844 h 240.5 v 0.48008 h -240.5 z"
         style="fill:#000000;fill-opacity:1;fill-rule:evenodd;stroke:none;stroke-width:0.1"
         id="path36"
         inkscape:connector-curvature="0" />
      <path
         d="m 447.129,575.844 h 0.48008 v 0.48008 H 447.129 Z"
         style="fill:#000000;fill-opacity:1;fill-rule:evenodd;stroke:none;stroke-width:0.1"
         id="path38"
         inkscape:connector-curvature="0" />
      <path
         d="m 447.129,575.844 h 0.48008 v 0.48008 H 447.129 Z"
         style="fill:#000000;fill-opacity:1;fill-rule:evenodd;stroke:none;stroke-width:0.1"
         id="path40"
         inkscape:connector-curvature="0" />
      <path
         d="m 2.25,561.805 h 0.480078 v 14.0391 H 2.25 Z"
         style="fill:#000000;fill-opacity:1;fill-rule:evenodd;stroke:none;stroke-width:0.1"
         id="path42"
         inkscape:connector-curvature="0" />
      <path
         d="m 206.148,561.805 h 0.48008 v 14.0391 H 206.148 Z"
         style="fill:#000000;fill-opacity:1;fill-rule:evenodd;stroke:none;stroke-width:0.1"
         id="path44"
         inkscape:connector-curvature="0" />
      <path
         d="m 447.129,561.805 h 0.48008 v 14.0391 H 447.129 Z"
         style="fill:#000000;fill-opacity:1;fill-rule:evenodd;stroke:none;stroke-width:0.1"
         id="path46"
         inkscape:connector-curvature="0" />
      <g
         id="g48">
        <text
           transform="matrix(1,0,0,-1,7.88984,550.043)"
           style="font-variant:normal;font-weight:normal;font-size:12px;font-family:'DejaVu Sans';-inkscape-font-specification:DejaVuSans;writing-mode:lr-tb;fill:#000000;fill-opacity:1;fill-rule:nonzero;stroke:none"
           id="text54">
          <tspan
             x="0 8.6638594 14.664052 18.000088 203.90768 212.57155 217.89943 221.23543 227.23552 232.56357 237.23158 241.27571 246.63977 252.63962 258.6398 264.64001 269.96805 275.29617 278.68027 284.0083 290.00839 294.02829 297.36432 303.3642 307.33606 313.37207 319.37225 325.37244 331.37241 336.70044 340.72034 344.66837 348.00436 351.37631 357.3765 362.70456 366.78461 372.11249 376.10855 381.47253 385.42056 390.74869 396.77277 402.77295 406.10901 410.15311 416.15295 419.48895 422.87302 428.18896"
             y="0"
             sodipodi:role="line"
             id="tspan50">AutoValves connected to bunker line are controlled</tspan>
          <tspan
             x="203.89999 209.90009 215.90018 218.9361 222.23619 228.27231 233.58826 236.62418 241.9523 247.95215 253.95235 257.28839 261.33249 267.33234 270.66833 273.66833 278.33633 284.37238 289.07632 292.41235 297.70447 306.98038"
             y="13.9801"
             sodipodi:role="line"
             id="tspan52">by the control system.</tspan>
        </text>
      </g>
      <path
         d="m 2.25,561.325 h 0.480078 v 0.48008 H 2.25 Z"
         style="fill:#000000;fill-opacity:1;fill-rule:evenodd;stroke:none;stroke-width:0.1"
         id="path56"
         inkscape:connector-curvature="0" />
      <path
         d="m 2.73008,561.325 h 203.418 v 0.48008 H 2.73008 Z"
         style="fill:#000000;fill-opacity:1;fill-rule:evenodd;stroke:none;stroke-width:0.1"
         id="path58"
         inkscape:connector-curvature="0" />
      <path
         d="m 206.148,561.325 h 0.48008 v 0.48008 H 206.148 Z"
         style="fill:#000000;fill-opacity:1;fill-rule:evenodd;stroke:none;stroke-width:0.1"
         id="path60"
         inkscape:connector-curvature="0" />
      <path
         d="m 206.629,561.325 h 240.5 v 0.48008 h -240.5 z"
         style="fill:#000000;fill-opacity:1;fill-rule:evenodd;stroke:none;stroke-width:0.1"
         id="path62"
         inkscape:connector-curvature="0" />
      <path
         d="m 447.129,561.325 h 0.48008 v 0.48008 H 447.129 Z"
         style="fill:#000000;fill-opacity:1;fill-rule:evenodd;stroke:none;stroke-width:0.1"
         id="path64"
         inkscape:connector-curvature="0" />
      <path
         d="m 2.25,533.363 h 0.480078 v 27.9613 H 2.25 Z"
         style="fill:#000000;fill-opacity:1;fill-rule:evenodd;stroke:none;stroke-width:0.1"
         id="path66"
         inkscape:connector-curvature="0" />
      <path
         d="m 206.148,533.363 h 0.48008 v 27.9613 H 206.148 Z"
         style="fill:#000000;fill-opacity:1;fill-rule:evenodd;stroke:none;stroke-width:0.1"
         id="path68"
         inkscape:connector-curvature="0" />
      <path
         d="m 447.129,533.363 h 0.48008 v 27.9613 H 447.129 Z"
         style="fill:#000000;fill-opacity:1;fill-rule:evenodd;stroke:none;stroke-width:0.1"
         id="path70"
         inkscape:connector-curvature="0" />
      <g
         id="g72">
        <text
           transform="matrix(1,0,0,-1,7.88984,521.603)"
           style="font-variant:normal;font-weight:normal;font-size:12px;font-family:'DejaVu Sans';-inkscape-font-specification:DejaVuSans;writing-mode:lr-tb;fill:#000000;fill-opacity:1;fill-rule:nonzero;stroke:none"
           id="text78">
          <tspan
             x="0 10.668109 15.995989 22.032108 28.032301 33.384396 203.944 212.60786 217.93573 221.27174 227.27184 232.59988 237.26788 241.97179 247.33585 253.33569 259.33588 265.33609 270.66412 275.99225 279.37634 284.70438 290.70447 295.38452 298.72055 304.72043 309.4126 315.44861 321.44879 327.44897 333.52081 338.83676 342.83282 347.53671 350.87271 354.25674 360.25696 365.58499 370.26505 375.59293 379.58899 384.953 389.56119 398.80112 404.129 410.1409 416.1528 421.4928 424.86475 428.20074 434.21255"
             y="0"
             sodipodi:role="line"
             id="tspan74">ManualValves connected to bunker line are manually</tspan>
          <tspan
             x="203.89999 209.22812 215.22798 221.2641 224.56419 228.60831 234.6445 237.9805 241.35243 246.68048"
             y="13.9801"
             sodipodi:role="line"
             id="tspan76">controlled</tspan>
        </text>
      </g>
      <path
         d="m 2.25,532.883 h 0.480078 v 0.48008 H 2.25 Z"
         style="fill:#000000;fill-opacity:1;fill-rule:evenodd;stroke:none;stroke-width:0.1"
         id="path80"
         inkscape:connector-curvature="0" />
      <path
         d="m 2.73008,532.883 h 203.418 v 0.48008 H 2.73008 Z"
         style="fill:#000000;fill-opacity:1;fill-rule:evenodd;stroke:none;stroke-width:0.1"
         id="path82"
         inkscape:connector-curvature="0" />
      <path
         d="m 206.148,532.883 h 0.48008 v 0.48008 H 206.148 Z"
         style="fill:#000000;fill-opacity:1;fill-rule:evenodd;stroke:none;stroke-width:0.1"
         id="path84"
         inkscape:connector-curvature="0" />
      <path
         d="m 206.629,532.883 h 240.5 v 0.48008 h -240.5 z"
         style="fill:#000000;fill-opacity:1;fill-rule:evenodd;stroke:none;stroke-width:0.1"
         id="path86"
         inkscape:connector-curvature="0" />
      <path
         d="m 447.129,532.883 h 0.48008 v 0.48008 H 447.129 Z"
         style="fill:#000000;fill-opacity:1;fill-rule:evenodd;stroke:none;stroke-width:0.1"
         id="path88"
         inkscape:connector-curvature="0" />
      <path
         d="m 2.25,504.922 h 0.480078 v 27.9613 H 2.25 Z"
         style="fill:#000000;fill-opacity:1;fill-rule:evenodd;stroke:none;stroke-width:0.1"
         id="path90"
         inkscape:connector-curvature="0" />
      <path
         d="m 206.148,504.922 h 0.48008 v 27.9613 H 206.148 Z"
         style="fill:#000000;fill-opacity:1;fill-rule:evenodd;stroke:none;stroke-width:0.1"
         id="path92"
         inkscape:connector-curvature="0" />
      <path
         d="m 447.129,504.922 h 0.48008 v 27.9613 H 447.129 Z"
         style="fill:#000000;fill-opacity:1;fill-rule:evenodd;stroke:none;stroke-width:0.1"
         id="path94"
         inkscape:connector-curvature="0" />
      <g
         id="g96">
        <text
           transform="matrix(1,0,0,-1,7.88984,493.163)"
           style="font-variant:normal;font-weight:normal;font-size:12px;font-family:'DejaVu Sans';-inkscape-font-specification:DejaVuSans;writing-mode:lr-tb;fill:#000000;fill-opacity:1;fill-rule:nonzero;stroke:none"
           id="text102">
          <tspan
             x="0 8.6638594 13.99198 17.328016 20.664015 26.664108 32.064255 35.400288 40.692398 43.692383 51.060368 57.732319 66.396149 69.396133 77.364319 83.364174 203.9283 211.27245 217.9444 226.56058 236.62852 241.95665 247.98073 257.23279 266.44891 272.47293 278.47311 281.80911 287.14896 292.51276 295.84882 299.22073 305.24481 311.25674 321.26492 329.92896 333.26495 336.60101 342.6012 352.65704 355.96884 361.99286 367.29669 377.36465 382.03265 388.03284 394.04504 400.04514 403.38113 406.71713 412.069 416.11313 426.12131 429.45731 434.14914"
             y="0"
             sodipodi:role="line"
             id="tspan98">Activate ESD ComESD communication with the supplier is</tspan>
          <tspan
             x="203.89999 209.22804 212.56409 217.92789 223.92798 227.26398 230.63591 235.30392 241.34004 246.63216"
             y="13.9801"
             sodipodi:role="line"
             id="tspan100">etablished</tspan>
        </text>
      </g>
      <path
         d="m 2.25,504.442 h 0.480078 v 0.48008 H 2.25 Z"
         style="fill:#000000;fill-opacity:1;fill-rule:evenodd;stroke:none;stroke-width:0.1"
         id="path104"
         inkscape:connector-curvature="0" />
      <path
         d="m 2.73008,504.442 h 203.418 v 0.48008 H 2.73008 Z"
         style="fill:#000000;fill-opacity:1;fill-rule:evenodd;stroke:none;stroke-width:0.1"
         id="path106"
         inkscape:connector-curvature="0" />
      <path
         d="m 206.148,504.442 h 0.48008 v 0.48008 H 206.148 Z"
         style="fill:#000000;fill-opacity:1;fill-rule:evenodd;stroke:none;stroke-width:0.1"
         id="path108"
         inkscape:connector-curvature="0" />
      <path
         d="m 206.629,504.442 h 240.5 v 0.48008 h -240.5 z"
         style="fill:#000000;fill-opacity:1;fill-rule:evenodd;stroke:none;stroke-width:0.1"
         id="path110"
         inkscape:connector-curvature="0" />
      <path
         d="m 447.129,504.442 h 0.48008 v 0.48008 H 447.129 Z"
         style="fill:#000000;fill-opacity:1;fill-rule:evenodd;stroke:none;stroke-width:0.1"
         id="path112"
         inkscape:connector-curvature="0" />
      <path
         d="m 2.25,476.484 h 0.480078 v 27.957 H 2.25 Z"
         style="fill:#000000;fill-opacity:1;fill-rule:evenodd;stroke:none;stroke-width:0.1"
         id="path114"
         inkscape:connector-curvature="0" />
      <path
         d="m 206.148,476.484 h 0.48008 v 27.957 H 206.148 Z"
         style="fill:#000000;fill-opacity:1;fill-rule:evenodd;stroke:none;stroke-width:0.1"
         id="path116"
         inkscape:connector-curvature="0" />
      <path
         d="m 447.129,476.484 h 0.48008 v 27.957 H 447.129 Z"
         style="fill:#000000;fill-opacity:1;fill-rule:evenodd;stroke:none;stroke-width:0.1"
         id="path118"
         inkscape:connector-curvature="0" />
      <g
         id="g120">
        <text
           transform="matrix(1,0,0,-1,7.88984,464.723)"
           style="font-variant:normal;font-weight:normal;font-size:12px;font-family:'DejaVu Sans';-inkscape-font-specification:DejaVuSans;writing-mode:lr-tb;fill:#000000;fill-opacity:1;fill-rule:nonzero;stroke:none"
           id="text124">
          <tspan
             x="0 8.6638288 13.991877 19.319756 24.647877 28.007732 31.343733 37.343826 42.707634 46.091717 51.383827 54.383812 61.751793 68.423744 77.051636 80.05162 88.055748 94.055603 203.9276 211.27176 217.94371 226.55989 229.55988 234.88799 240.91208 250.16414 259.38025 265.40427 271.41617 274.75217 280.08029 285.44409 288.78012 292.15207 298.17615 304.18805 307.18805 310.52405 315.19205 318.21588 324.22806 329.54401 334.87189 340.22385 343.60791 346.94391 352.95572 358.2836 361.66769 366.99573"
             y="0"
             sodipodi:role="line"
             id="tspan122">Deactivate ESD ComESD communication is deactivated</tspan>
        </text>
      </g>
      <path
         d="m 2.25,476.004 h 0.480078 v 0.48008 H 2.25 Z"
         style="fill:#000000;fill-opacity:1;fill-rule:evenodd;stroke:none;stroke-width:0.1"
         id="path126"
         inkscape:connector-curvature="0" />
      <path
         d="m 2.73008,476.004 h 203.418 v 0.48008 H 2.73008 Z"
         style="fill:#000000;fill-opacity:1;fill-rule:evenodd;stroke:none;stroke-width:0.1"
         id="path128"
         inkscape:connector-curvature="0" />
      <path
         d="m 206.148,476.004 h 0.48008 v 0.48008 H 206.148 Z"
         style="fill:#000000;fill-opacity:1;fill-rule:evenodd;stroke:none;stroke-width:0.1"
         id="path130"
         inkscape:connector-curvature="0" />
      <path
         d="m 206.629,476.004 h 240.5 v 0.48008 h -240.5 z"
         style="fill:#000000;fill-opacity:1;fill-rule:evenodd;stroke:none;stroke-width:0.1"
         id="path132"
         inkscape:connector-curvature="0" />
      <path
         d="m 447.129,476.004 h 0.48008 v 0.48008 H 447.129 Z"
         style="fill:#000000;fill-opacity:1;fill-rule:evenodd;stroke:none;stroke-width:0.1"
         id="path134"
         inkscape:connector-curvature="0" />
      <path
         d="m 2.25,462.024 h 0.480078 v 13.9801 H 2.25 Z"
         style="fill:#000000;fill-opacity:1;fill-rule:evenodd;stroke:none;stroke-width:0.1"
         id="path136"
         inkscape:connector-curvature="0" />
      <path
         d="m 206.148,462.024 h 0.48008 v 13.9801 H 206.148 Z"
         style="fill:#000000;fill-opacity:1;fill-rule:evenodd;stroke:none;stroke-width:0.1"
         id="path138"
         inkscape:connector-curvature="0" />
      <path
         d="m 447.129,462.024 h 0.48008 v 13.9801 H 447.129 Z"
         style="fill:#000000;fill-opacity:1;fill-rule:evenodd;stroke:none;stroke-width:0.1"
         id="path140"
         inkscape:connector-curvature="0" />
      <g
         id="g142">
        <text
           transform="matrix(1,0,0,-1,7.88984,450.263)"
           style="font-variant:normal;font-weight:normal;font-size:12px;font-family:'DejaVu Sans';-inkscape-font-specification:DejaVuSans;writing-mode:lr-tb;fill:#000000;fill-opacity:1;fill-rule:nonzero;stroke:none"
           id="text148">
          <tspan
             x="0 3.9958596 9.9960518 15.347932 19.343994 203.89319 212.55711 218.55721 223.88525 227.88132 233.2092 236.58116 241.90919 246.57721 250.00923 253.34523 259.34543 264.67346 268.71759 272.05362 275.48563 281.48572 286.8136 290.1496 296.18564 301.51367 304.94571 313.58572 319.58569 325.58566 328.58563 331.90945 337.90955 343.94565 349.94586 355.9458 361.27386 365.25781 368.59381 374.62991 380.63 384.00186 390.00195 395.36578 398.70178 404.70187 410.06586 413.41388 422.07776 428.0777 434.04175"
             y="0"
             sodipodi:role="line"
             id="tspan144">InertOperates inert valve V55, bunkering valve V36</tspan>
          <tspan
             x="203.89999 209.22787 215.22807 221.26408 224.26407 230.26416 235.59221 241.59241 244.96437 247.96436 253.96445 259.29233 262.62833 268.66437 274.02835 277.02832 285.6922 291.65622"
             y="13.9801"
             sodipodi:role="line"
             id="tspan146">and vent valve V38</tspan>
        </text>
      </g>
      <path
         d="m 2.25,461.543 h 0.480078 v 0.48008 H 2.25 Z"
         style="fill:#000000;fill-opacity:1;fill-rule:evenodd;stroke:none;stroke-width:0.1"
         id="path150"
         inkscape:connector-curvature="0" />
      <path
         d="m 2.73008,461.543 h 203.418 v 0.48008 H 2.73008 Z"
         style="fill:#000000;fill-opacity:1;fill-rule:evenodd;stroke:none;stroke-width:0.1"
         id="path152"
         inkscape:connector-curvature="0" />
      <path
         d="m 206.148,461.543 h 0.48008 v 0.48008 H 206.148 Z"
         style="fill:#000000;fill-opacity:1;fill-rule:evenodd;stroke:none;stroke-width:0.1"
         id="path154"
         inkscape:connector-curvature="0" />
      <path
         d="m 206.629,461.543 h 240.5 v 0.48008 h -240.5 z"
         style="fill:#000000;fill-opacity:1;fill-rule:evenodd;stroke:none;stroke-width:0.1"
         id="path156"
         inkscape:connector-curvature="0" />
      <path
         d="m 447.129,461.543 h 0.48008 v 0.48008 H 447.129 Z"
         style="fill:#000000;fill-opacity:1;fill-rule:evenodd;stroke:none;stroke-width:0.1"
         id="path158"
         inkscape:connector-curvature="0" />
      <path
         d="m 2.25,433.582 h 0.480078 v 27.9609 H 2.25 Z"
         style="fill:#000000;fill-opacity:1;fill-rule:evenodd;stroke:none;stroke-width:0.1"
         id="path160"
         inkscape:connector-curvature="0" />
      <path
         d="m 206.148,433.582 h 0.48008 v 27.9609 H 206.148 Z"
         style="fill:#000000;fill-opacity:1;fill-rule:evenodd;stroke:none;stroke-width:0.1"
         id="path162"
         inkscape:connector-curvature="0" />
      <path
         d="m 447.129,433.582 h 0.48008 v 27.9609 H 447.129 Z"
         style="fill:#000000;fill-opacity:1;fill-rule:evenodd;stroke:none;stroke-width:0.1"
         id="path164"
         inkscape:connector-curvature="0" />
      <g
         id="g166">
        <text
           transform="matrix(1,0,0,-1,7.88984,421.823)"
           style="font-variant:normal;font-weight:normal;font-size:12px;font-family:'DejaVu Sans';-inkscape-font-specification:DejaVuSans;writing-mode:lr-tb;fill:#000000;fill-opacity:1;fill-rule:nonzero;stroke:none"
           id="text174">
          <tspan
             x="0 8.0041246 14.003981 20.003838 203.91104 215.131 218.467 221.88698 225.22298 234.35498 240.35484 246.35492 251.68297 257.68317 266.80307 274.13513 282.76306 291.42712 300.51111 305.17911 311.21512 315.23502 320.5629 326.56299 335.68289 341.68298 347.02298 350.35898 356.3829 370.89102 374.87491 383.52707 389.52704 395.52698 399.51089 411.60696 418.92691 426.93079 434.21478"
             y="0"
             sodipodi:role="line"
             id="tspan168">CoolWill open LNG spray valve(V01),LBL</tspan>
          <tspan
             x="203.89999 208.56801 211.90405 215.94815 219.28416 225.28424 231.28433 234.6922 240.6924 246.69247 252.50067 258.50076 263.86456 267.20056 273.20065 278.56464 284.37283 288.36887 297.03271 303.00885 308.9967 312.99274 318.76459 324.09247 330.1286 336.12866 341.88882 349.22086 357.22473 364.50873 370.25677 374.92477 380.92499 386.92508 392.94897 396.32089 402.32101 408.06903 414.06912 419.40912 422.74512 428.76904 434.12091"
             y="13.9797"
             sodipodi:role="line"
             id="tspan170">stripping valve (V36) and LBL supply valve</tspan>
          <tspan
             x="203.89999 207.89601 216.55988 222.55984 228.52388 232.5199 235.51988 238.89185 244.89169 247.92761 253.25574 259.25558 265.25546 268.59146 271.59143 277.62744 283.62729 292.29135 298.29153 301.29153 307.31543 313.32733 319.32751 325.32748 330.65552 334.65158 337.6875 341.0235 344.39545 350.39563"
             y="27.959801"
             sodipodi:role="line"
             id="tspan172">(V37) to cool down bunker line</tspan>
        </text>
      </g>
      <path
         d="m 2.25,433.102 h 0.480078 v 0.48008 H 2.25 Z"
         style="fill:#000000;fill-opacity:1;fill-rule:evenodd;stroke:none;stroke-width:0.1"
         id="path176"
         inkscape:connector-curvature="0" />
      <path
         d="m 2.73008,433.102 h 203.418 v 0.48008 H 2.73008 Z"
         style="fill:#000000;fill-opacity:1;fill-rule:evenodd;stroke:none;stroke-width:0.1"
         id="path178"
         inkscape:connector-curvature="0" />
      <path
         d="m 206.148,433.102 h 0.48008 v 0.48008 H 206.148 Z"
         style="fill:#000000;fill-opacity:1;fill-rule:evenodd;stroke:none;stroke-width:0.1"
         id="path180"
         inkscape:connector-curvature="0" />
      <path
         d="m 206.629,433.102 h 240.5 v 0.48008 h -240.5 z"
         style="fill:#000000;fill-opacity:1;fill-rule:evenodd;stroke:none;stroke-width:0.1"
         id="path182"
         inkscape:connector-curvature="0" />
      <path
         d="m 447.129,433.102 h 0.48008 v 0.48008 H 447.129 Z"
         style="fill:#000000;fill-opacity:1;fill-rule:evenodd;stroke:none;stroke-width:0.1"
         id="path184"
         inkscape:connector-curvature="0" />
      <path
         d="m 2.25,391.164 h 0.480078 v 41.9379 H 2.25 Z"
         style="fill:#000000;fill-opacity:1;fill-rule:evenodd;stroke:none;stroke-width:0.1"
         id="path186"
         inkscape:connector-curvature="0" />
      <path
         d="m 206.148,391.164 h 0.48008 v 41.9379 H 206.148 Z"
         style="fill:#000000;fill-opacity:1;fill-rule:evenodd;stroke:none;stroke-width:0.1"
         id="path188"
         inkscape:connector-curvature="0" />
      <path
         d="m 447.129,391.164 h 0.48008 v 41.9379 H 447.129 Z"
         style="fill:#000000;fill-opacity:1;fill-rule:evenodd;stroke:none;stroke-width:0.1"
         id="path190"
         inkscape:connector-curvature="0" />
      <g
         id="g192">
        <text
           transform="matrix(1,0,0,-1,7.88984,379.403)"
           style="font-variant:normal;font-weight:normal;font-size:12px;font-family:'DejaVu Sans';-inkscape-font-specification:DejaVuSans;writing-mode:lr-tb;fill:#000000;fill-opacity:1;fill-rule:nonzero;stroke:none"
           id="text198">
          <tspan
             x="0 8.6638288 12.659891 17.98777 21.323771 203.91457 212.57849 218.57858 223.90663 227.90269 233.23056 236.60252 241.93057 246.59859 253.65443 256.99045 262.99063 268.31866 272.36279 275.69882 282.73083 288.73093 294.05881 297.39481 303.43085 308.75888 315.79089 319.76309 328.42694 334.42691 340.42688 344.42288 351.39474 356.72263 362.72281 368.7229 375.71899 381.71906 387.71927 393.71945 399.71939 405.04745 409.06735 416.01538 419.35138 422.72333 428.72351 434.05154"
             y="0"
             sodipodi:role="line"
             id="tspan194">DrainOperates inert valve (V35) and bunker line</tspan>
          <tspan
             x="203.89999 209.9001 215.22797 218.56398 224.60001 229.96399 232.96397 236.95999 245.58792 251.58788 257.58783"
             y="14"
             sodipodi:role="line"
             id="tspan196">valve (V36)</tspan>
        </text>
      </g>
      <path
         d="m 2.25,390.684 h 0.480078 v 0.48008 H 2.25 Z"
         style="fill:#000000;fill-opacity:1;fill-rule:evenodd;stroke:none;stroke-width:0.1"
         id="path200"
         inkscape:connector-curvature="0" />
      <path
         d="m 2.73008,390.684 h 203.418 v 0.48008 H 2.73008 Z"
         style="fill:#000000;fill-opacity:1;fill-rule:evenodd;stroke:none;stroke-width:0.1"
         id="path202"
         inkscape:connector-curvature="0" />
      <path
         d="m 206.148,390.684 h 0.48008 v 0.48008 H 206.148 Z"
         style="fill:#000000;fill-opacity:1;fill-rule:evenodd;stroke:none;stroke-width:0.1"
         id="path204"
         inkscape:connector-curvature="0" />
      <path
         d="m 206.629,390.684 h 240.5 v 0.48008 h -240.5 z"
         style="fill:#000000;fill-opacity:1;fill-rule:evenodd;stroke:none;stroke-width:0.1"
         id="path206"
         inkscape:connector-curvature="0" />
      <path
         d="m 447.129,390.684 h 0.48008 v 0.48008 H 447.129 Z"
         style="fill:#000000;fill-opacity:1;fill-rule:evenodd;stroke:none;stroke-width:0.1"
         id="path208"
         inkscape:connector-curvature="0" />
      <path
         d="m 2.25,362.704 h 0.480078 v 27.9801 H 2.25 Z"
         style="fill:#000000;fill-opacity:1;fill-rule:evenodd;stroke:none;stroke-width:0.1"
         id="path210"
         inkscape:connector-curvature="0" />
      <path
         d="m 206.148,362.704 h 0.48008 v 27.9801 H 206.148 Z"
         style="fill:#000000;fill-opacity:1;fill-rule:evenodd;stroke:none;stroke-width:0.1"
         id="path212"
         inkscape:connector-curvature="0" />
      <path
         d="m 447.129,362.704 h 0.48008 v 27.9801 H 447.129 Z"
         style="fill:#000000;fill-opacity:1;fill-rule:evenodd;stroke:none;stroke-width:0.1"
         id="path214"
         inkscape:connector-curvature="0" />
      <g
         id="g216">
        <text
           transform="matrix(1,0,0,-1,7.88984,350.943)"
           style="font-variant:normal;font-weight:normal;font-size:12px;font-family:'DejaVu Sans';-inkscape-font-specification:DejaVuSans;writing-mode:lr-tb;fill:#000000;fill-opacity:1;fill-rule:nonzero;stroke:none"
           id="text220">
          <tspan
             x="0 6.6719532 10.007989 15.335869 19.367868 203.90387 215.12383 218.45982 221.86769 225.2037 228.20367 234.20354 240.20363 245.53168 251.53186 254.53185 261.86389 269.86777 277.19983 280.1998 284.8678 290.86801 296.90402 302.90411 306.24011 312.2402 315.24017 321.27621 326.6283 329.96429 335.96439 341.29245 344.29242 348.33649 357.00037 363.00031 368.96436"
             y="0"
             sodipodi:role="line"
             id="tspan218">StartWill open LBL supply valve (V57)</tspan>
        </text>
      </g>
      <path
         d="m 2.25,362.223 h 0.480078 v 0.48008 H 2.25 Z"
         style="fill:#000000;fill-opacity:1;fill-rule:evenodd;stroke:none;stroke-width:0.1"
         id="path222"
         inkscape:connector-curvature="0" />
      <path
         d="m 2.73008,362.223 h 203.418 v 0.48008 H 2.73008 Z"
         style="fill:#000000;fill-opacity:1;fill-rule:evenodd;stroke:none;stroke-width:0.1"
         id="path224"
         inkscape:connector-curvature="0" />
      <path
         d="m 206.148,362.223 h 0.48008 v 0.48008 H 206.148 Z"
         style="fill:#000000;fill-opacity:1;fill-rule:evenodd;stroke:none;stroke-width:0.1"
         id="path226"
         inkscape:connector-curvature="0" />
      <path
         d="m 206.629,362.223 h 240.5 v 0.48008 h -240.5 z"
         style="fill:#000000;fill-opacity:1;fill-rule:evenodd;stroke:none;stroke-width:0.1"
         id="path228"
         inkscape:connector-curvature="0" />
      <path
         d="m 447.129,362.223 h 0.48008 v 0.48008 H 447.129 Z"
         style="fill:#000000;fill-opacity:1;fill-rule:evenodd;stroke:none;stroke-width:0.1"
         id="path230"
         inkscape:connector-curvature="0" />
      <path
         d="m 2.25,348.243 h 0.480078 v 13.9801 H 2.25 Z"
         style="fill:#000000;fill-opacity:1;fill-rule:evenodd;stroke:none;stroke-width:0.1"
         id="path232"
         inkscape:connector-curvature="0" />
      <path
         d="m 206.148,348.243 h 0.48008 v 13.9801 H 206.148 Z"
         style="fill:#000000;fill-opacity:1;fill-rule:evenodd;stroke:none;stroke-width:0.1"
         id="path234"
         inkscape:connector-curvature="0" />
      <path
         d="m 447.129,348.243 h 0.48008 v 13.9801 H 447.129 Z"
         style="fill:#000000;fill-opacity:1;fill-rule:evenodd;stroke:none;stroke-width:0.1"
         id="path236"
         inkscape:connector-curvature="0" />
      <g
         id="g238">
        <text
           transform="matrix(1,0,0,-1,7.88984,336.483)"
           style="font-variant:normal;font-weight:normal;font-size:12px;font-family:'DejaVu Sans';-inkscape-font-specification:DejaVuSans;writing-mode:lr-tb;fill:#000000;fill-opacity:1;fill-rule:nonzero;stroke:none"
           id="text242">
          <tspan
             x="0 6.6719532 10.007989 16.007845 203.91945 215.1394 218.4754 221.88327 225.21927 228.21925 233.54738 236.93143 242.93127 247.59929 252.92734 255.92732 263.25937 271.26324 278.59531 281.59528 286.26328 292.26349 298.2995 304.29959 307.63559 313.63568 316.63565 322.67169 327.99957 331.37149 337.37161 342.69965 345.69965 349.71948 358.38333 364.3833 370.34732"
             y="0"
             sodipodi:role="line"
             id="tspan240">StopWill close LBL supply valve (V57)</tspan>
        </text>
      </g>
      <path
         d="m 2.25,347.762 h 0.480078 v 0.48008 H 2.25 Z"
         style="fill:#000000;fill-opacity:1;fill-rule:evenodd;stroke:none;stroke-width:0.1"
         id="path244"
         inkscape:connector-curvature="0" />
      <path
         d="m 2.73008,347.762 h 203.418 v 0.48008 H 2.73008 Z"
         style="fill:#000000;fill-opacity:1;fill-rule:evenodd;stroke:none;stroke-width:0.1"
         id="path246"
         inkscape:connector-curvature="0" />
      <path
         d="m 206.148,347.762 h 0.48008 v 0.48008 H 206.148 Z"
         style="fill:#000000;fill-opacity:1;fill-rule:evenodd;stroke:none;stroke-width:0.1"
         id="path248"
         inkscape:connector-curvature="0" />
      <path
         d="m 206.629,347.762 h 240.5 v 0.48008 h -240.5 z"
         style="fill:#000000;fill-opacity:1;fill-rule:evenodd;stroke:none;stroke-width:0.1"
         id="path250"
         inkscape:connector-curvature="0" />
      <path
         d="m 447.129,347.762 h 0.48008 v 0.48008 H 447.129 Z"
         style="fill:#000000;fill-opacity:1;fill-rule:evenodd;stroke:none;stroke-width:0.1"
         id="path252"
         inkscape:connector-curvature="0" />
      <path
         d="m 2.25,333.782 h 0.480078 v 13.9801 H 2.25 Z"
         style="fill:#000000;fill-opacity:1;fill-rule:evenodd;stroke:none;stroke-width:0.1"
         id="path254"
         inkscape:connector-curvature="0" />
      <path
         d="m 206.148,333.782 h 0.48008 v 13.9801 H 206.148 Z"
         style="fill:#000000;fill-opacity:1;fill-rule:evenodd;stroke:none;stroke-width:0.1"
         id="path256"
         inkscape:connector-curvature="0" />
      <path
         d="m 447.129,333.782 h 0.48008 v 13.9801 H 447.129 Z"
         style="fill:#000000;fill-opacity:1;fill-rule:evenodd;stroke:none;stroke-width:0.1"
         id="path258"
         inkscape:connector-curvature="0" />
      <g
         id="g260">
        <text
           transform="matrix(1,0,0,-1,7.88984,322.023)"
           style="font-variant:normal;font-weight:normal;font-size:12px;font-family:'DejaVu Sans';-inkscape-font-specification:DejaVuSans;writing-mode:lr-tb;fill:#000000;fill-opacity:1;fill-rule:nonzero;stroke:none"
           id="text264">
          <tspan
             x="0 8.6638594 13.99198 17.328016 20.664015 26.664108 32.064255 35.400288 203.91029 215.13025 218.46625 221.87411 225.21011 228.2101 234.20996 240.21004 245.53809 251.53828 254.53827 261.8703 269.87418 277.20624 280.20621 284.87424 290.87442 296.91043 302.92264 306.25864 312.25873 315.2587 321.29474 326.62262 330.00665 336.00674 341.33481 344.33478 348.35464 357.01849 363.01846 368.98248"
             y="0"
             sodipodi:role="line"
             id="tspan262">ActivateWill open LBL supply valve (V37)</tspan>
        </text>
      </g>
      <path
         d="m 2.25,333.304 h 0.480078 v 0.47695 H 2.25 Z"
         style="fill:#000000;fill-opacity:1;fill-rule:evenodd;stroke:none;stroke-width:0.1"
         id="path266"
         inkscape:connector-curvature="0" />
      <path
         d="m 2.73008,333.304 h 203.418 v 0.47695 H 2.73008 Z"
         style="fill:#000000;fill-opacity:1;fill-rule:evenodd;stroke:none;stroke-width:0.1"
         id="path268"
         inkscape:connector-curvature="0" />
      <path
         d="m 206.148,333.304 h 0.48008 v 0.47695 H 206.148 Z"
         style="fill:#000000;fill-opacity:1;fill-rule:evenodd;stroke:none;stroke-width:0.1"
         id="path270"
         inkscape:connector-curvature="0" />
      <path
         d="m 206.629,333.304 h 240.5 v 0.47695 h -240.5 z"
         style="fill:#000000;fill-opacity:1;fill-rule:evenodd;stroke:none;stroke-width:0.1"
         id="path272"
         inkscape:connector-curvature="0" />
      <path
         d="m 447.129,333.304 h 0.48008 v 0.47695 H 447.129 Z"
         style="fill:#000000;fill-opacity:1;fill-rule:evenodd;stroke:none;stroke-width:0.1"
         id="path274"
         inkscape:connector-curvature="0" />
      <path
         d="m 2.25,319.325 h 0.480078 v 13.9801 H 2.25 Z"
         style="fill:#000000;fill-opacity:1;fill-rule:evenodd;stroke:none;stroke-width:0.1"
         id="path276"
         inkscape:connector-curvature="0" />
      <path
         d="m 206.148,319.325 h 0.48008 v 13.9801 H 206.148 Z"
         style="fill:#000000;fill-opacity:1;fill-rule:evenodd;stroke:none;stroke-width:0.1"
         id="path278"
         inkscape:connector-curvature="0" />
      <path
         d="m 447.129,319.325 h 0.48008 v 13.9801 H 447.129 Z"
         style="fill:#000000;fill-opacity:1;fill-rule:evenodd;stroke:none;stroke-width:0.1"
         id="path280"
         inkscape:connector-curvature="0" />
      <g
         id="g282">
        <text
           transform="matrix(1,0,0,-1,7.88984,307.563)"
           style="font-variant:normal;font-weight:normal;font-size:12px;font-family:'DejaVu Sans';-inkscape-font-specification:DejaVuSans;writing-mode:lr-tb;fill:#000000;fill-opacity:1;fill-rule:nonzero;stroke:none"
           id="text286">
          <tspan
             x="0 8.6638288 13.991877 19.319756 24.647877 28.007732 31.343733 37.343826 42.707634 46.091717 203.91212 215.13206 218.46808 221.87595 225.21194 228.21193 233.54005 236.9241 242.92395 247.59196 252.92001 255.92 263.25204 271.25592 278.58795 281.58795 286.25595 292.25616 298.29218 304.29224 307.62827 313.62836 316.62833 322.66437 327.99225 331.36417 337.36426 342.69232 345.69229 349.71216 358.37601 364.37598 370.34"
             y="0"
             sodipodi:role="line"
             id="tspan284">DeactivateWill close LBL supply valve (V37)</tspan>
        </text>
      </g>
      <path
         d="m 2.25,318.844 h 0.480078 v 0.47969 H 2.25 Z"
         style="fill:#000000;fill-opacity:1;fill-rule:evenodd;stroke:none;stroke-width:0.1"
         id="path288"
         inkscape:connector-curvature="0" />
      <path
         d="m 2.73008,318.844 h 203.418 v 0.47969 H 2.73008 Z"
         style="fill:#000000;fill-opacity:1;fill-rule:evenodd;stroke:none;stroke-width:0.1"
         id="path290"
         inkscape:connector-curvature="0" />
      <path
         d="m 206.148,318.844 h 0.48008 v 0.47969 H 206.148 Z"
         style="fill:#000000;fill-opacity:1;fill-rule:evenodd;stroke:none;stroke-width:0.1"
         id="path292"
         inkscape:connector-curvature="0" />
      <path
         d="m 206.629,318.844 h 240.5 v 0.47969 h -240.5 z"
         style="fill:#000000;fill-opacity:1;fill-rule:evenodd;stroke:none;stroke-width:0.1"
         id="path294"
         inkscape:connector-curvature="0" />
      <path
         d="m 447.129,318.844 h 0.48008 v 0.47969 H 447.129 Z"
         style="fill:#000000;fill-opacity:1;fill-rule:evenodd;stroke:none;stroke-width:0.1"
         id="path296"
         inkscape:connector-curvature="0" />
      <path
         d="m 2.25,304.864 h 0.480078 v 13.9801 H 2.25 Z"
         style="fill:#000000;fill-opacity:1;fill-rule:evenodd;stroke:none;stroke-width:0.1"
         id="path298"
         inkscape:connector-curvature="0" />
      <path
         d="m 206.148,304.864 h 0.48008 v 13.9801 H 206.148 Z"
         style="fill:#000000;fill-opacity:1;fill-rule:evenodd;stroke:none;stroke-width:0.1"
         id="path300"
         inkscape:connector-curvature="0" />
      <path
         d="m 447.129,304.864 h 0.48008 v 13.9801 H 447.129 Z"
         style="fill:#000000;fill-opacity:1;fill-rule:evenodd;stroke:none;stroke-width:0.1"
         id="path302"
         inkscape:connector-curvature="0" />
      <g
         id="g304">
        <text
           transform="matrix(1,0,0,-1,7.88984,293.103)"
           style="font-variant:normal;font-weight:normal;font-size:12px;font-family:'DejaVu Sans';-inkscape-font-specification:DejaVuSans;writing-mode:lr-tb;fill:#000000;fill-opacity:1;fill-rule:nonzero;stroke:none"
           id="text308">
          <tspan
             x="0 7.332047 16.559891 21.887939 25.884001 31.907906 37.235954 43.236145 48.564266 54.564358 57.564342 64.272232 67.608269 73.608124 203.94012 215.16008 218.49608 221.89224 225.22824 228.24033 233.56845 236.9525 242.95235 247.62036 252.94841 255.94839 263.28046 271.28433 278.61636 281.61636 290.83246 296.16034 299.49634 305.52036 308.52036 313.2243 319.23621 325.2363 331.23636 334.57236 340.59628 343.6084 349.60849 354.96057 358.29657 364.3205 369.63644 372.64853 376.68048 385.33261 391.33258 397.33255"
             y="0"
             sodipodi:role="line"
             id="tspan306">Emergency StopWill close LBL main supply valve (V57)</tspan>
        </text>
      </g>
      <path
         d="m 2.25,304.383 h 0.480078 v 0.47969 H 2.25 Z"
         style="fill:#000000;fill-opacity:1;fill-rule:evenodd;stroke:none;stroke-width:0.1"
         id="path310"
         inkscape:connector-curvature="0" />
      <path
         d="m 2.73008,304.383 h 203.418 v 0.47969 H 2.73008 Z"
         style="fill:#000000;fill-opacity:1;fill-rule:evenodd;stroke:none;stroke-width:0.1"
         id="path312"
         inkscape:connector-curvature="0" />
      <path
         d="m 206.148,304.383 h 0.48008 v 0.47969 H 206.148 Z"
         style="fill:#000000;fill-opacity:1;fill-rule:evenodd;stroke:none;stroke-width:0.1"
         id="path314"
         inkscape:connector-curvature="0" />
      <path
         d="m 206.629,304.383 h 240.5 v 0.47969 h -240.5 z"
         style="fill:#000000;fill-opacity:1;fill-rule:evenodd;stroke:none;stroke-width:0.1"
         id="path316"
         inkscape:connector-curvature="0" />
      <path
         d="m 447.129,304.383 h 0.48008 v 0.47969 H 447.129 Z"
         style="fill:#000000;fill-opacity:1;fill-rule:evenodd;stroke:none;stroke-width:0.1"
         id="path318"
         inkscape:connector-curvature="0" />
      <path
         d="m 2.25,290.403 h 0.480078 v 13.9801 H 2.25 Z"
         style="fill:#000000;fill-opacity:1;fill-rule:evenodd;stroke:none;stroke-width:0.1"
         id="path320"
         inkscape:connector-curvature="0" />
      <path
         d="m 206.148,290.403 h 0.48008 v 13.9801 H 206.148 Z"
         style="fill:#000000;fill-opacity:1;fill-rule:evenodd;stroke:none;stroke-width:0.1"
         id="path322"
         inkscape:connector-curvature="0" />
      <path
         d="m 447.129,290.403 h 0.48008 v 13.9801 H 447.129 Z"
         style="fill:#000000;fill-opacity:1;fill-rule:evenodd;stroke:none;stroke-width:0.1"
         id="path324"
         inkscape:connector-curvature="0" />
      <g
         id="g326">
        <text
           transform="matrix(1,0,0,-1,7.88984,278.643)"
           style="font-variant:normal;font-weight:normal;font-size:12px;font-family:'DejaVu Sans';-inkscape-font-specification:DejaVuSans;writing-mode:lr-tb;fill:#000000;fill-opacity:1;fill-rule:nonzero;stroke:none"
           id="text330">
          <tspan
             x="0 8.0041246 14.003981 20.004173 23.340208 27.336271 33.336128 36.708065 39.70805 47.748051 53.040157 57.708168 63.036217 203.90181 211.90588 217.23393 221.90195 227.22998 230.56602 233.56601 240.89806 248.90193 256.19803 259.23395 262.54578 266.55396 269.88995"
             y="0"
             sodipodi:role="line"
             id="tspan328">Control ResetReset LBL trip</tspan>
        </text>
      </g>
      <path
         d="m 2.25,289.922 h 0.480078 v 0.48008 H 2.25 Z"
         style="fill:#000000;fill-opacity:1;fill-rule:evenodd;stroke:none;stroke-width:0.1"
         id="path332"
         inkscape:connector-curvature="0" />
      <path
         d="m 2.73008,289.922 h 203.418 v 0.48008 H 2.73008 Z"
         style="fill:#000000;fill-opacity:1;fill-rule:evenodd;stroke:none;stroke-width:0.1"
         id="path334"
         inkscape:connector-curvature="0" />
      <path
         d="m 206.148,289.922 h 0.48008 v 0.48008 H 206.148 Z"
         style="fill:#000000;fill-opacity:1;fill-rule:evenodd;stroke:none;stroke-width:0.1"
         id="path336"
         inkscape:connector-curvature="0" />
      <path
         d="m 206.629,289.922 h 240.5 v 0.48008 h -240.5 z"
         style="fill:#000000;fill-opacity:1;fill-rule:evenodd;stroke:none;stroke-width:0.1"
         id="path338"
         inkscape:connector-curvature="0" />
      <path
         d="m 447.129,289.922 h 0.48008 v 0.48008 H 447.129 Z"
         style="fill:#000000;fill-opacity:1;fill-rule:evenodd;stroke:none;stroke-width:0.1"
         id="path340"
         inkscape:connector-curvature="0" />
      <path
         d="m 2.25,275.942 h 0.480078 v 13.9797 H 2.25 Z"
         style="fill:#000000;fill-opacity:1;fill-rule:evenodd;stroke:none;stroke-width:0.1"
         id="path342"
         inkscape:connector-curvature="0" />
      <path
         d="m 2.25,275.461 h 0.480078 v 0.48008 H 2.25 Z"
         style="fill:#000000;fill-opacity:1;fill-rule:evenodd;stroke:none;stroke-width:0.1"
         id="path344"
         inkscape:connector-curvature="0" />
      <path
         d="m 2.25,275.461 h 0.480078 v 0.48008 H 2.25 Z"
         style="fill:#000000;fill-opacity:1;fill-rule:evenodd;stroke:none;stroke-width:0.1"
         id="path346"
         inkscape:connector-curvature="0" />
      <path
         d="m 2.73008,275.461 h 203.418 v 0.48008 H 2.73008 Z"
         style="fill:#000000;fill-opacity:1;fill-rule:evenodd;stroke:none;stroke-width:0.1"
         id="path348"
         inkscape:connector-curvature="0" />
      <path
         d="m 206.148,275.942 h 0.48008 v 13.9797 H 206.148 Z"
         style="fill:#000000;fill-opacity:1;fill-rule:evenodd;stroke:none;stroke-width:0.1"
         id="path350"
         inkscape:connector-curvature="0" />
      <path
         d="m 206.148,275.461 h 0.48008 v 0.48008 H 206.148 Z"
         style="fill:#000000;fill-opacity:1;fill-rule:evenodd;stroke:none;stroke-width:0.1"
         id="path352"
         inkscape:connector-curvature="0" />
      <path
         d="m 206.629,275.461 h 240.5 v 0.48008 h -240.5 z"
         style="fill:#000000;fill-opacity:1;fill-rule:evenodd;stroke:none;stroke-width:0.1"
         id="path354"
         inkscape:connector-curvature="0" />
      <path
         d="m 447.129,275.942 h 0.48008 v 13.9797 H 447.129 Z"
         style="fill:#000000;fill-opacity:1;fill-rule:evenodd;stroke:none;stroke-width:0.1"
         id="path356"
         inkscape:connector-curvature="0" />
      <path
         d="m 447.129,275.461 h 0.48008 v 0.48008 H 447.129 Z"
         style="fill:#000000;fill-opacity:1;fill-rule:evenodd;stroke:none;stroke-width:0.1"
         id="path358"
         inkscape:connector-curvature="0" />
      <path
         d="m 447.129,275.461 h 0.48008 v 0.48008 H 447.129 Z"
         style="fill:#000000;fill-opacity:1;fill-rule:evenodd;stroke:none;stroke-width:0.1"
         id="path360"
         inkscape:connector-curvature="0" />
      <text
         y="-250.203"
         x="7.8898401"
         id="text370"
         style="font-variant:normal;font-weight:normal;font-size:12px;font-family:'DejaVu Sans';-inkscape-font-specification:DejaVuSans;writing-mode:lr-tb;fill:#000000;fill-opacity:1;fill-rule:nonzero;stroke:none"
         transform="scale(1,-1)">
        <tspan
           id="tspan364"
           sodipodi:role="line"
           y="-250.203"
           x="7.8898401 16.55373 22.553587 25.889622 31.21767 35.237484 38.237469 46.241341 52.241535 58.241726 64.241684 69.569733 73.565788 76.901787 82.901985 88.937996 91.937981 95.322021 99.990036 102.99002 108.99021 114.99007 118.34992 121.34991 127.38593 133.38579 138.0538 142.72182 146.09375 152.09383 155.42982 160.75787 163.75786 169.79399 175.79417 179.17825 182.51427 185.8862 188.88618 196.21823 202.92612 211.5423 214.54228 219.87039 225.87025 235.12231 244.36226 250.36246 256.36264 259.69864 265.06268 270.42651 273.76254 277.13446 283.13434 288.95084 291.95081 295.2868 299.96695 303.00287 308.3067 312.9747 316.34668 321.68665 327.71057 331.04657 334.4306 339.0986 345.09882 350.42685 356.42694">Note! Bunkering is not possible until ESD communication is established.</tspan>
        <tspan
           id="tspan366"
           sodipodi:role="line"
           y="-236.2229"
           x="7.8898401 16.55373 22.553587 25.889622 31.21767 35.237484 38.237469 44.90942 50.933323 54.905167 60.268978 66.269073 69.269058 75.26915 80.621246 83.957245 89.993279 95.285385 98.321304 102.32943 110.99329 116.99326 122.99322 126.98924 129.98923 139.22917 145.22937 149.89738 153.23341 156.2334 162.23349 167.59747 170.59746 176.59732 182.63333 187.92543 197.02133 200.34525 206.36932 209.36931 214.68526 220.69716 226.07307 232.07315 235.40915 240.7372 243.73718 249.74937 253.78137 259.13345 262.46948 268.48135">Note! Spray valve (V02) must be opento enable drain.</tspan>
        <tspan
           id="tspan368"
           sodipodi:role="line"
           y="-222.24319"
           x="7.8898401 16.55373 22.553587 25.889622 31.21767 35.237484 38.237469 46.241341 52.241535 58.241726 64.241684 69.569733 73.565788 76.565773 79.901772 83.28582 89.321938 94.614052 97.649971 106.86609 112.90221 117.57022 120.90626 123.90624 129.90633 135.27032 138.27031 141.60631 147.60651 150.60649 155.9346 164.01059 170.01045 176.0103 179.3463 184.67435 190.69826 196.03809 199.0619 203.7299 207.06595 212.42975 215.76579 221.06963 224.09343 230.09352 235.4575 239.42955 245.45364 249.44971 254.75354 257.75351 263.7774 267.77347 273.05682 276.39282 282.40472 285.40472 288.80087 293.4689 296.46887 302.46896 308.48093 313.14893 317.84079 321.17679 327.20068 330.57263 335.90067">Note! Bunker line must be in “Cooled” state before drain is possible.</tspan>
      </text>
    </g>
  </g>
</svg>
