<?xml version="1.0" encoding="UTF-8" standalone="no"?>
<!-- Created with Inkscape (http://www.inkscape.org/) -->

<svg
   xmlns:dc="http://purl.org/dc/elements/1.1/"
   xmlns:cc="http://creativecommons.org/ns#"
   xmlns:rdf="http://www.w3.org/1999/02/22-rdf-syntax-ns#"
   xmlns:svg="http://www.w3.org/2000/svg"
   xmlns="http://www.w3.org/2000/svg"
   xmlns:sodipodi="http://sodipodi.sourceforge.net/DTD/sodipodi-0.dtd"
   xmlns:inkscape="http://www.inkscape.org/namespaces/inkscape"
   version="1.1"
   id="svg2"
   xml:space="preserve"
   width="710.66669"
   height="301.33334"
   viewBox="0 0 710.66669 301.33334"
   sodipodi:docname="MGE.svg"
   inkscape:version="0.92.2 5c3e80d, 2017-08-06"><metadata
     id="metadata8"><rdf:RDF><cc:Work
         rdf:about=""><dc:format>image/svg+xml</dc:format><dc:type
           rdf:resource="http://purl.org/dc/dcmitype/StillImage" /><dc:title></dc:title></cc:Work></rdf:RDF></metadata><defs
     id="defs6" /><sodipodi:namedview
     pagecolor="#ffffff"
     bordercolor="#666666"
     borderopacity="1"
     objecttolerance="10"
     gridtolerance="10"
     guidetolerance="10"
     inkscape:pageopacity="0"
     inkscape:pageshadow="2"
     inkscape:window-width="1366"
     inkscape:window-height="739"
     id="namedview4"
     showgrid="false"
     inkscape:zoom="0.6696397"
     inkscape:cx="478.41298"
     inkscape:cy="107.13251"
     inkscape:window-x="0"
     inkscape:window-y="0"
     inkscape:window-maximized="1"
     inkscape:current-layer="g12" /><g
     id="g10"
     inkscape:groupmode="layer"
     inkscape:label="ink_ext_XXXXXX"
     transform="matrix(1.3333333,0,0,-1.3333333,0,301.33333)"><g
       id="g12"
       transform="matrix(0.09137032,0,0,0.1,45.920218,0)"><g
         id="g1143"
         transform="matrix(0.94932097,0,0,1,269.67309,0)"><g
           transform="scale(10)"
           id="g14"><text
             id="text18"
             style="font-variant:normal;font-weight:bold;font-size:12px;font-family:'DejaVu Sans';-inkscape-font-specification:DejaVuSans-Bold;writing-mode:lr-tb;fill:#000000;fill-opacity:1;fill-rule:nonzero;stroke:none"
             transform="matrix(1,0,0,-1,5.63984,216.883)"><tspan
               id="tspan16"
               sodipodi:role="line"
               y="0"
               x="0 11.32789 17.32789 20.663813 27.335934 30.335762 39.707684 45.731514 50.37542 53.375248 61.379059 67.379227 73.391335 80.075531 86.075386 91.403496 97.403496 101.39965 107.39951 112.72762 115.70361 119.73566 131.06355 140.39954 148.40335">Main Gas Evaporator (MGE)</tspan></text>
</g><path
           inkscape:connector-curvature="0"
           id="path20"
           style="fill:#000000;fill-opacity:1;fill-rule:evenodd;stroke:none"
           d="m 56.4102,2144.21 h 1524.8 v 11.4102 h -1524.8 z" /><g
           transform="scale(10)"
           id="g22"><text
             id="text26"
             style="font-variant:normal;font-weight:bold;font-size:12px;font-family:'DejaVu Sans';-inkscape-font-specification:DejaVuSans-Bold;writing-mode:lr-tb;fill:#000000;fill-opacity:1;fill-rule:nonzero;stroke:none"
             transform="matrix(1,0,0,-1,5.63984,188.383)"><tspan
               id="tspan24"
               sodipodi:role="line"
               y="0"
               x="0 8.6638594 14.663715 24.659908 34.656101 40.656101 47.32822 203.91382 211.91763 215.9138 219.90997 225.26198 230.59009">CommandEffect</tspan></text>
</g><path
           inkscape:connector-curvature="0"
           id="path28"
           style="fill:#000000;fill-opacity:1;fill-rule:evenodd;stroke:none"
           d="m 0,1998.4 h 4.80078 v 4.8008 H 0 Z" /><path
           inkscape:connector-curvature="0"
           id="path30"
           style="fill:#000000;fill-opacity:1;fill-rule:evenodd;stroke:none"
           d="m 0,1998.4 h 4.80078 v 4.8008 H 0 Z" /><path
           inkscape:connector-curvature="0"
           id="path32"
           style="fill:#000000;fill-opacity:1;fill-rule:evenodd;stroke:none"
           d="M 4.80078,1998.4 H 2038.9808 v 4.8008 H 4.80078 Z" /><path
           inkscape:connector-curvature="0"
           id="path34"
           style="fill:#000000;fill-opacity:1;fill-rule:evenodd;stroke:none"
           d="m 2038.98,1998.4 h 4.8008 v 4.8008 h -4.8008 z" /><path
           inkscape:connector-curvature="0"
           id="path36"
           style="fill:#000000;fill-opacity:1;fill-rule:evenodd;stroke:none"
           d="m 2043.79,1998.4 h 2405 v 4.8008 h -2405 z" /><path
           inkscape:connector-curvature="0"
           id="path38"
           style="fill:#000000;fill-opacity:1;fill-rule:evenodd;stroke:none"
           d="m 4448.79,1998.4 h 4.8008 v 4.8008 h -4.8008 z" /><path
           inkscape:connector-curvature="0"
           id="path40"
           style="fill:#000000;fill-opacity:1;fill-rule:evenodd;stroke:none"
           d="m 4448.79,1998.4 h 4.8008 v 4.8008 h -4.8008 z" /><path
           inkscape:connector-curvature="0"
           id="path42"
           style="fill:#000000;fill-opacity:1;fill-rule:evenodd;stroke:none"
           d="m 0,1858.01 h 4.80078 v 140.387 H 0 Z" /><path
           inkscape:connector-curvature="0"
           id="path44"
           style="fill:#000000;fill-opacity:1;fill-rule:evenodd;stroke:none"
           d="m 2038.98,1858.01 h 4.8008 v 140.387 h -4.8008 z" /><path
           inkscape:connector-curvature="0"
           id="path46"
           style="fill:#000000;fill-opacity:1;fill-rule:evenodd;stroke:none"
           d="m 4448.79,1858.01 h 4.8008 v 140.387 h -4.8008 z" /><g
           transform="scale(10)"
           id="g48"><text
             id="text54"
             style="font-variant:normal;font-weight:normal;font-size:12px;font-family:'DejaVu Sans';-inkscape-font-specification:DejaVuSans;writing-mode:lr-tb;fill:#000000;fill-opacity:1;fill-rule:nonzero;stroke:none"
             transform="matrix(1,0,0,-1,5.63984,174.043)"><tspan
               id="tspan50"
               sodipodi:role="line"
               y="0"
               x="0 8.6638594 14.664052 18.000088 203.90529 212.56915 217.89703 221.23303 227.23312 232.56117 237.22919 240.43307 245.78502 251.78488 257.78506 263.78528 269.11331 274.44144 277.8255 283.15356 289.15366 292.33371 295.66974 301.66962 304.80161 315.49356 324.15762 331.48965 334.65762 339.9855 343.98157 349.34555 352.45374 357.78186 363.78171 369.79361 373.12964 377.16165 383.17361 386.50961 389.89368 395.20959 401.2218 404.34171 410.3418 416.34189 419.46179 422.79782 428.798">AutoValves connected to MGE are controlled by the</tspan><tspan
               id="tspan52"
               sodipodi:role="line"
               y="13.9801"
               x="203.89999 209.22812 215.22798 221.25198 224.5638 228.60791 234.63199 237.96799 240.96797 245.63599 251.63608 256.34003 259.67606 265.00412">control system</tspan></text>
</g><path
           inkscape:connector-curvature="0"
           id="path56"
           style="fill:#000000;fill-opacity:1;fill-rule:evenodd;stroke:none"
           d="m 0,1853.21 h 4.80078 v 4.8008 H 0 Z" /><path
           inkscape:connector-curvature="0"
           id="path58"
           style="fill:#000000;fill-opacity:1;fill-rule:evenodd;stroke:none"
           d="M 4.80078,1853.21 H 2038.9808 v 4.8008 H 4.80078 Z" /><path
           inkscape:connector-curvature="0"
           id="path60"
           style="fill:#000000;fill-opacity:1;fill-rule:evenodd;stroke:none"
           d="m 2038.98,1853.21 h 4.8008 v 4.8008 h -4.8008 z" /><path
           inkscape:connector-curvature="0"
           id="path62"
           style="fill:#000000;fill-opacity:1;fill-rule:evenodd;stroke:none"
           d="m 2043.79,1853.21 h 2405 v 4.8008 h -2405 z" /><path
           inkscape:connector-curvature="0"
           id="path64"
           style="fill:#000000;fill-opacity:1;fill-rule:evenodd;stroke:none"
           d="m 4448.79,1853.21 h 4.8008 v 4.8008 h -4.8008 z" /><path
           inkscape:connector-curvature="0"
           id="path66"
           style="fill:#000000;fill-opacity:1;fill-rule:evenodd;stroke:none"
           d="M 0,1573.63 H 4.80078 V 1853.2 H 0 Z" /><path
           inkscape:connector-curvature="0"
           id="path68"
           style="fill:#000000;fill-opacity:1;fill-rule:evenodd;stroke:none"
           d="m 2038.98,1573.63 h 4.8008 v 279.57 h -4.8008 z" /><path
           inkscape:connector-curvature="0"
           id="path70"
           style="fill:#000000;fill-opacity:1;fill-rule:evenodd;stroke:none"
           d="m 4448.79,1573.63 h 4.8008 v 279.57 h -4.8008 z" /><g
           transform="scale(10)"
           id="g72"><text
             id="text78"
             style="font-variant:normal;font-weight:normal;font-size:12px;font-family:'DejaVu Sans';-inkscape-font-specification:DejaVuSans;writing-mode:lr-tb;fill:#000000;fill-opacity:1;fill-rule:nonzero;stroke:none"
             transform="matrix(1,0,0,-1,5.63984,145.603)"><tspan
               id="tspan74"
               sodipodi:role="line"
               y="0"
               x="0 10.668109 15.995989 22.02 28.020193 33.372288 203.92949 212.59335 217.92123 221.25723 227.25732 232.58537 237.25339 247.83734 253.1893 259.18915 265.18936 271.18954 276.51758 281.8457 285.2298 290.55783 296.55792 307.11807 310.4541 316.45395 327.02582 337.71774 346.38181 353.71387 364.23767 369.56555 373.56161 378.9256 389.47363 398.71359 404.04147 410.04166 416.05356 421.39355 424.7655 428.1015">ManualValves connected to MGE are manually</tspan><tspan
               id="tspan76"
               sodipodi:role="line"
               y="13.9797"
               x="203.89999 209.22812 215.22798 221.25198 224.5638 228.60791 234.63199 237.96799 241.33992 246.66797">controlled</tspan></text>
</g><path
           inkscape:connector-curvature="0"
           id="path80"
           style="fill:#000000;fill-opacity:1;fill-rule:evenodd;stroke:none"
           d="m 0,1568.83 h 4.80078 v 4.8008 H 0 Z" /><path
           inkscape:connector-curvature="0"
           id="path82"
           style="fill:#000000;fill-opacity:1;fill-rule:evenodd;stroke:none"
           d="M 4.80078,1568.83 H 2038.9808 v 4.8008 H 4.80078 Z" /><path
           inkscape:connector-curvature="0"
           id="path84"
           style="fill:#000000;fill-opacity:1;fill-rule:evenodd;stroke:none"
           d="m 2038.98,1568.83 h 4.8008 v 4.8008 h -4.8008 z" /><path
           inkscape:connector-curvature="0"
           id="path86"
           style="fill:#000000;fill-opacity:1;fill-rule:evenodd;stroke:none"
           d="m 2043.79,1568.83 h 2405 v 4.8008 h -2405 z" /><path
           inkscape:connector-curvature="0"
           id="path88"
           style="fill:#000000;fill-opacity:1;fill-rule:evenodd;stroke:none"
           d="m 4448.79,1568.83 h 4.8008 v 4.8008 h -4.8008 z" /><path
           inkscape:connector-curvature="0"
           id="path90"
           style="fill:#000000;fill-opacity:1;fill-rule:evenodd;stroke:none"
           d="m 0,1289.22 h 4.80078 v 279.613 H 0 Z" /><path
           inkscape:connector-curvature="0"
           id="path92"
           style="fill:#000000;fill-opacity:1;fill-rule:evenodd;stroke:none"
           d="m 2038.98,1289.22 h 4.8008 v 279.613 h -4.8008 z" /><path
           inkscape:connector-curvature="0"
           id="path94"
           style="fill:#000000;fill-opacity:1;fill-rule:evenodd;stroke:none"
           d="m 4448.79,1289.22 h 4.8008 v 279.613 h -4.8008 z" /><g
           transform="scale(10)"
           id="g96"><text
             id="text102"
             style="font-variant:normal;font-weight:normal;font-size:12px;font-family:'DejaVu Sans';-inkscape-font-specification:DejaVuSans;writing-mode:lr-tb;fill:#000000;fill-opacity:1;fill-rule:nonzero;stroke:none"
             transform="matrix(1,0,0,-1,5.63984,117.163)"><tspan
               id="tspan98"
               sodipodi:role="line"
               y="0"
               x="0 3.9958596 9.9960518 15.347932 19.343994 203.8956 212.55951 218.5596 223.88765 227.88371 233.21159 236.58356 241.91161 246.57962 251.21162 254.54762 260.54782 265.87589 269.91998 273.25601 277.82788 283.82797 289.15585 292.49185 298.51578 303.85593 308.4278 312.39996 321.06384 327.06378 333.06375 337.05978 341.63162 346.9595 352.95972 358.95978 363.54376 370.87579 378.20786 382.73166 388.73175 394.05981 400.06 403.39603 407.98001 413.9801 419.30798 422.64398 428.66791">InertOperates inert valve (V23) and EL vent valve</tspan><tspan
               id="tspan100"
               sodipodi:role="line"
               y="13.9801"
               x="203.89999 207.89601 216.55988 222.55984 228.53598">(V26)</tspan></text>
</g><path
           inkscape:connector-curvature="0"
           id="path104"
           style="fill:#000000;fill-opacity:1;fill-rule:evenodd;stroke:none"
           d="m 0,1284.42 h 4.80078 v 4.7969 H 0 Z" /><path
           inkscape:connector-curvature="0"
           id="path106"
           style="fill:#000000;fill-opacity:1;fill-rule:evenodd;stroke:none"
           d="M 4.80078,1284.42 H 2038.9808 v 4.7969 H 4.80078 Z" /><path
           inkscape:connector-curvature="0"
           id="path108"
           style="fill:#000000;fill-opacity:1;fill-rule:evenodd;stroke:none"
           d="m 2038.98,1284.42 h 4.8008 v 4.7969 h -4.8008 z" /><path
           inkscape:connector-curvature="0"
           id="path110"
           style="fill:#000000;fill-opacity:1;fill-rule:evenodd;stroke:none"
           d="m 2043.79,1284.42 h 2405 v 4.7969 h -2405 z" /><path
           inkscape:connector-curvature="0"
           id="path112"
           style="fill:#000000;fill-opacity:1;fill-rule:evenodd;stroke:none"
           d="m 4448.79,1284.42 h 4.8008 v 4.7969 h -4.8008 z" /><path
           inkscape:connector-curvature="0"
           id="path114"
           style="fill:#000000;fill-opacity:1;fill-rule:evenodd;stroke:none"
           d="m 0,1004.8 h 4.80078 v 279.609 H 0 Z" /><path
           inkscape:connector-curvature="0"
           id="path116"
           style="fill:#000000;fill-opacity:1;fill-rule:evenodd;stroke:none"
           d="m 2038.98,1004.8 h 4.8008 v 279.609 h -4.8008 z" /><path
           inkscape:connector-curvature="0"
           id="path118"
           style="fill:#000000;fill-opacity:1;fill-rule:evenodd;stroke:none"
           d="m 4448.79,1004.8 h 4.8008 v 279.609 h -4.8008 z" /><g
           transform="scale(10)"
           id="g120"><text
             id="text124"
             style="font-variant:normal;font-weight:normal;font-size:12px;font-family:'DejaVu Sans';-inkscape-font-specification:DejaVuSans;writing-mode:lr-tb;fill:#000000;fill-opacity:1;fill-rule:nonzero;stroke:none"
             transform="matrix(1,0,0,-1,5.63984,88.7227)"><tspan
               id="tspan122"
               sodipodi:role="line"
               y="0"
               x="0 8.6638594 13.99198 17.328016 20.664015 26.664108 32.052147 35.38818 203.90659 215.12654 218.46254 221.85869 225.19469 228.19467 234.19453 240.19461 245.52266 251.52286 254.52284 265.2507 270.57858 273.91458 279.91479 282.97491 291.61478 296.96686 301.63489 304.63486 311.96692 317.96701 323.29489 329.31879 335.31863 339.35065 344.67853 348.01456 354.0144 358.05853 361.0585 367.05859 372.38647 375.72247 381.7464 387.08655 390.11038 394.08255 402.74643 408.7464 414.74634">ActivateWill open Main Gas Evaporator valve (V22)</tspan></text>
</g><path
           inkscape:connector-curvature="0"
           id="path126"
           style="fill:#000000;fill-opacity:1;fill-rule:evenodd;stroke:none"
           d="m 0,1000 h 4.80078 v 4.8008 H 0 Z" /><path
           inkscape:connector-curvature="0"
           id="path128"
           style="fill:#000000;fill-opacity:1;fill-rule:evenodd;stroke:none"
           d="M 4.80078,1000 H 2038.9808 v 4.8008 H 4.80078 Z" /><path
           inkscape:connector-curvature="0"
           id="path130"
           style="fill:#000000;fill-opacity:1;fill-rule:evenodd;stroke:none"
           d="m 2038.98,1000 h 4.8008 v 4.8008 h -4.8008 z" /><path
           inkscape:connector-curvature="0"
           id="path132"
           style="fill:#000000;fill-opacity:1;fill-rule:evenodd;stroke:none"
           d="m 2043.79,1000 h 2405 v 4.8008 h -2405 z" /><path
           inkscape:connector-curvature="0"
           id="path134"
           style="fill:#000000;fill-opacity:1;fill-rule:evenodd;stroke:none"
           d="m 4448.79,1000 h 4.8008 v 4.8008 h -4.8008 z" /><path
           inkscape:connector-curvature="0"
           id="path136"
           style="fill:#000000;fill-opacity:1;fill-rule:evenodd;stroke:none"
           d="M 0,860.23 H 4.80078 V 1000 H 0 Z" /><path
           inkscape:connector-curvature="0"
           id="path138"
           style="fill:#000000;fill-opacity:1;fill-rule:evenodd;stroke:none"
           d="m 2038.98,860.23 h 4.8008 V 1000 h -4.8008 z" /><path
           inkscape:connector-curvature="0"
           id="path140"
           style="fill:#000000;fill-opacity:1;fill-rule:evenodd;stroke:none"
           d="m 4448.79,860.23 h 4.8008 V 1000 h -4.8008 z" /><g
           transform="scale(10)"
           id="g142"><text
             id="text146"
             style="font-variant:normal;font-weight:normal;font-size:12px;font-family:'DejaVu Sans';-inkscape-font-specification:DejaVuSans;writing-mode:lr-tb;fill:#000000;fill-opacity:1;fill-rule:nonzero;stroke:none"
             transform="matrix(1,0,0,-1,5.63984,74.2629)"><tspan
               id="tspan144"
               sodipodi:role="line"
               y="0"
               x="0 8.0041246 11.340125 17.339981 22.007994 203.89679 215.11674 218.45274 221.84891 225.18491 228.18489 233.513 236.89705 242.89691 247.56493 252.89297 255.89296 266.6091 271.93698 275.27298 281.27319 284.34503 292.98489 298.33698 303.005 306.00497 313.33704 319.33713 324.66501 330.66507 336.68918 340.72116 346.04904 349.38507 355.38495 359.42905 362.42905 368.42914 373.75702 377.09302 383.11691 388.45709 391.46918 395.45309 404.11694 410.11691 416.11688">CloseWill close Main Gas Evaporator valve (V22)</tspan></text>
</g><path
           inkscape:connector-curvature="0"
           id="path148"
           style="fill:#000000;fill-opacity:1;fill-rule:evenodd;stroke:none"
           d="m 0,855.43 h 4.80078 v 4.80078 H 0 Z" /><path
           inkscape:connector-curvature="0"
           id="path150"
           style="fill:#000000;fill-opacity:1;fill-rule:evenodd;stroke:none"
           d="M 4.80078,855.43 H 2038.9808 v 4.80078 H 4.80078 Z" /><path
           inkscape:connector-curvature="0"
           id="path152"
           style="fill:#000000;fill-opacity:1;fill-rule:evenodd;stroke:none"
           d="m 2038.98,855.43 h 4.8008 v 4.80078 h -4.8008 z" /><path
           inkscape:connector-curvature="0"
           id="path154"
           style="fill:#000000;fill-opacity:1;fill-rule:evenodd;stroke:none"
           d="m 2043.79,855.43 h 2405 v 4.80078 h -2405 z" /><path
           inkscape:connector-curvature="0"
           id="path156"
           style="fill:#000000;fill-opacity:1;fill-rule:evenodd;stroke:none"
           d="m 4448.79,855.43 h 4.8008 v 4.80078 h -4.8008 z" /><path
           inkscape:connector-curvature="0"
           id="path158"
           style="fill:#000000;fill-opacity:1;fill-rule:evenodd;stroke:none"
           d="M 0,715.629 H 4.80078 V 855.43 H 0 Z" /><path
           inkscape:connector-curvature="0"
           id="path160"
           style="fill:#000000;fill-opacity:1;fill-rule:evenodd;stroke:none"
           d="m 2038.98,715.629 h 4.8008 V 855.43 h -4.8008 z" /><path
           inkscape:connector-curvature="0"
           id="path162"
           style="fill:#000000;fill-opacity:1;fill-rule:evenodd;stroke:none"
           d="m 4448.79,715.629 h 4.8008 V 855.43 h -4.8008 z" /><g
           transform="scale(10)"
           id="g164"><text
             id="text170"
             style="font-variant:normal;font-weight:normal;font-size:12px;font-family:'DejaVu Sans';-inkscape-font-specification:DejaVuSans;writing-mode:lr-tb;fill:#000000;fill-opacity:1;fill-rule:nonzero;stroke:none"
             transform="matrix(1,0,0,-1,5.63984,59.8027)"><tspan
               id="tspan166"
               sodipodi:role="line"
               y="0"
               x="0 7.3199377 16.559889 21.887938 25.884001 31.907904 37.23595 43.236145 48.564262 54.564358 57.564342 64.260513 67.59655 73.596405 203.92841 215.14836 218.48436 221.86841 225.20441 231.64853 236.31654 242.31673 248.31693 251.67677 258.08496 264.09717 270.09702 278.77316 284.77338 291.15732 299.16119 307.11728 310.11728 316.52545 327.19357 335.86975 343.20178 346.20178 352.59787 359.9299 367.26196 373.6459 378.97379 384.98569 390.98578 397.41779 404.08975 407.42578 413.42563 417.44553 422.77341 428.78561">Emergency StopWill shut down BC, MGE, EL and Storage</tspan><tspan
               id="tspan168"
               sodipodi:role="line"
               y="13.9801"
               x="203.89999 211.23199 216.55988 222.58389">Tank</tspan></text>
</g><path
           inkscape:connector-curvature="0"
           id="path172"
           style="fill:#000000;fill-opacity:1;fill-rule:evenodd;stroke:none"
           d="m 0,710.82 h 4.80078 v 4.80078 H 0 Z" /><path
           inkscape:connector-curvature="0"
           id="path174"
           style="fill:#000000;fill-opacity:1;fill-rule:evenodd;stroke:none"
           d="M 4.80078,710.82 H 2038.9808 v 4.80078 H 4.80078 Z" /><path
           inkscape:connector-curvature="0"
           id="path176"
           style="fill:#000000;fill-opacity:1;fill-rule:evenodd;stroke:none"
           d="m 2038.98,710.82 h 4.8008 v 4.80078 h -4.8008 z" /><path
           inkscape:connector-curvature="0"
           id="path178"
           style="fill:#000000;fill-opacity:1;fill-rule:evenodd;stroke:none"
           d="m 2043.79,710.82 h 2405 v 4.80078 h -2405 z" /><path
           inkscape:connector-curvature="0"
           id="path180"
           style="fill:#000000;fill-opacity:1;fill-rule:evenodd;stroke:none"
           d="m 4448.79,710.82 h 4.8008 v 4.80078 h -4.8008 z" /><path
           inkscape:connector-curvature="0"
           id="path182"
           style="fill:#000000;fill-opacity:1;fill-rule:evenodd;stroke:none"
           d="M 0,431.211 H 4.80078 V 710.82 H 0 Z" /><path
           inkscape:connector-curvature="0"
           id="path184"
           style="fill:#000000;fill-opacity:1;fill-rule:evenodd;stroke:none"
           d="m 2038.98,431.211 h 4.8008 V 710.82 h -4.8008 z" /><path
           inkscape:connector-curvature="0"
           id="path186"
           style="fill:#000000;fill-opacity:1;fill-rule:evenodd;stroke:none"
           d="m 4448.79,431.211 h 4.8008 V 710.82 h -4.8008 z" /><g
           transform="scale(10)"
           id="g188"><text
             id="text192"
             style="font-variant:normal;font-weight:normal;font-size:12px;font-family:'DejaVu Sans';-inkscape-font-specification:DejaVuSans;writing-mode:lr-tb;fill:#000000;fill-opacity:1;fill-rule:nonzero;stroke:none"
             transform="matrix(1,0,0,-1,5.63984,31.3629)"><tspan
               id="tspan190"
               sodipodi:role="line"
               y="0"
               x="0 8.0040627 13.33211 18.000122 23.328171 203.89098 211.89503 217.22308 221.8911 227.21915 230.55518 233.55516 236.93924 240.9353 244.30725 250.30733 254.97534 257.97531 263.30319 269.31512 275.3273 278.3273 283.01913 289.01932 295.0195 298.35556 304.35562 310.37973 319.04376 325.04395">ResetReset trips and shutdowns</tspan></text>
</g><path
           inkscape:connector-curvature="0"
           id="path194"
           style="fill:#000000;fill-opacity:1;fill-rule:evenodd;stroke:none"
           d="m 0,426.41 h 4.80078 v 4.80078 H 0 Z" /><path
           inkscape:connector-curvature="0"
           id="path196"
           style="fill:#000000;fill-opacity:1;fill-rule:evenodd;stroke:none"
           d="M 4.80078,426.41 H 2038.9808 v 4.80078 H 4.80078 Z" /><path
           inkscape:connector-curvature="0"
           id="path198"
           style="fill:#000000;fill-opacity:1;fill-rule:evenodd;stroke:none"
           d="m 2038.98,426.41 h 4.8008 v 4.80078 h -4.8008 z" /><path
           inkscape:connector-curvature="0"
           id="path200"
           style="fill:#000000;fill-opacity:1;fill-rule:evenodd;stroke:none"
           d="m 2043.79,426.41 h 2405 v 4.80078 h -2405 z" /><path
           inkscape:connector-curvature="0"
           id="path202"
           style="fill:#000000;fill-opacity:1;fill-rule:evenodd;stroke:none"
           d="m 4448.79,426.41 h 4.8008 v 4.80078 h -4.8008 z" /><path
           inkscape:connector-curvature="0"
           id="path204"
           style="fill:#000000;fill-opacity:1;fill-rule:evenodd;stroke:none"
           d="M 0,286.609 H 4.80078 V 426.41 H 0 Z" /><path
           inkscape:connector-curvature="0"
           id="path206"
           style="fill:#000000;fill-opacity:1;fill-rule:evenodd;stroke:none"
           d="m 0,281.832 h 4.80078 v 4.76953 H 0 Z" /><path
           inkscape:connector-curvature="0"
           id="path208"
           style="fill:#000000;fill-opacity:1;fill-rule:evenodd;stroke:none"
           d="m 0,281.832 h 4.80078 v 4.76953 H 0 Z" /><path
           inkscape:connector-curvature="0"
           id="path210"
           style="fill:#000000;fill-opacity:1;fill-rule:evenodd;stroke:none"
           d="M 4.80078,281.832 H 2038.9808 v 4.76953 H 4.80078 Z" /><path
           inkscape:connector-curvature="0"
           id="path212"
           style="fill:#000000;fill-opacity:1;fill-rule:evenodd;stroke:none"
           d="m 2038.98,286.609 h 4.8008 V 426.41 h -4.8008 z" /><path
           inkscape:connector-curvature="0"
           id="path214"
           style="fill:#000000;fill-opacity:1;fill-rule:evenodd;stroke:none"
           d="m 2038.98,281.832 h 4.8008 v 4.76953 h -4.8008 z" /><path
           inkscape:connector-curvature="0"
           id="path216"
           style="fill:#000000;fill-opacity:1;fill-rule:evenodd;stroke:none"
           d="m 2043.79,281.832 h 2405 v 4.76953 h -2405 z" /><path
           inkscape:connector-curvature="0"
           id="path218"
           style="fill:#000000;fill-opacity:1;fill-rule:evenodd;stroke:none"
           d="m 4448.79,286.609 h 4.8008 V 426.41 h -4.8008 z" /><path
           inkscape:connector-curvature="0"
           id="path220"
           style="fill:#000000;fill-opacity:1;fill-rule:evenodd;stroke:none"
           d="m 4448.79,281.832 h 4.8008 v 4.76953 h -4.8008 z" /><path
           inkscape:connector-curvature="0"
           id="path222"
           style="fill:#000000;fill-opacity:1;fill-rule:evenodd;stroke:none"
           d="m 4448.79,281.832 h 4.8008 v 4.76953 h -4.8008 z" /><g
           transform="scale(10)"
           id="g224"><text
             id="text228"
             style="font-variant:normal;font-weight:normal;font-size:12px;font-family:'DejaVu Sans';-inkscape-font-specification:DejaVuSans;writing-mode:lr-tb;fill:#000000;fill-opacity:1;fill-rule:nonzero;stroke:none"
             transform="matrix(1,0,0,-1,5.63984,2.92266)"><tspan
               id="tspan226"
               sodipodi:role="line"
               y="0"
               x="0 8.6638908 14.663747 17.999783 23.327831 27.347643 30.347628 37.679626 43.679821 49.00787 52.007851 59.339901 65.363914 71.363998 74.699997 80.700188 86.028236 89.028221 96.360268 99.696266 105.69646 111.06045 114.06043 120.08435 125.38818 131.4122 134.724 138.13188 141.46788 146.79576 150.17984 153.51584 159.5157 165.51588 168.5397 174.53979 179.89189 183.22789 189.22798 194.55603 197.55602 201.60008 210.26395 216.2639 222.26387 226.23605 229.25987 232.59587 237.26389 240.26387 245.62767 248.96367 253.63168 259.63153 262.65536 268.65543 272.69955 278.00339 282.67139 287.26199 293.2739 297.31802 302.63394 305.63394 310.97379 316.97363 322.98553 326.3454 330.34146 336.35342 339.72537 343.06137 348.3894 354.3895 357.77335 360.78543 366.78528 372.78537 378.11343 384.11362 388.78162 391.79373 397.14581 400.48184 403.48184 409.48181 412.48178 418.48187 423.82184 427.86597 430.86594 436.19382 442.20572 448.20581 451.20581 456.54565 459.91757 465.92953 470.59756 475.91348 478.91348 484.27728 487.61331 490.61215 496.61209 499.61209 505.61206 508.61203 514.61212 519.96423 523.96027">Note! The Engine Line ventilation valve (V26) is also pressure controlled; opens at 7 bar and close at 6.5 bar.</tspan></text>
</g></g></g></g></svg>