<?xml version="1.0" encoding="UTF-8" standalone="no"?>
<!-- Created with Inkscape (http://www.inkscape.org/) -->

<svg
   xmlns:dc="http://purl.org/dc/elements/1.1/"
   xmlns:cc="http://creativecommons.org/ns#"
   xmlns:rdf="http://www.w3.org/1999/02/22-rdf-syntax-ns#"
   xmlns:svg="http://www.w3.org/2000/svg"
   xmlns="http://www.w3.org/2000/svg"
   xmlns:sodipodi="http://sodipodi.sourceforge.net/DTD/sodipodi-0.dtd"
   xmlns:inkscape="http://www.inkscape.org/namespaces/inkscape"
   width="210mm"
   height="297mm"
   viewBox="0 0 210 297"
   version="1.1"
   id="svg1708"
   inkscape:version="0.92.2 5c3e80d, 2017-08-06"
   sodipodi:docname="LIL.svg">
  <defs
     id="defs1702" />
  <sodipodi:namedview
     id="base"
     pagecolor="#ffffff"
     bordercolor="#666666"
     borderopacity="1.0"
     inkscape:pageopacity="0.0"
     inkscape:pageshadow="2"
     inkscape:zoom="1.2960937"
     inkscape:cx="226.01567"
     inkscape:cy="560"
     inkscape:document-units="mm"
     inkscape:current-layer="layer1"
     showgrid="false"
     inkscape:window-width="1920"
     inkscape:window-height="1171"
     inkscape:window-x="0"
     inkscape:window-y="0"
     inkscape:window-maximized="1" />
  <metadata
     id="metadata1705">
    <rdf:RDF>
      <cc:Work
         rdf:about="">
        <dc:format>image/svg+xml</dc:format>
        <dc:type
           rdf:resource="http://purl.org/dc/dcmitype/StillImage" />
        <dc:title></dc:title>
      </cc:Work>
    </rdf:RDF>
  </metadata>
  <g
     inkscape:label="Calque 1"
     inkscape:groupmode="layer"
     id="layer1">
    <g
       transform="matrix(0.03527778,0,0,-0.03527778,23.217951,208.74683)"
       id="g1545">
      <g
         transform="scale(10)"
         id="g302">
        <text
           id="text306"
           style="font-variant:normal;font-weight:bold;font-size:12px;font-family:'DejaVu Sans';-inkscape-font-specification:DejaVuSans-Bold;writing-mode:lr-tb;fill:#000000;fill-opacity:1;fill-rule:nonzero;stroke:none"
           transform="matrix(1,0,0,-1,5.63984,330.153)">
          <tspan
             id="tspan304"
             sodipodi:role="line"
             y="0"
             x="0 7.9799376 11.340078 18.012161 24.684282 28.032312 34.704395 37.704227 42.360413 49.044258 54.36034 59.68845 65.016556 71.016411 77.688538 84.372375 89.688461 95.028297 99.060387 102.39631 108.39617 115.06829 118.06812 126.06017 129.40819 136.08031 141.40851 144.39662 148.39273 156.39688 161.06479 169.06894">Liquid Inerconnection Line (LIL)</tspan>
        </text>
      </g>
      <path
         inkscape:connector-curvature="0"
         id="path308"
         style="fill:#000000;fill-opacity:1;fill-rule:evenodd;stroke:none"
         d="m 56.4102,3276.91 h 1731.21 v 11.4102 H 56.4102 Z" />
      <g
         transform="scale(10)"
         id="g310">
        <text
           id="text314"
           style="font-variant:normal;font-weight:bold;font-size:12px;font-family:'DejaVu Sans';-inkscape-font-specification:DejaVuSans-Bold;writing-mode:lr-tb;fill:#000000;fill-opacity:1;fill-rule:nonzero;stroke:none"
           transform="matrix(1,0,0,-1,5.63984,301.653)">
          <tspan
             id="tspan312"
             sodipodi:role="line"
             y="0"
             x="0 8.6638594 14.663715 24.659908 34.656101 40.656101 47.32822 203.90662 211.91043 215.9066 219.90277 225.25478 230.58289">CommandEffect</tspan>
        </text>
      </g>
      <path
         inkscape:connector-curvature="0"
         id="path316"
         style="fill:#000000;fill-opacity:1;fill-rule:evenodd;stroke:none"
         d="m 0,3131.14 h 4.80078 v 4.8008 H 0 Z" />
      <path
         inkscape:connector-curvature="0"
         id="path318"
         style="fill:#000000;fill-opacity:1;fill-rule:evenodd;stroke:none"
         d="m 0,3131.14 h 4.80078 v 4.8008 H 0 Z" />
      <path
         inkscape:connector-curvature="0"
         id="path320"
         style="fill:#000000;fill-opacity:1;fill-rule:evenodd;stroke:none"
         d="M 4.80078,3131.14 H 2038.9808 v 4.8008 H 4.80078 Z" />
      <path
         inkscape:connector-curvature="0"
         id="path322"
         style="fill:#000000;fill-opacity:1;fill-rule:evenodd;stroke:none"
         d="m 2038.98,3131.14 h 4.8008 v 4.8008 h -4.8008 z" />
      <path
         inkscape:connector-curvature="0"
         id="path324"
         style="fill:#000000;fill-opacity:1;fill-rule:evenodd;stroke:none"
         d="m 2043.79,3131.14 h 2405 v 4.8008 h -2405 z" />
      <path
         inkscape:connector-curvature="0"
         id="path326"
         style="fill:#000000;fill-opacity:1;fill-rule:evenodd;stroke:none"
         d="m 4448.79,3131.14 h 4.8008 v 4.8008 h -4.8008 z" />
      <path
         inkscape:connector-curvature="0"
         id="path328"
         style="fill:#000000;fill-opacity:1;fill-rule:evenodd;stroke:none"
         d="m 4448.79,3131.14 h 4.8008 v 4.8008 h -4.8008 z" />
      <path
         inkscape:connector-curvature="0"
         id="path330"
         style="fill:#000000;fill-opacity:1;fill-rule:evenodd;stroke:none"
         d="m 0,2990.74 h 4.80078 v 140.391 H 0 Z" />
      <path
         inkscape:connector-curvature="0"
         id="path332"
         style="fill:#000000;fill-opacity:1;fill-rule:evenodd;stroke:none"
         d="m 2038.98,2990.74 h 4.8008 v 140.391 h -4.8008 z" />
      <path
         inkscape:connector-curvature="0"
         id="path334"
         style="fill:#000000;fill-opacity:1;fill-rule:evenodd;stroke:none"
         d="m 4448.79,2990.74 h 4.8008 v 140.391 h -4.8008 z" />
      <g
         transform="scale(10)"
         id="g336">
        <text
           id="text344"
           style="font-variant:normal;font-weight:normal;font-size:12px;font-family:'DejaVu Sans';-inkscape-font-specification:DejaVuSans;writing-mode:lr-tb;fill:#000000;fill-opacity:1;fill-rule:nonzero;stroke:none"
           transform="matrix(1,0,0,-1,5.63984,287.313)">
          <tspan
             id="tspan338"
             sodipodi:role="line"
             y="0"
             x="0 8.6638594 14.664052 18.000088 203.90289 210.57483 216.57501 219.91106 224.57907 228.49117 234.49126 239.83124 243.16724 249.16733 254.53133 259.19934 263.0993 266.43533 272.43552 276.3476 283.67966 287.67551 295.00757 298.89545 302.23148 308.23132 312.15515 320.819 326.81918 330.15521 336.15509 340.04297 345.37106 351.37094 357.38284 360.70676 364.75085 370.7507 374.08673 378.01053 382.00653 385.37848 391.37866 396.70673 400.72662 404.06265 407.97473 413.97482 419.3027 422.6387 428.63882 434.00281">AutoPuts valves in LIL to Auto control (inert valve</tspan>
          <tspan
             id="tspan340"
             sodipodi:role="line"
             y="13.9801"
             x="203.89999 212.56386 218.56383 224.55168 227.56377 230.7079 236.70799 242.03604 248.03622 251.37227 254.57616 260.57626 265.90414 269.24014 275.25195 280.60382 283.78387 292.44775 298.43561 304.43558 307.43555 310.57968 315.24768 321.25989 325.26807 330.60803 336.60812 339.78821 343.12424 348.45212 354.4523 360.45227 363.77606 369.77615 375.10403 378.44003 384.45184 389.81586 392.9838 401.64764 407.6355 413.63547 416.7796 422.10748 428.11938 434.11948">V55, vent valve V05, spray tank valve V02 and</tspan>
          <tspan
             id="tspan342"
             sodipodi:role="line"
             y="27.960199"
             x="203.89999 211.23204 215.22791 222.55995 225.55994 230.22795 236.22813 242.22823 248.24042 251.57642 257.60034 260.60031 266.6004 271.9404 275.2764 281.27649 286.64047 289.64047 298.30432 304.29218">LIL supply valve V01</tspan>
        </text>
      </g>
      <path
         inkscape:connector-curvature="0"
         id="path346"
         style="fill:#000000;fill-opacity:1;fill-rule:evenodd;stroke:none"
         d="m 0,2985.94 h 4.80078 v 4.7969 H 0 Z" />
      <path
         inkscape:connector-curvature="0"
         id="path348"
         style="fill:#000000;fill-opacity:1;fill-rule:evenodd;stroke:none"
         d="M 4.80078,2985.94 H 2038.9808 v 4.7969 H 4.80078 Z" />
      <path
         inkscape:connector-curvature="0"
         id="path350"
         style="fill:#000000;fill-opacity:1;fill-rule:evenodd;stroke:none"
         d="m 2038.98,2985.94 h 4.8008 v 4.7969 h -4.8008 z" />
      <path
         inkscape:connector-curvature="0"
         id="path352"
         style="fill:#000000;fill-opacity:1;fill-rule:evenodd;stroke:none"
         d="m 2043.79,2985.94 h 2405 v 4.7969 h -2405 z" />
      <path
         inkscape:connector-curvature="0"
         id="path354"
         style="fill:#000000;fill-opacity:1;fill-rule:evenodd;stroke:none"
         d="m 4448.79,2985.94 h 4.8008 v 4.7969 h -4.8008 z" />
      <path
         inkscape:connector-curvature="0"
         id="path356"
         style="fill:#000000;fill-opacity:1;fill-rule:evenodd;stroke:none"
         d="m 0,2566.53 h 4.80078 v 419.41 H 0 Z" />
      <path
         inkscape:connector-curvature="0"
         id="path358"
         style="fill:#000000;fill-opacity:1;fill-rule:evenodd;stroke:none"
         d="m 2038.98,2566.53 h 4.8008 v 419.41 h -4.8008 z" />
      <path
         inkscape:connector-curvature="0"
         id="path360"
         style="fill:#000000;fill-opacity:1;fill-rule:evenodd;stroke:none"
         d="m 4448.79,2566.53 h 4.8008 v 419.41 h -4.8008 z" />
      <g
         transform="scale(10)"
         id="g362">
        <text
           id="text370"
           style="font-variant:normal;font-weight:normal;font-size:12px;font-family:'DejaVu Sans';-inkscape-font-specification:DejaVuSans;writing-mode:lr-tb;fill:#000000;fill-opacity:1;fill-rule:nonzero;stroke:none"
           transform="matrix(1,0,0,-1,5.63984,244.893)">
          <tspan
             id="tspan364"
             sodipodi:role="line"
             y="0"
             x="0 10.668109 15.995989 22.007893 28.008085 33.36018 203.91498 210.58691 216.58711 219.92314 224.59116 230.96301 236.9631 242.3031 245.6391 251.63919 257.00317 261.6712 268.03134 271.36734 277.36752 283.73938 291.07144 295.06729 302.39932 308.74738 312.0834 318.08325 324.46722 335.13535 340.46323 346.46341 352.46359 357.82742 361.16342 367.53528 372.86337 378.86325 384.87515 388.19907 392.24316 398.24301 401.57904 407.96298 411.95901 415.33093 421.33115 426.65918 430.67908 434.01511">ManualPuts valves in LIL to Manual control (inert</tspan>
          <tspan
             id="tspan366"
             sodipodi:role="line"
             y="13.9801"
             x="203.89999 209.9001 215.22797 218.56398 224.57579 229.93977 235.26788 243.93175 249.9196 255.91956 258.91956 264.22345 270.23526 275.55118 281.56311 284.88702 290.26315 296.26328 301.59116 304.92715 310.92725 316.29123 321.61932 330.2832 336.28314 342.28311 345.28311 350.58701 355.255 361.2551 365.27499 370.60287 376.61469 381.9545 385.29053 390.61841 396.61862 402.61856 407.9826 413.9827 419.31058 422.64658 428.65842 434.0224">valve V55, vent valve V05, spray tank valve</tspan>
          <tspan
             id="tspan368"
             sodipodi:role="line"
             y="27.960199"
             x="203.89999 212.56386 218.56383 224.55168 227.56377 232.89165 238.89185 244.89192 247.89191 255.22395 259.21982 266.55188 269.55185 274.21985 280.23178 286.23184 292.23193 295.56793 301.56802 304.56802 310.57983 315.90771 319.29175 325.29184 330.6199 333.61987 342.28375 348.28369">V02 and LIL supply valve V01</tspan>
        </text>
      </g>
      <path
         inkscape:connector-curvature="0"
         id="path372"
         style="fill:#000000;fill-opacity:1;fill-rule:evenodd;stroke:none"
         d="m 0,2561.72 h 4.80078 v 4.8008 H 0 Z" />
      <path
         inkscape:connector-curvature="0"
         id="path374"
         style="fill:#000000;fill-opacity:1;fill-rule:evenodd;stroke:none"
         d="M 4.80078,2561.72 H 2038.9808 v 4.8008 H 4.80078 Z" />
      <path
         inkscape:connector-curvature="0"
         id="path376"
         style="fill:#000000;fill-opacity:1;fill-rule:evenodd;stroke:none"
         d="m 2038.98,2561.72 h 4.8008 v 4.8008 h -4.8008 z" />
      <path
         inkscape:connector-curvature="0"
         id="path378"
         style="fill:#000000;fill-opacity:1;fill-rule:evenodd;stroke:none"
         d="m 2043.79,2561.72 h 2405 v 4.8008 h -2405 z" />
      <path
         inkscape:connector-curvature="0"
         id="path380"
         style="fill:#000000;fill-opacity:1;fill-rule:evenodd;stroke:none"
         d="m 4448.79,2561.72 h 4.8008 v 4.8008 h -4.8008 z" />
      <path
         inkscape:connector-curvature="0"
         id="path382"
         style="fill:#000000;fill-opacity:1;fill-rule:evenodd;stroke:none"
         d="m 0,2142.34 h 4.80078 v 419.379 H 0 Z" />
      <path
         inkscape:connector-curvature="0"
         id="path384"
         style="fill:#000000;fill-opacity:1;fill-rule:evenodd;stroke:none"
         d="m 2038.98,2142.34 h 4.8008 v 419.379 h -4.8008 z" />
      <path
         inkscape:connector-curvature="0"
         id="path386"
         style="fill:#000000;fill-opacity:1;fill-rule:evenodd;stroke:none"
         d="m 4448.79,2142.34 h 4.8008 v 419.379 h -4.8008 z" />
      <g
         transform="scale(10)"
         id="g388">
        <text
           id="text392"
           style="font-variant:normal;font-weight:normal;font-size:12px;font-family:'DejaVu Sans';-inkscape-font-specification:DejaVuSans;writing-mode:lr-tb;fill:#000000;fill-opacity:1;fill-rule:nonzero;stroke:none"
           transform="matrix(1,0,0,-1,5.63984,202.473)">
          <tspan
             id="tspan390"
             sodipodi:role="line"
             y="0"
             x="0 3.9958596 9.9960518 15.347932 19.343994 203.89799 212.56192 218.562 223.89005 227.88611 233.21399 236.58595 241.914 246.58202 249.582 255.58209 260.93396 266.93417 270.2702 273.27017 279.27026 284.59814 287.99432 293.99442 299.32245 302.32245 310.9863 316.97415 322.97412 325.97409 331.30197 337.3139 343.31396 346.31396 349.64996 355.65015 361.00201 364.99808 371.37006 377.37015 382.69803 386.03403 392.04584 397.40982 400.40982 409.07367 415.06152">InertOperates vent valve V05 and inertvalve V55</tspan>
        </text>
      </g>
      <path
         inkscape:connector-curvature="0"
         id="path394"
         style="fill:#000000;fill-opacity:1;fill-rule:evenodd;stroke:none"
         d="m 0,2137.54 h 4.80078 v 4.8008 H 0 Z" />
      <path
         inkscape:connector-curvature="0"
         id="path396"
         style="fill:#000000;fill-opacity:1;fill-rule:evenodd;stroke:none"
         d="M 4.80078,2137.54 H 2038.9808 v 4.8008 H 4.80078 Z" />
      <path
         inkscape:connector-curvature="0"
         id="path398"
         style="fill:#000000;fill-opacity:1;fill-rule:evenodd;stroke:none"
         d="m 2038.98,2137.54 h 4.8008 v 4.8008 h -4.8008 z" />
      <path
         inkscape:connector-curvature="0"
         id="path400"
         style="fill:#000000;fill-opacity:1;fill-rule:evenodd;stroke:none"
         d="m 2043.79,2137.54 h 2405 v 4.8008 h -2405 z" />
      <path
         inkscape:connector-curvature="0"
         id="path402"
         style="fill:#000000;fill-opacity:1;fill-rule:evenodd;stroke:none"
         d="m 4448.79,2137.54 h 4.8008 v 4.8008 h -4.8008 z" />
      <path
         inkscape:connector-curvature="0"
         id="path404"
         style="fill:#000000;fill-opacity:1;fill-rule:evenodd;stroke:none"
         d="m 0,1997.74 h 4.80078 v 139.801 H 0 Z" />
      <path
         inkscape:connector-curvature="0"
         id="path406"
         style="fill:#000000;fill-opacity:1;fill-rule:evenodd;stroke:none"
         d="m 2038.98,1997.74 h 4.8008 v 139.801 h -4.8008 z" />
      <path
         inkscape:connector-curvature="0"
         id="path408"
         style="fill:#000000;fill-opacity:1;fill-rule:evenodd;stroke:none"
         d="m 4448.79,1997.74 h 4.8008 v 139.801 h -4.8008 z" />
      <g
         transform="scale(10)"
         id="g410">
        <text
           id="text414"
           style="font-variant:normal;font-weight:normal;font-size:12px;font-family:'DejaVu Sans';-inkscape-font-specification:DejaVuSans;writing-mode:lr-tb;fill:#000000;fill-opacity:1;fill-rule:nonzero;stroke:none"
           transform="matrix(1,0,0,-1,5.63984,188.013)">
          <tspan
             id="tspan412"
             sodipodi:role="line"
             y="0"
             x="0 8.6638594 13.99198 17.328016 20.664015 26.664108 32.040024 35.37606 203.90286 215.12282 218.45882 221.84286 225.17886 228.17885 234.1787 240.17879 245.50684 251.50702 254.507 261.83905 265.87125 273.20328 276.20328 280.87128 286.90741 292.9075 298.90756 302.24356 308.24368 311.25577 317.25586 322.60794 325.94394 331.94403 337.27209 340.27206 348.93594 354.93591 360.93585">ActivateWill open LIL supply valve V01.</tspan>
        </text>
      </g>
      <path
         inkscape:connector-curvature="0"
         id="path416"
         style="fill:#000000;fill-opacity:1;fill-rule:evenodd;stroke:none"
         d="m 0,1992.93 h 4.80078 v 4.8008 H 0 Z" />
      <path
         inkscape:connector-curvature="0"
         id="path418"
         style="fill:#000000;fill-opacity:1;fill-rule:evenodd;stroke:none"
         d="M 4.80078,1992.93 H 2038.9808 v 4.8008 H 4.80078 Z" />
      <path
         inkscape:connector-curvature="0"
         id="path420"
         style="fill:#000000;fill-opacity:1;fill-rule:evenodd;stroke:none"
         d="m 2038.98,1992.93 h 4.8008 v 4.8008 h -4.8008 z" />
      <path
         inkscape:connector-curvature="0"
         id="path422"
         style="fill:#000000;fill-opacity:1;fill-rule:evenodd;stroke:none"
         d="m 2043.79,1992.93 h 2405 v 4.8008 h -2405 z" />
      <path
         inkscape:connector-curvature="0"
         id="path424"
         style="fill:#000000;fill-opacity:1;fill-rule:evenodd;stroke:none"
         d="m 4448.79,1992.93 h 4.8008 v 4.8008 h -4.8008 z" />
      <path
         inkscape:connector-curvature="0"
         id="path426"
         style="fill:#000000;fill-opacity:1;fill-rule:evenodd;stroke:none"
         d="m 0,1853.13 h 4.80078 v 139.801 H 0 Z" />
      <path
         inkscape:connector-curvature="0"
         id="path428"
         style="fill:#000000;fill-opacity:1;fill-rule:evenodd;stroke:none"
         d="m 2038.98,1853.13 h 4.8008 v 139.801 h -4.8008 z" />
      <path
         inkscape:connector-curvature="0"
         id="path430"
         style="fill:#000000;fill-opacity:1;fill-rule:evenodd;stroke:none"
         d="m 4448.79,1853.13 h 4.8008 v 139.801 h -4.8008 z" />
      <g
         transform="scale(10)"
         id="g432">
        <text
           id="text438"
           style="font-variant:normal;font-weight:normal;font-size:12px;font-family:'DejaVu Sans';-inkscape-font-specification:DejaVuSans;writing-mode:lr-tb;fill:#000000;fill-opacity:1;fill-rule:nonzero;stroke:none"
           transform="matrix(1,0,0,-1,5.63984,173.553)">
          <tspan
             id="tspan434"
             sodipodi:role="line"
             y="0"
             x="0 8.6400003 12.659891 17.98777 21.323771 203.90497 215.12492 218.46092 221.84497 225.18097 229.3329 235.33276 241.33286 246.6609 250.68079 256.00867 259.3447 264.70868 268.83679 276.16885 284.79681 293.46088 297.56476 302.23276 308.23285 312.25275 317.58063 323.58072 327.67288 333.67297 339.00085 342.33685 348.33694 353.70093 357.76889 361.76492 370.42877 376.42874 382.42871 386.4126 390.51648 395.84436 401.84457 407.84467 411.92471 415.26071 421.27261 426.60068 430.63266 433.96869">DrainWill operate LNG spray valve (V01) and inert</tspan>
          <tspan
             id="tspan436"
             sodipodi:role="line"
             y="13.9801"
             x="203.89999 209.9001 215.22797 218.56398 224.57579 229.93977 232.93976 236.93578 245.58792 251.58788 257.58783">valve (V55)</tspan>
        </text>
      </g>
      <path
         inkscape:connector-curvature="0"
         id="path440"
         style="fill:#000000;fill-opacity:1;fill-rule:evenodd;stroke:none"
         d="m 0,1848.32 h 4.80078 v 4.8008 H 0 Z" />
      <path
         inkscape:connector-curvature="0"
         id="path442"
         style="fill:#000000;fill-opacity:1;fill-rule:evenodd;stroke:none"
         d="M 4.80078,1848.32 H 2038.9808 v 4.8008 H 4.80078 Z" />
      <path
         inkscape:connector-curvature="0"
         id="path444"
         style="fill:#000000;fill-opacity:1;fill-rule:evenodd;stroke:none"
         d="m 2038.98,1848.32 h 4.8008 v 4.8008 h -4.8008 z" />
      <path
         inkscape:connector-curvature="0"
         id="path446"
         style="fill:#000000;fill-opacity:1;fill-rule:evenodd;stroke:none"
         d="m 2043.79,1848.32 h 2405 v 4.8008 h -2405 z" />
      <path
         inkscape:connector-curvature="0"
         id="path448"
         style="fill:#000000;fill-opacity:1;fill-rule:evenodd;stroke:none"
         d="m 4448.79,1848.32 h 4.8008 v 4.8008 h -4.8008 z" />
      <path
         inkscape:connector-curvature="0"
         id="path450"
         style="fill:#000000;fill-opacity:1;fill-rule:evenodd;stroke:none"
         d="m 0,1568.71 h 4.80078 v 279.609 H 0 Z" />
      <path
         inkscape:connector-curvature="0"
         id="path452"
         style="fill:#000000;fill-opacity:1;fill-rule:evenodd;stroke:none"
         d="m 2038.98,1568.71 h 4.8008 v 279.609 h -4.8008 z" />
      <path
         inkscape:connector-curvature="0"
         id="path454"
         style="fill:#000000;fill-opacity:1;fill-rule:evenodd;stroke:none"
         d="m 4448.79,1568.71 h 4.8008 v 279.609 h -4.8008 z" />
      <g
         transform="scale(10)"
         id="g456">
        <text
           id="text462"
           style="font-variant:normal;font-weight:normal;font-size:12px;font-family:'DejaVu Sans';-inkscape-font-specification:DejaVuSans;writing-mode:lr-tb;fill:#000000;fill-opacity:1;fill-rule:nonzero;stroke:none"
           transform="matrix(1,0,0,-1,5.63984,145.113)">
          <tspan
             id="tspan458"
             sodipodi:role="line"
             y="0"
             x="0 6.6719532 12.000001 15.336001 20.664049 26.028109 29.364145 32.364128 39.696129 45.036118 51.036308 57.036263 60.036247 203.90665 211.23865 217.23885 222.56689 225.97507 231.97517 237.31516 240.65115 246.65125 252.01524 256.68326 260.10315 264.09918 269.42706 275.45096 281.45081 287.46262 292.77856 296.21057 299.54657 302.91852 307.58652 310.92258 316.28656 322.28665 326.28265 329.71466 335.04279 341.04263 347.04285 353.05475 358.37067 363.71051 367.08249 372.41052 378.41061 381.84265 385.16656 391.17853 394.61053 401.94257 405.93845 413.27048 416.63901 421.96689 427.96707 433.96716">Select Tank 1The valves (above listed) connected to LIL and</tspan>
          <tspan
             id="tspan460"
             sodipodi:role="line"
             y="13.9801"
             x="203.89999 207.23604 212.56392 218.5641 224.56406 227.56404 233.56401 236.564 241.9278 245.92386 251.25191 254.27573 259.60385 265.61581 271.616 274.95203 278.99615 284.996 288.332 291.70395 297.03198 303.03207 306.03204 312.03214 318.04395 321.04395 324.37997 330.38016 335.74414 338.74414 344.07227 350.07211 356.0723 359.40836 363.45245 369.4523 372.7883 375.80042 380.46841 386.46851 391.17245 394.50848 399.83655">tank 1 are controlled by the control system</tspan>
        </text>
      </g>
      <path
         inkscape:connector-curvature="0"
         id="path464"
         style="fill:#000000;fill-opacity:1;fill-rule:evenodd;stroke:none"
         d="m 0,1563.94 h 4.80078 v 4.7695 H 0 Z" />
      <path
         inkscape:connector-curvature="0"
         id="path466"
         style="fill:#000000;fill-opacity:1;fill-rule:evenodd;stroke:none"
         d="M 4.80078,1563.94 H 2038.9808 v 4.7695 H 4.80078 Z" />
      <path
         inkscape:connector-curvature="0"
         id="path468"
         style="fill:#000000;fill-opacity:1;fill-rule:evenodd;stroke:none"
         d="m 2038.98,1563.94 h 4.8008 v 4.7695 h -4.8008 z" />
      <path
         inkscape:connector-curvature="0"
         id="path470"
         style="fill:#000000;fill-opacity:1;fill-rule:evenodd;stroke:none"
         d="m 2043.79,1563.94 h 2405 v 4.7695 h -2405 z" />
      <path
         inkscape:connector-curvature="0"
         id="path472"
         style="fill:#000000;fill-opacity:1;fill-rule:evenodd;stroke:none"
         d="m 4448.79,1563.94 h 4.8008 v 4.7695 h -4.8008 z" />
      <path
         inkscape:connector-curvature="0"
         id="path474"
         style="fill:#000000;fill-opacity:1;fill-rule:evenodd;stroke:none"
         d="m 0,1284.34 h 4.80078 v 279.609 H 0 Z" />
      <path
         inkscape:connector-curvature="0"
         id="path476"
         style="fill:#000000;fill-opacity:1;fill-rule:evenodd;stroke:none"
         d="m 2038.98,1284.34 h 4.8008 v 279.609 h -4.8008 z" />
      <path
         inkscape:connector-curvature="0"
         id="path478"
         style="fill:#000000;fill-opacity:1;fill-rule:evenodd;stroke:none"
         d="m 4448.79,1284.34 h 4.8008 v 279.609 h -4.8008 z" />
      <g
         transform="scale(10)"
         id="g480">
        <text
           id="text486"
           style="font-variant:normal;font-weight:normal;font-size:12px;font-family:'DejaVu Sans';-inkscape-font-specification:DejaVuSans;writing-mode:lr-tb;fill:#000000;fill-opacity:1;fill-rule:nonzero;stroke:none"
           transform="matrix(1,0,0,-1,5.63984,116.673)">
          <tspan
             id="tspan482"
             sodipodi:role="line"
             y="0"
             x="0 6.6719532 12.000001 15.336001 20.664049 26.028109 29.364145 32.364128 39.696129 45.059937 51.060131 57.060081 60.060066 203.90646 211.23846 217.23866 222.56671 225.9749 231.97499 237.31497 240.65097 246.65106 252.01506 256.68307 260.10297 264.099 269.42688 275.45078 281.45062 287.46243 292.77838 296.21039 299.54639 302.91833 307.58633 310.92239 316.28638 322.28647 326.28247 329.71448 335.0426 341.04245 347.04266 353.05457 358.37051 363.71036 367.08231 372.41037 378.41043 381.84247 385.16638 391.17834 394.61035 401.94241 405.93826 413.27029 416.63901 421.96689 427.96707 433.96716">Select Tank 2The valves (above listed) connected to LIL and</tspan>
          <tspan
             id="tspan484"
             sodipodi:role="line"
             y="13.9801"
             x="203.89999 207.23604 212.56392 218.5641 224.56406 227.56404 233.56401 236.564 241.9278 245.92386 251.25191 254.27573 259.60385 265.61581 271.616 274.95203 278.99615 284.996 288.332 291.70395 297.03198 303.03207 306.03204 312.03214 318.04395 321.04395 324.37997 330.48798 335.80392 338.80389 344.14374 350.14359 356.1438 359.51575 363.51181 369.51166 372.88361 375.88361 380.55161 386.56342 391.23145 394.59128 399.91934">tank 2 are controlled by the control system</tspan>
        </text>
      </g>
      <path
         inkscape:connector-curvature="0"
         id="path488"
         style="fill:#000000;fill-opacity:1;fill-rule:evenodd;stroke:none"
         d="m 0,1279.54 h 4.80078 v 4.8008 H 0 Z" />
      <path
         inkscape:connector-curvature="0"
         id="path490"
         style="fill:#000000;fill-opacity:1;fill-rule:evenodd;stroke:none"
         d="M 4.80078,1279.54 H 2038.9808 v 4.8008 H 4.80078 Z" />
      <path
         inkscape:connector-curvature="0"
         id="path492"
         style="fill:#000000;fill-opacity:1;fill-rule:evenodd;stroke:none"
         d="m 2038.98,1279.54 h 4.8008 v 4.8008 h -4.8008 z" />
      <path
         inkscape:connector-curvature="0"
         id="path494"
         style="fill:#000000;fill-opacity:1;fill-rule:evenodd;stroke:none"
         d="m 2043.79,1279.54 h 2405 v 4.8008 h -2405 z" />
      <path
         inkscape:connector-curvature="0"
         id="path496"
         style="fill:#000000;fill-opacity:1;fill-rule:evenodd;stroke:none"
         d="m 4448.79,1279.54 h 4.8008 v 4.8008 h -4.8008 z" />
      <path
         inkscape:connector-curvature="0"
         id="path498"
         style="fill:#000000;fill-opacity:1;fill-rule:evenodd;stroke:none"
         d="m 0,999.922 h 4.80078 v 279.609 H 0 Z" />
      <path
         inkscape:connector-curvature="0"
         id="path500"
         style="fill:#000000;fill-opacity:1;fill-rule:evenodd;stroke:none"
         d="m 2038.98,999.922 h 4.8008 v 279.609 h -4.8008 z" />
      <path
         inkscape:connector-curvature="0"
         id="path502"
         style="fill:#000000;fill-opacity:1;fill-rule:evenodd;stroke:none"
         d="m 4448.79,999.922 h 4.8008 v 279.609 h -4.8008 z" />
      <g
         transform="scale(10)"
         id="g504">
        <text
           id="text510"
           style="font-variant:normal;font-weight:normal;font-size:12px;font-family:'DejaVu Sans';-inkscape-font-specification:DejaVuSans;writing-mode:lr-tb;fill:#000000;fill-opacity:1;fill-rule:nonzero;stroke:none"
           transform="matrix(1,0,0,-1,5.63984,88.2129)">
          <tspan
             id="tspan506"
             sodipodi:role="line"
             y="0"
             x="0 6.6719532 12.000001 15.336001 20.664049 26.028109 29.364145 32.364128 40.368004 46.367863 49.703896 55.70409 58.716183 66.04818 71.37606 77.376251 83.376205 203.91609 211.24809 217.24828 222.57632 225.98451 231.9846 237.31248 240.64848 246.66029 252.02429 256.69229 260.11221 264.10822 269.4361 275.46002 281.45987 287.45996 292.78799 296.20792 299.54391 302.92795 307.59598 310.91989 316.28387 322.28397 326.27997 329.71198 335.05182 341.0517 347.05188 353.05206 358.38013 363.70825 367.09232 372.42038 378.42047 381.84036 385.17639 391.17627 394.57401 401.89395 405.8898 413.22183 416.63004 421.97003 427.97021 433.97031">Select Both TanksThe valves (above listed) connected to LIL and</tspan>
          <tspan
             id="tspan508"
             sodipodi:role="line"
             y="13.9801"
             x="203.89999 209.90009 215.89993 219.23598 225.24788 228.24786 231.61983 236.94771 242.94791 248.94786 253.61586 256.61584 261.96796 265.96402 271.29205 274.31586 279.64398 285.64386 291.65576 294.97968 299.02377 305.03574 308.37173 311.74368 317.07172 323.07181 326.07178 332.07187 338.07196 341.08408 344.40799 350.41989 355.77176 358.78384 364.11197 370.11185 376.11203 379.44806 383.49216 389.49203 392.82803 395.828 400.49603 406.50784 411.21179 414.54782 419.86377">both tanks are controlled by the control system</tspan>
        </text>
      </g>
      <path
         inkscape:connector-curvature="0"
         id="path512"
         style="fill:#000000;fill-opacity:1;fill-rule:evenodd;stroke:none"
         d="m 0,995.121 h 4.80078 v 4.80078 H 0 Z" />
      <path
         inkscape:connector-curvature="0"
         id="path514"
         style="fill:#000000;fill-opacity:1;fill-rule:evenodd;stroke:none"
         d="M 4.80078,995.121 H 2038.9808 v 4.80078 H 4.80078 Z" />
      <path
         inkscape:connector-curvature="0"
         id="path516"
         style="fill:#000000;fill-opacity:1;fill-rule:evenodd;stroke:none"
         d="m 2038.98,995.121 h 4.8008 v 4.80078 h -4.8008 z" />
      <path
         inkscape:connector-curvature="0"
         id="path518"
         style="fill:#000000;fill-opacity:1;fill-rule:evenodd;stroke:none"
         d="m 2043.79,995.121 h 2405 v 4.80078 h -2405 z" />
      <path
         inkscape:connector-curvature="0"
         id="path520"
         style="fill:#000000;fill-opacity:1;fill-rule:evenodd;stroke:none"
         d="m 4448.79,995.121 h 4.8008 v 4.80078 h -4.8008 z" />
      <path
         inkscape:connector-curvature="0"
         id="path522"
         style="fill:#000000;fill-opacity:1;fill-rule:evenodd;stroke:none"
         d="M 0,715.32 H 4.80078 V 995.121 H 0 Z" />
      <path
         inkscape:connector-curvature="0"
         id="path524"
         style="fill:#000000;fill-opacity:1;fill-rule:evenodd;stroke:none"
         d="m 2038.98,715.32 h 4.8008 v 279.801 h -4.8008 z" />
      <path
         inkscape:connector-curvature="0"
         id="path526"
         style="fill:#000000;fill-opacity:1;fill-rule:evenodd;stroke:none"
         d="m 4448.79,715.32 h 4.8008 v 279.801 h -4.8008 z" />
      <g
         transform="scale(10)"
         id="g528">
        <text
           id="text534"
           style="font-variant:normal;font-weight:normal;font-size:12px;font-family:'DejaVu Sans';-inkscape-font-specification:DejaVuSans;writing-mode:lr-tb;fill:#000000;fill-opacity:1;fill-rule:nonzero;stroke:none"
           transform="matrix(1,0,0,-1,5.63984,59.773)">
          <tspan
             id="tspan530"
             sodipodi:role="line"
             y="0"
             x="0 6.6719532 12.672037 16.6681 22.008087 28.008181 31.008165 39.012291 45.012146 51.012337 54.348373 58.380375 64.380234 67.716232 70.716217 79.380074 85.380264 88.716301 203.91618 211.24818 217.26015 223.26022 230.19615 234.86415 240.86424 244.88414 250.21201 256.2121 263.18396 269.18405 274.51193 277.84793 283.84802 296.22021 304.88409 310.88403 323.83206 327.16806 331.83606 338.82004 344.15988 350.15973 356.15991 359.49597 363.54007 369.53992 372.87592 376.24786 381.5759 387.57599 394.54785 400.54794 406.54803 413.43591 416.77194 422.09982 428.039 434.03894">Spray Control AutoTop spray valveV02is controlled by tank</tspan>
          <tspan
             id="tspan532"
             sodipodi:role="line"
             y="13.9801"
             x="203.89999 209.90009 213.89615 219.24803 223.91603 228.58405 234.58424 238.61624">pressure</tspan>
        </text>
      </g>
      <path
         inkscape:connector-curvature="0"
         id="path536"
         style="fill:#000000;fill-opacity:1;fill-rule:evenodd;stroke:none"
         d="m 0,710.539 h 4.80078 v 4.76953 H 0 Z" />
      <path
         inkscape:connector-curvature="0"
         id="path538"
         style="fill:#000000;fill-opacity:1;fill-rule:evenodd;stroke:none"
         d="M 4.80078,710.539 H 2038.9808 v 4.76953 H 4.80078 Z" />
      <path
         inkscape:connector-curvature="0"
         id="path540"
         style="fill:#000000;fill-opacity:1;fill-rule:evenodd;stroke:none"
         d="m 2038.98,710.539 h 4.8008 v 4.76953 h -4.8008 z" />
      <path
         inkscape:connector-curvature="0"
         id="path542"
         style="fill:#000000;fill-opacity:1;fill-rule:evenodd;stroke:none"
         d="m 2043.79,710.539 h 2405 v 4.76953 h -2405 z" />
      <path
         inkscape:connector-curvature="0"
         id="path544"
         style="fill:#000000;fill-opacity:1;fill-rule:evenodd;stroke:none"
         d="m 4448.79,710.539 h 4.8008 v 4.76953 h -4.8008 z" />
      <path
         inkscape:connector-curvature="0"
         id="path546"
         style="fill:#000000;fill-opacity:1;fill-rule:evenodd;stroke:none"
         d="M 0,430.941 H 4.80078 V 710.55 H 0 Z" />
      <path
         inkscape:connector-curvature="0"
         id="path548"
         style="fill:#000000;fill-opacity:1;fill-rule:evenodd;stroke:none"
         d="m 2038.98,430.941 h 4.8008 V 710.55 h -4.8008 z" />
      <path
         inkscape:connector-curvature="0"
         id="path550"
         style="fill:#000000;fill-opacity:1;fill-rule:evenodd;stroke:none"
         d="m 4448.79,430.941 h 4.8008 V 710.55 h -4.8008 z" />
      <g
         transform="scale(10)"
         id="g552">
        <text
           id="text556"
           style="font-variant:normal;font-weight:normal;font-size:12px;font-family:'DejaVu Sans';-inkscape-font-specification:DejaVuSans;writing-mode:lr-tb;fill:#000000;fill-opacity:1;fill-rule:nonzero;stroke:none"
           transform="matrix(1,0,0,-1,5.63984,31.3328)">
          <tspan
             id="tspan554"
             sodipodi:role="line"
             y="0"
             x="0 8.6639223 14.664006 19.992054 25.992247 28.992229 36.32423 42.336193 48.336277 51.672466 58.344418 64.344505 68.340569 73.668442 79.68026 82.680244 91.344101 96.671982 100.00798 106.00807 203.92795 214.59607 219.92395 225.92413 231.93604 237.28813 240.62413 243.66006 249.65991 255.66 260.98804 266.98825 270.32425 276.33615 282.33621 285.33621 291.33606 295.33194 298.33194 301.66797 307.67993 313.68002 316.67999 321.34799 327.34808 331.39221 336.72009 342.72018 345.73227 351.73236 357.06024 360.43219 366.48032 371.80838 374.80835 383.39499 389.39496">Open Top/Spray ValveManual opening of top spray valve V02</tspan>
        </text>
      </g>
      <path
         inkscape:connector-curvature="0"
         id="path558"
         style="fill:#000000;fill-opacity:1;fill-rule:evenodd;stroke:none"
         d="m 0,426.141 h 4.80078 v 4.80078 H 0 Z" />
      <path
         inkscape:connector-curvature="0"
         id="path560"
         style="fill:#000000;fill-opacity:1;fill-rule:evenodd;stroke:none"
         d="M 4.80078,426.141 H 2038.9808 v 4.80078 H 4.80078 Z" />
      <path
         inkscape:connector-curvature="0"
         id="path562"
         style="fill:#000000;fill-opacity:1;fill-rule:evenodd;stroke:none"
         d="m 2038.98,426.141 h 4.8008 v 4.80078 h -4.8008 z" />
      <path
         inkscape:connector-curvature="0"
         id="path564"
         style="fill:#000000;fill-opacity:1;fill-rule:evenodd;stroke:none"
         d="m 2043.79,426.141 h 2405 v 4.80078 h -2405 z" />
      <path
         inkscape:connector-curvature="0"
         id="path566"
         style="fill:#000000;fill-opacity:1;fill-rule:evenodd;stroke:none"
         d="m 4448.79,426.141 h 4.8008 v 4.80078 h -4.8008 z" />
      <path
         inkscape:connector-curvature="0"
         id="path568"
         style="fill:#000000;fill-opacity:1;fill-rule:evenodd;stroke:none"
         d="M 0,286.328 H 4.80078 V 426.129 H 0 Z" />
      <path
         inkscape:connector-curvature="0"
         id="path570"
         style="fill:#000000;fill-opacity:1;fill-rule:evenodd;stroke:none"
         d="m 0,281.531 h 4.80078 v 4.80078 H 0 Z" />
      <path
         inkscape:connector-curvature="0"
         id="path572"
         style="fill:#000000;fill-opacity:1;fill-rule:evenodd;stroke:none"
         d="m 0,281.531 h 4.80078 v 4.80078 H 0 Z" />
      <path
         inkscape:connector-curvature="0"
         id="path574"
         style="fill:#000000;fill-opacity:1;fill-rule:evenodd;stroke:none"
         d="M 4.80078,281.531 H 2038.9808 v 4.80078 H 4.80078 Z" />
      <path
         inkscape:connector-curvature="0"
         id="path576"
         style="fill:#000000;fill-opacity:1;fill-rule:evenodd;stroke:none"
         d="m 2038.98,286.328 h 4.8008 v 139.801 h -4.8008 z" />
      <path
         inkscape:connector-curvature="0"
         id="path578"
         style="fill:#000000;fill-opacity:1;fill-rule:evenodd;stroke:none"
         d="m 2038.98,281.531 h 4.8008 v 4.80078 h -4.8008 z" />
      <path
         inkscape:connector-curvature="0"
         id="path580"
         style="fill:#000000;fill-opacity:1;fill-rule:evenodd;stroke:none"
         d="m 2043.79,281.531 h 2405 v 4.80078 h -2405 z" />
      <path
         inkscape:connector-curvature="0"
         id="path582"
         style="fill:#000000;fill-opacity:1;fill-rule:evenodd;stroke:none"
         d="m 4448.79,286.328 h 4.8008 v 139.801 h -4.8008 z" />
      <path
         inkscape:connector-curvature="0"
         id="path584"
         style="fill:#000000;fill-opacity:1;fill-rule:evenodd;stroke:none"
         d="m 4448.79,281.531 h 4.8008 v 4.80078 h -4.8008 z" />
      <path
         inkscape:connector-curvature="0"
         id="path586"
         style="fill:#000000;fill-opacity:1;fill-rule:evenodd;stroke:none"
         d="m 4448.79,281.531 h 4.8008 v 4.80078 h -4.8008 z" />
      <g
         transform="scale(10)"
         id="g588">
        <text
           id="text592"
           style="font-variant:normal;font-weight:normal;font-size:12px;font-family:'DejaVu Sans';-inkscape-font-specification:DejaVuSans;writing-mode:lr-tb;fill:#000000;fill-opacity:1;fill-rule:nonzero;stroke:none"
           transform="matrix(1,0,0,-1,5.63984,2.89297)">
          <tspan
             id="tspan590"
             sodipodi:role="line"
             y="0"
             x="0 8.6638908 14.663747 17.999783 23.327831 27.347643 30.347628 37.679626 43.679821 49.00787 52.007851 58.020046 64.019897 67.355934 70.727898 76.727753 85.967705 88.96769 94.295815 100.29567 106.29586 112.30776 117.6237 122.96355 126.33551 129.67151 135.68347 141.68367 144.68365 153.94781 159.94801 164.61603 167.95206 170.95204 176.95213 182.31612 185.3161 190.6561 195.98421 199.35617 202.69217 208.69226 214.02014 217.40424 222.73228 228.73236 231.73235 237.74454 243.06049 247.05635 253.05621 257.05228 262.38031 265.38031 272.67499 276.67087 284.0029 287.0029 291.6709 297.67108 303.68329 309.68338 313.06741 319.0675 322.0675 328.07932 333.4072 336.74319 342.74329 348.10727 351.10727 355.10327 363.76712 369.76709 375.75494 379.75098 382.75095 388.11502 393.4429 399.44308 402.44305 408.44315 413.77121 416.77118 422.09906 427.47522 430.81128 434.1832 440.18329 445.51117 448.8472 454.21121 460.21127">Note! The bottom connection must be activated before LIL supply valve (V01) can be activated.</tspan>
        </text>
      </g>
    </g>
  </g>
</svg>
