<?xml version="1.0" encoding="UTF-8" standalone="no"?>
<!-- Created with Inkscape (http://www.inkscape.org/) -->

<svg
   xmlns:dc="http://purl.org/dc/elements/1.1/"
   xmlns:cc="http://creativecommons.org/ns#"
   xmlns:rdf="http://www.w3.org/1999/02/22-rdf-syntax-ns#"
   xmlns:svg="http://www.w3.org/2000/svg"
   xmlns="http://www.w3.org/2000/svg"
   xmlns:sodipodi="http://sodipodi.sourceforge.net/DTD/sodipodi-0.dtd"
   xmlns:inkscape="http://www.inkscape.org/namespaces/inkscape"
   width="210mm"
   height="297mm"
   viewBox="0 0 210 297"
   version="1.1"
   id="svg2417"
   inkscape:version="0.92.2 5c3e80d, 2017-08-06"
   sodipodi:docname="PBE.svg">
  <defs
     id="defs2411" />
  <sodipodi:namedview
     id="base"
     pagecolor="#ffffff"
     bordercolor="#666666"
     borderopacity="1.0"
     inkscape:pageopacity="0.0"
     inkscape:pageshadow="2"
     inkscape:zoom="1.2960937"
     inkscape:cx="226.01567"
     inkscape:cy="560"
     inkscape:document-units="mm"
     inkscape:current-layer="layer1"
     showgrid="false"
     inkscape:window-width="1920"
     inkscape:window-height="1171"
     inkscape:window-x="0"
     inkscape:window-y="0"
     inkscape:window-maximized="1" />
  <metadata
     id="metadata2414">
    <rdf:RDF>
      <cc:Work
         rdf:about="">
        <dc:format>image/svg+xml</dc:format>
        <dc:type
           rdf:resource="http://purl.org/dc/dcmitype/StillImage" />
        <dc:title></dc:title>
      </cc:Work>
    </rdf:RDF>
  </metadata>
  <g
     inkscape:label="Calque 1"
     inkscape:groupmode="layer"
     id="layer1">
    <g
       transform="matrix(0.35277777,0,0,-0.35277777,-30.175439,239.87358)"
       id="g2313">
      <text
         y="-189.1729"
         x="5.6398401"
         id="text374"
         style="font-variant:normal;font-weight:bold;font-size:12px;font-family:'DejaVu Sans';-inkscape-font-specification:DejaVuSans-Bold;writing-mode:lr-tb;fill:#000000;fill-opacity:1;fill-rule:nonzero;stroke:none"
         transform="scale(1,-1)">
        <tspan
           id="tspan372"
           sodipodi:role="line"
           y="-189.1729"
           x="5.6398401 12.97178 18.299889 23.62808 28.284092 32.952213 39.624332 44.952442 50.316563 53.316391 61.320545 67.956741 71.292664 74.66452 81.336601 84.336433 92.964417 99.636497 102.63633 110.6042 116.60437 122.60437 129.28857 135.28842 140.60443 146.61653 150.61269 156.61255 161.95238 164.95221 168.94832 176.28026 184.28441 192.25229">Pressure Build Up Evaporator (PBE)</tspan>
      </text>
      <path
         d="m 5.64102,186.711 h 190.699 v 1.14102 H 5.64102 Z"
         style="fill:#000000;fill-opacity:1;fill-rule:evenodd;stroke:none;stroke-width:0.1"
         id="path376"
         inkscape:connector-curvature="0" />
      <text
         y="-160.673"
         x="5.6398401"
         id="text382"
         style="font-variant:normal;font-weight:bold;font-size:12px;font-family:'DejaVu Sans';-inkscape-font-specification:DejaVuSans-Bold;writing-mode:lr-tb;fill:#000000;fill-opacity:1;fill-rule:nonzero;stroke:none"
         transform="scale(1,-1)">
        <tspan
           id="tspan380"
           sodipodi:role="line"
           y="-160.673"
           x="5.6398401 14.303699 20.303555 30.299747 40.29594 46.29594 52.96806 209.54646 217.55028 221.54645 225.54262 230.89462 236.22273">CommandEffect</tspan>
      </text>
      <path
         d="m 0,172.133 h 0.480078 v 0.48008 H 0 Z"
         style="fill:#000000;fill-opacity:1;fill-rule:evenodd;stroke:none;stroke-width:0.1"
         id="path384"
         inkscape:connector-curvature="0" />
      <path
         d="m 0,172.133 h 0.480078 v 0.48008 H 0 Z"
         style="fill:#000000;fill-opacity:1;fill-rule:evenodd;stroke:none;stroke-width:0.1"
         id="path386"
         inkscape:connector-curvature="0" />
      <path
         d="M 0.480078,172.133 H 203.89808 v 0.48008 H 0.480078 Z"
         style="fill:#000000;fill-opacity:1;fill-rule:evenodd;stroke:none;stroke-width:0.1"
         id="path388"
         inkscape:connector-curvature="0" />
      <path
         d="m 203.898,172.133 h 0.48008 v 0.48008 H 203.898 Z"
         style="fill:#000000;fill-opacity:1;fill-rule:evenodd;stroke:none;stroke-width:0.1"
         id="path390"
         inkscape:connector-curvature="0" />
      <path
         d="m 204.379,172.133 h 240.5 v 0.48008 h -240.5 z"
         style="fill:#000000;fill-opacity:1;fill-rule:evenodd;stroke:none;stroke-width:0.1"
         id="path392"
         inkscape:connector-curvature="0" />
      <path
         d="m 444.879,172.133 h 0.48008 v 0.48008 H 444.879 Z"
         style="fill:#000000;fill-opacity:1;fill-rule:evenodd;stroke:none;stroke-width:0.1"
         id="path394"
         inkscape:connector-curvature="0" />
      <path
         d="m 444.879,172.133 h 0.48008 v 0.48008 H 444.879 Z"
         style="fill:#000000;fill-opacity:1;fill-rule:evenodd;stroke:none;stroke-width:0.1"
         id="path396"
         inkscape:connector-curvature="0" />
      <path
         d="m 0,158.094 h 0.480078 v 14.0391 H 0 Z"
         style="fill:#000000;fill-opacity:1;fill-rule:evenodd;stroke:none;stroke-width:0.1"
         id="path398"
         inkscape:connector-curvature="0" />
      <path
         d="m 203.898,158.094 h 0.48008 v 14.0391 H 203.898 Z"
         style="fill:#000000;fill-opacity:1;fill-rule:evenodd;stroke:none;stroke-width:0.1"
         id="path400"
         inkscape:connector-curvature="0" />
      <path
         d="m 444.879,158.094 h 0.48008 v 14.0391 H 444.879 Z"
         style="fill:#000000;fill-opacity:1;fill-rule:evenodd;stroke:none;stroke-width:0.1"
         id="path402"
         inkscape:connector-curvature="0" />
      <text
         y="-146.33299"
         x="5.6398401"
         id="text410"
         style="font-variant:normal;font-weight:normal;font-size:12px;font-family:'DejaVu Sans';-inkscape-font-specification:DejaVuSans;writing-mode:lr-tb;fill:#000000;fill-opacity:1;fill-rule:nonzero;stroke:none"
         transform="scale(1,-1)">
        <tspan
           id="tspan406"
           sodipodi:role="line"
           y="-146.33299"
           x="5.6398401 14.303699 20.303892 23.639927 209.54274 218.20659 223.53447 226.87047 232.87057 238.19861 242.86662 246.73067 252.07053 258.07037 264.07056 270.07074 275.3988 280.7269 284.11099 289.43906 295.43912 299.25513 302.61499 308.61484 312.46677 319.1387 327.10666 334.45081 338.20667 343.53455 347.53061 352.88248 356.66254 361.99066 367.99051 373.99069 377.32675 381.37085 387.3707 390.7067 394.09076 399.40671 405.41888 409.19894 415.19904 421.19913 424.96707 428.3031 434.30331 439.63135">AutoValves connected to PBE are controlled by the</tspan>
        <tspan
           id="tspan408"
           sodipodi:role="line"
           y="-132.35291"
           x="209.53984 214.86797 220.86783 226.87973 230.20364 234.24776 240.25972 243.59572 246.5957 251.26372 257.26379 261.96774 265.30377 270.63184">control system</tspan>
      </text>
      <path
         d="m 0,157.614 h 0.480078 v 0.48008 H 0 Z"
         style="fill:#000000;fill-opacity:1;fill-rule:evenodd;stroke:none;stroke-width:0.1"
         id="path412"
         inkscape:connector-curvature="0" />
      <path
         d="M 0.480078,157.614 H 203.89808 v 0.48008 H 0.480078 Z"
         style="fill:#000000;fill-opacity:1;fill-rule:evenodd;stroke:none;stroke-width:0.1"
         id="path414"
         inkscape:connector-curvature="0" />
      <path
         d="m 203.898,157.614 h 0.48008 v 0.48008 H 203.898 Z"
         style="fill:#000000;fill-opacity:1;fill-rule:evenodd;stroke:none;stroke-width:0.1"
         id="path416"
         inkscape:connector-curvature="0" />
      <path
         d="m 204.379,157.614 h 240.5 v 0.48008 h -240.5 z"
         style="fill:#000000;fill-opacity:1;fill-rule:evenodd;stroke:none;stroke-width:0.1"
         id="path418"
         inkscape:connector-curvature="0" />
      <path
         d="m 444.879,157.614 h 0.48008 v 0.48008 H 444.879 Z"
         style="fill:#000000;fill-opacity:1;fill-rule:evenodd;stroke:none;stroke-width:0.1"
         id="path420"
         inkscape:connector-curvature="0" />
      <path
         d="m 0,129.652 h 0.480078 v 27.9609 H 0 Z"
         style="fill:#000000;fill-opacity:1;fill-rule:evenodd;stroke:none;stroke-width:0.1"
         id="path422"
         inkscape:connector-curvature="0" />
      <path
         d="m 203.898,129.652 h 0.48008 v 27.9609 H 203.898 Z"
         style="fill:#000000;fill-opacity:1;fill-rule:evenodd;stroke:none;stroke-width:0.1"
         id="path424"
         inkscape:connector-curvature="0" />
      <path
         d="m 444.879,129.652 h 0.48008 v 27.9609 H 444.879 Z"
         style="fill:#000000;fill-opacity:1;fill-rule:evenodd;stroke:none;stroke-width:0.1"
         id="path426"
         inkscape:connector-curvature="0" />
      <text
         y="-117.893"
         x="5.6398401"
         id="text434"
         style="font-variant:normal;font-weight:normal;font-size:12px;font-family:'DejaVu Sans';-inkscape-font-specification:DejaVuSans;writing-mode:lr-tb;fill:#000000;fill-opacity:1;fill-rule:nonzero;stroke:none"
         transform="scale(1,-1)">
        <tspan
           id="tspan430"
           sodipodi:role="line"
           y="-117.893"
           x="5.6398401 16.307949 21.635828 27.647732 33.647926 39.000019 209.55482 218.21869 223.54657 226.88257 232.88266 238.21071 242.87872 254.42284 259.76266 265.76251 271.76273 277.76291 283.09097 288.41907 291.80316 297.1312 303.13129 314.65118 317.98724 323.98709 335.5191 342.19104 350.15897 357.50314 368.93906 374.26694 378.263 383.61487 395.07501 404.30286 409.64285 415.64304 421.64322 426.9711 430.35516 433.69116 439.69125">ManualValves connected to PBE are manually</tspan>
        <tspan
           id="tspan432"
           sodipodi:role="line"
           y="-103.9129"
           x="209.53984 214.86797 220.86783 226.87973 230.25169 234.23564 240.2476 243.61955 246.95555 252.2836">controlled</tspan>
      </text>
      <path
         d="m 0,129.172 h 0.480078 v 0.48008 H 0 Z"
         style="fill:#000000;fill-opacity:1;fill-rule:evenodd;stroke:none;stroke-width:0.1"
         id="path436"
         inkscape:connector-curvature="0" />
      <path
         d="M 0.480078,129.172 H 203.89808 v 0.48008 H 0.480078 Z"
         style="fill:#000000;fill-opacity:1;fill-rule:evenodd;stroke:none;stroke-width:0.1"
         id="path438"
         inkscape:connector-curvature="0" />
      <path
         d="m 203.898,129.172 h 0.48008 v 0.48008 H 203.898 Z"
         style="fill:#000000;fill-opacity:1;fill-rule:evenodd;stroke:none;stroke-width:0.1"
         id="path440"
         inkscape:connector-curvature="0" />
      <path
         d="m 204.379,129.172 h 240.5 v 0.48008 h -240.5 z"
         style="fill:#000000;fill-opacity:1;fill-rule:evenodd;stroke:none;stroke-width:0.1"
         id="path442"
         inkscape:connector-curvature="0" />
      <path
         d="m 444.879,129.172 h 0.48008 v 0.48008 H 444.879 Z"
         style="fill:#000000;fill-opacity:1;fill-rule:evenodd;stroke:none;stroke-width:0.1"
         id="path444"
         inkscape:connector-curvature="0" />
      <path
         d="m 0,101.211 h 0.480078 v 27.9609 H 0 Z"
         style="fill:#000000;fill-opacity:1;fill-rule:evenodd;stroke:none;stroke-width:0.1"
         id="path446"
         inkscape:connector-curvature="0" />
      <path
         d="m 203.898,101.211 h 0.48008 v 27.9609 H 203.898 Z"
         style="fill:#000000;fill-opacity:1;fill-rule:evenodd;stroke:none;stroke-width:0.1"
         id="path448"
         inkscape:connector-curvature="0" />
      <path
         d="m 444.879,101.211 h 0.48008 v 27.9609 H 444.879 Z"
         style="fill:#000000;fill-opacity:1;fill-rule:evenodd;stroke:none;stroke-width:0.1"
         id="path450"
         inkscape:connector-curvature="0" />
      <text
         y="-89.452698"
         x="5.6398401"
         id="text460"
         style="font-variant:normal;font-weight:normal;font-size:12px;font-family:'DejaVu Sans';-inkscape-font-specification:DejaVuSans;writing-mode:lr-tb;fill:#000000;fill-opacity:1;fill-rule:nonzero;stroke:none"
         transform="scale(1,-1)">
        <tspan
           id="tspan454"
           sodipodi:role="line"
           y="-89.452698"
           x="5.6398401 14.303699 19.631819 22.967855 26.303854 32.303947 37.679863 41.0159 46.331841 209.54504 216.87704 222.87724 228.20529 231.61348 238.28542 246.25336 253.5854 256.98148 265.64539 271.65729 274.99332 278.32932 283.64526 287.02936 290.43753 299.11371 304.44159 309.10959 312.51779 316.51385 321.84189 325.21387 331.22577 335.22183 341.22202 344.65402 350.65411 355.98199 359.31799 365.32983 370.6817 374.10159 378.08551 386.74936 392.74933 398.7493 402.7453 406.17734 414.84137 418.17737 421.51337 424.89743 428.3056 434.30569 439.63373">Activate The PBE Outlet Gas return valve (V16) will be</tspan>
        <tspan
           id="tspan456"
           sodipodi:role="line"
           y="-75.473"
           x="209.53984 214.86797 220.86783 226.87973 230.20364 234.24776 240.25972 243.59572 246.96765 252.2957 258.29578 261.41568 267.41577 273.41586 276.53577 279.85968 285.87158 291.18753 294.34335 299.67148 305.67133 311.67154 315.00757 319.05167 325.05154 328.38754 331.51956 336.18756 342.19937 346.8674 350.23935 355.5553 364.80734 367.85538 373.19537 379.19556 385.19565 388.2558 394.25565 400.26782 405.58377 411.59567 414.93185 420.29593 423.63193 429.63177 434.2998 439.66379">controlled by the control system and open/close</tspan>
        <tspan
           id="tspan458"
           sodipodi:role="line"
           y="-61.492901"
           x="209.53984 215.53993 220.86798 226.86806 232.19611 238.1963 244.19638 247.58043 253.58063 259.58069 262.58069 268.58054 274.59244 277.59244 280.92847 286.28055 292.28076 298.2807 301.28067 307.28076 311.27682 316.62872 321.29672 325.96472 331.96494 335.99692">depending on tank pressure</tspan>
      </text>
      <path
         d="m 0,100.734 h 0.480078 v 0.47695 H 0 Z"
         style="fill:#000000;fill-opacity:1;fill-rule:evenodd;stroke:none;stroke-width:0.1"
         id="path462"
         inkscape:connector-curvature="0" />
      <path
         d="M 0.480078,100.734 H 203.89808 v 0.47695 H 0.480078 Z"
         style="fill:#000000;fill-opacity:1;fill-rule:evenodd;stroke:none;stroke-width:0.1"
         id="path464"
         inkscape:connector-curvature="0" />
      <path
         d="m 203.898,100.734 h 0.48008 v 0.47695 H 203.898 Z"
         style="fill:#000000;fill-opacity:1;fill-rule:evenodd;stroke:none;stroke-width:0.1"
         id="path466"
         inkscape:connector-curvature="0" />
      <path
         d="m 204.379,100.734 h 240.5 v 0.47695 h -240.5 z"
         style="fill:#000000;fill-opacity:1;fill-rule:evenodd;stroke:none;stroke-width:0.1"
         id="path468"
         inkscape:connector-curvature="0" />
      <path
         d="m 444.879,100.734 h 0.48008 v 0.47695 H 444.879 Z"
         style="fill:#000000;fill-opacity:1;fill-rule:evenodd;stroke:none;stroke-width:0.1"
         id="path470"
         inkscape:connector-curvature="0" />
      <path
         d="m 0,58.793 h 0.480078 v 41.941 H 0 Z"
         style="fill:#000000;fill-opacity:1;fill-rule:evenodd;stroke:none;stroke-width:0.1"
         id="path472"
         inkscape:connector-curvature="0" />
      <path
         d="m 203.898,58.793 h 0.48008 v 41.941 H 203.898 Z"
         style="fill:#000000;fill-opacity:1;fill-rule:evenodd;stroke:none;stroke-width:0.1"
         id="path474"
         inkscape:connector-curvature="0" />
      <path
         d="m 444.879,58.793 h 0.48008 v 41.941 H 444.879 Z"
         style="fill:#000000;fill-opacity:1;fill-rule:evenodd;stroke:none;stroke-width:0.1"
         id="path476"
         inkscape:connector-curvature="0" />
      <text
         y="-47.032799"
         x="5.6398401"
         id="text484"
         style="font-variant:normal;font-weight:normal;font-size:12px;font-family:'DejaVu Sans';-inkscape-font-specification:DejaVuSans;writing-mode:lr-tb;fill:#000000;fill-opacity:1;fill-rule:nonzero;stroke:none"
         transform="scale(1,-1)">
        <tspan
           id="tspan480"
           sodipodi:role="line"
           y="-47.032799"
           x="5.6398401 13.643965 16.979965 22.97982 27.647833 209.53784 220.7578 224.0938 227.47784 230.81384 237.12593 242.45406 245.79005 251.78992 256.49387 261.8219 268.12189 271.45792 277.4581 282.78616 289.10995 295.78189 303.74985 311.08188 317.36978 326.02158 332.03348 335.36954 338.70554 344.03357 347.40555 353.70554 362.3696 367.69748 372.36548 378.65335 382.64941 387.97748 391.36154 397.36176 401.35782 407.358 413.60992 419.61005 424.93793 428.27393 434.28574 439.6376">CloseWill close the PBE Outlet Gas return valve</tspan>
        <tspan
           id="tspan482"
           sodipodi:role="line"
           y="-33.0527"
           x="209.53984 213.53586 222.19972 228.19969 234.18755">(V16)</tspan>
      </text>
      <path
         d="m 0,58.3129 h 0.480078 v 0.480078 H 0 Z"
         style="fill:#000000;fill-opacity:1;fill-rule:evenodd;stroke:none;stroke-width:0.1"
         id="path486"
         inkscape:connector-curvature="0" />
      <path
         d="M 0.480078,58.3129 H 203.89808 v 0.480078 H 0.480078 Z"
         style="fill:#000000;fill-opacity:1;fill-rule:evenodd;stroke:none;stroke-width:0.1"
         id="path488"
         inkscape:connector-curvature="0" />
      <path
         d="m 203.898,58.3129 h 0.48008 v 0.480078 H 203.898 Z"
         style="fill:#000000;fill-opacity:1;fill-rule:evenodd;stroke:none;stroke-width:0.1"
         id="path490"
         inkscape:connector-curvature="0" />
      <path
         d="m 204.379,58.3129 h 240.5 v 0.480078 h -240.5 z"
         style="fill:#000000;fill-opacity:1;fill-rule:evenodd;stroke:none;stroke-width:0.1"
         id="path492"
         inkscape:connector-curvature="0" />
      <path
         d="m 444.879,58.3129 h 0.48008 v 0.480078 H 444.879 Z"
         style="fill:#000000;fill-opacity:1;fill-rule:evenodd;stroke:none;stroke-width:0.1"
         id="path494"
         inkscape:connector-curvature="0" />
      <path
         d="M 0,30.3512 H 0.480078 V 58.3121 H 0 Z"
         style="fill:#000000;fill-opacity:1;fill-rule:evenodd;stroke:none;stroke-width:0.1"
         id="path496"
         inkscape:connector-curvature="0" />
      <path
         d="m 203.898,30.3512 h 0.48008 V 58.3121 H 203.898 Z"
         style="fill:#000000;fill-opacity:1;fill-rule:evenodd;stroke:none;stroke-width:0.1"
         id="path498"
         inkscape:connector-curvature="0" />
      <path
         d="m 444.879,30.3512 h 0.48008 V 58.3121 H 444.879 Z"
         style="fill:#000000;fill-opacity:1;fill-rule:evenodd;stroke:none;stroke-width:0.1"
         id="path500"
         inkscape:connector-curvature="0" />
      <text
         y="-18.593"
         x="5.6398401"
         id="text506"
         style="font-variant:normal;font-weight:normal;font-size:12px;font-family:'DejaVu Sans';-inkscape-font-specification:DejaVuSans;writing-mode:lr-tb;fill:#000000;fill-opacity:1;fill-rule:nonzero;stroke:none"
         transform="scale(1,-1)">
        <tspan
           id="tspan504"
           sodipodi:role="line"
           y="-18.593"
           x="5.6398401 12.971887 22.19973 27.527779 31.52384 37.547745 42.875793 48.875984 54.204105 60.204197 63.204182 69.888245 73.224281 79.224136 209.55614 220.77609 224.11209 227.48404 230.82004 233.83212 239.16025 242.5443 248.54416 253.21216 258.54019 261.54019 268.21213 276.216 283.54803 286.54803 295.16391 301.16409 304.50012 307.87207 313.2001 316.53616 319.53613 328.2002 333.52808 338.19608 341.20819 345.24017 350.56824 353.90427 359.90445 363.94858 369.94876 372.96085 378.96094 384.28882 387.62482 393.62491 398.98892 401.98889 405.94382 414.6077 420.60767 426.6076">Emergency StopWill close PBE Outlet Gas return valve (V16)</tspan>
      </text>
      <path
         d="m 0,29.8719 h 0.480078 v 0.480078 H 0 Z"
         style="fill:#000000;fill-opacity:1;fill-rule:evenodd;stroke:none;stroke-width:0.1"
         id="path508"
         inkscape:connector-curvature="0" />
      <path
         d="M 0.480078,29.8719 H 203.89808 v 0.480078 H 0.480078 Z"
         style="fill:#000000;fill-opacity:1;fill-rule:evenodd;stroke:none;stroke-width:0.1"
         id="path510"
         inkscape:connector-curvature="0" />
      <path
         d="m 203.898,29.8719 h 0.48008 v 0.480078 H 203.898 Z"
         style="fill:#000000;fill-opacity:1;fill-rule:evenodd;stroke:none;stroke-width:0.1"
         id="path512"
         inkscape:connector-curvature="0" />
      <path
         d="m 204.379,29.8719 h 240.5 v 0.480078 h -240.5 z"
         style="fill:#000000;fill-opacity:1;fill-rule:evenodd;stroke:none;stroke-width:0.1"
         id="path514"
         inkscape:connector-curvature="0" />
      <path
         d="m 444.879,29.8719 h 0.48008 v 0.480078 H 444.879 Z"
         style="fill:#000000;fill-opacity:1;fill-rule:evenodd;stroke:none;stroke-width:0.1"
         id="path516"
         inkscape:connector-curvature="0" />
      <path
         d="m 0,15.8941 h 0.480078 v 13.977 H 0 Z"
         style="fill:#000000;fill-opacity:1;fill-rule:evenodd;stroke:none;stroke-width:0.1"
         id="path518"
         inkscape:connector-curvature="0" />
      <path
         d="m 203.898,15.8941 h 0.48008 v 13.977 H 203.898 Z"
         style="fill:#000000;fill-opacity:1;fill-rule:evenodd;stroke:none;stroke-width:0.1"
         id="path520"
         inkscape:connector-curvature="0" />
      <path
         d="m 444.879,15.8941 h 0.48008 v 13.977 H 444.879 Z"
         style="fill:#000000;fill-opacity:1;fill-rule:evenodd;stroke:none;stroke-width:0.1"
         id="path522"
         inkscape:connector-curvature="0" />
      <text
         y="-4.1328101"
         x="5.6398401"
         id="text528"
         style="font-variant:normal;font-weight:normal;font-size:12px;font-family:'DejaVu Sans';-inkscape-font-specification:DejaVuSans;writing-mode:lr-tb;fill:#000000;fill-opacity:1;fill-rule:nonzero;stroke:none"
         transform="scale(1,-1)">
        <tspan
           id="tspan526"
           sodipodi:role="line"
           y="-4.1328101"
           x="5.6398401 13.643903 18.971951 23.639961 28.96801 209.53561 217.53967 222.86772 227.53574 232.86378 236.19983 240.90378 243.90376 247.23979 251.27179 254.6078 260.60788 266.60794 271.936 277.93607 280.93607 287.608 295.61188 302.94394 305.95602 309.93991 316.61188 324.61572 331.91183 334.92395 340.92413 346.25201 350.92001 353.92001 357.29196 363.29184 366.29181 372.30402 377.61993 380.63205 384.6402 389.96826 395.29614 400.63599 404.00793 407.34393 413.35577 418.68362 422.06772 427.39578 433.39584 437.41571">ResetResets tripped PBE (PBE has to be reactivated)</tspan>
      </text>
      <path
         d="m 0,15.4148 h 0.480078 v 0.480078 H 0 Z"
         style="fill:#000000;fill-opacity:1;fill-rule:evenodd;stroke:none;stroke-width:0.1"
         id="path530"
         inkscape:connector-curvature="0" />
      <path
         d="M 0.480078,15.4148 H 203.89808 v 0.480078 H 0.480078 Z"
         style="fill:#000000;fill-opacity:1;fill-rule:evenodd;stroke:none;stroke-width:0.1"
         id="path532"
         inkscape:connector-curvature="0" />
      <path
         d="m 203.898,15.4148 h 0.48008 v 0.480078 H 203.898 Z"
         style="fill:#000000;fill-opacity:1;fill-rule:evenodd;stroke:none;stroke-width:0.1"
         id="path534"
         inkscape:connector-curvature="0" />
      <path
         d="m 204.379,15.4148 h 240.5 v 0.480078 h -240.5 z"
         style="fill:#000000;fill-opacity:1;fill-rule:evenodd;stroke:none;stroke-width:0.1"
         id="path536"
         inkscape:connector-curvature="0" />
      <path
         d="m 444.879,15.4148 h 0.48008 v 0.480078 H 444.879 Z"
         style="fill:#000000;fill-opacity:1;fill-rule:evenodd;stroke:none;stroke-width:0.1"
         id="path538"
         inkscape:connector-curvature="0" />
      <path
         d="m 0,1.43398 h 0.480078 v 13.9801 H 0 Z"
         style="fill:#000000;fill-opacity:1;fill-rule:evenodd;stroke:none;stroke-width:0.1"
         id="path540"
         inkscape:connector-curvature="0" />
      <path
         d="M 0,0.953906 H 0.480078 V 1.433984 H 0 Z"
         style="fill:#000000;fill-opacity:1;fill-rule:evenodd;stroke:none;stroke-width:0.1"
         id="path542"
         inkscape:connector-curvature="0" />
      <path
         d="M 0,0.953906 H 0.480078 V 1.433984 H 0 Z"
         style="fill:#000000;fill-opacity:1;fill-rule:evenodd;stroke:none;stroke-width:0.1"
         id="path544"
         inkscape:connector-curvature="0" />
      <path
         d="M 0.480078,0.953906 H 203.89808 V 1.433984 H 0.480078 Z"
         style="fill:#000000;fill-opacity:1;fill-rule:evenodd;stroke:none;stroke-width:0.1"
         id="path546"
         inkscape:connector-curvature="0" />
      <path
         d="m 203.898,1.43398 h 0.48008 v 13.9801 H 203.898 Z"
         style="fill:#000000;fill-opacity:1;fill-rule:evenodd;stroke:none;stroke-width:0.1"
         id="path548"
         inkscape:connector-curvature="0" />
      <path
         d="m 203.898,0.953906 h 0.48008 V 1.433984 H 203.898 Z"
         style="fill:#000000;fill-opacity:1;fill-rule:evenodd;stroke:none;stroke-width:0.1"
         id="path550"
         inkscape:connector-curvature="0" />
      <path
         d="m 204.379,0.953906 h 240.5 v 0.480078 h -240.5 z"
         style="fill:#000000;fill-opacity:1;fill-rule:evenodd;stroke:none;stroke-width:0.1"
         id="path552"
         inkscape:connector-curvature="0" />
      <path
         d="m 444.879,1.43398 h 0.48008 v 13.9801 H 444.879 Z"
         style="fill:#000000;fill-opacity:1;fill-rule:evenodd;stroke:none;stroke-width:0.1"
         id="path554"
         inkscape:connector-curvature="0" />
      <path
         d="m 444.879,0.953906 h 0.48008 V 1.433984 H 444.879 Z"
         style="fill:#000000;fill-opacity:1;fill-rule:evenodd;stroke:none;stroke-width:0.1"
         id="path556"
         inkscape:connector-curvature="0" />
      <path
         d="m 444.879,0.953906 h 0.48008 V 1.433984 H 444.879 Z"
         style="fill:#000000;fill-opacity:1;fill-rule:evenodd;stroke:none;stroke-width:0.1"
         id="path558"
         inkscape:connector-curvature="0" />
    </g>
  </g>
</svg>
