<?xml version="1.0" encoding="UTF-8" standalone="no"?>
<!-- Created with Inkscape (http://www.inkscape.org/) -->

<svg
   xmlns:dc="http://purl.org/dc/elements/1.1/"
   xmlns:cc="http://creativecommons.org/ns#"
   xmlns:rdf="http://www.w3.org/1999/02/22-rdf-syntax-ns#"
   xmlns:svg="http://www.w3.org/2000/svg"
   xmlns="http://www.w3.org/2000/svg"
   xmlns:sodipodi="http://sodipodi.sourceforge.net/DTD/sodipodi-0.dtd"
   xmlns:inkscape="http://www.inkscape.org/namespaces/inkscape"
   version="1.1"
   id="svg2"
   xml:space="preserve"
   width="625.33331"
   height="916"
   viewBox="0 0 625.33331 916"
   sodipodi:docname="VRL.svg"
   inkscape:version="0.92.2 5c3e80d, 2017-08-06"><metadata
     id="metadata8"><rdf:RDF><cc:Work
         rdf:about=""><dc:format>image/svg+xml</dc:format><dc:type
           rdf:resource="http://purl.org/dc/dcmitype/StillImage" /><dc:title></dc:title></cc:Work></rdf:RDF></metadata><defs
     id="defs6" /><sodipodi:namedview
     pagecolor="#ffffff"
     bordercolor="#666666"
     borderopacity="1"
     objecttolerance="10"
     gridtolerance="10"
     guidetolerance="10"
     inkscape:pageopacity="0"
     inkscape:pageshadow="2"
     inkscape:window-width="1920"
     inkscape:window-height="1171"
     id="namedview4"
     showgrid="false"
     inkscape:zoom="0.95609307"
     inkscape:cx="312.66666"
     inkscape:cy="458"
     inkscape:window-x="0"
     inkscape:window-y="0"
     inkscape:window-maximized="1"
     inkscape:current-layer="g12" /><g
     id="g10"
     inkscape:groupmode="layer"
     inkscape:label="ink_ext_XXXXXX"
     transform="matrix(1.3333333,0,0,-1.3333333,0,916)"><g
       id="g12"
       transform="scale(0.1)"><g
         id="g2733"><g
           transform="scale(10)"
           id="g14"><text
             id="text18"
             style="font-variant:normal;font-weight:bold;font-size:12px;font-family:'DejaVu Sans';-inkscape-font-specification:DejaVuSans-Bold;writing-mode:lr-tb;fill:#000000;fill-opacity:1;fill-rule:nonzero;stroke:none"
             transform="matrix(1,0,0,-1,7.88984,677.883)"><tspan
               id="tspan16"
               sodipodi:role="line"
               y="0"
               x="0 8.6641712 14.664171 21.336256 27.336111 33.972305 39.288303 42.288132 50.951962 56.280151 60.27631 66.948425 72.276535 78.948654 81.948486 90.612656 96.612656 99.948578 105.94875 111.27694 114.27677 118.30882 126.97298 135.58916 143.59332">Vapour Return Valve (VRL)</tspan></text>
</g><path
           inkscape:connector-curvature="0"
           id="path20"
           style="fill:#000000;fill-opacity:1;fill-rule:evenodd;stroke:none"
           d="m 78.9102,6754.21 h 1476.21 v 11.4102 H 78.9102 Z" /><g
           transform="scale(10)"
           id="g22"><text
             id="text26"
             style="font-variant:normal;font-weight:bold;font-size:12px;font-family:'DejaVu Sans';-inkscape-font-specification:DejaVuSans-Bold;writing-mode:lr-tb;fill:#000000;fill-opacity:1;fill-rule:nonzero;stroke:none"
             transform="matrix(1,0,0,-1,7.88984,649.383)"><tspan
               id="tspan24"
               sodipodi:role="line"
               y="0"
               x="0 8.6638594 14.663715 24.659908 34.656101 40.656101 47.32822 203.90662 211.91043 215.9066 219.90277 225.25478 230.58289">CommandEffect</tspan></text>
</g><path
           inkscape:connector-curvature="0"
           id="path28"
           style="fill:#000000;fill-opacity:1;fill-rule:evenodd;stroke:none"
           d="m 22.5,6608.44 h 4.80078 v 4.8008 H 22.5 Z" /><path
           inkscape:connector-curvature="0"
           id="path30"
           style="fill:#000000;fill-opacity:1;fill-rule:evenodd;stroke:none"
           d="m 22.5,6608.44 h 4.80078 v 4.8008 H 22.5 Z" /><path
           inkscape:connector-curvature="0"
           id="path32"
           style="fill:#000000;fill-opacity:1;fill-rule:evenodd;stroke:none"
           d="m 27.3008,6608.44 h 2034.18 v 4.8008 H 27.3008 Z" /><path
           inkscape:connector-curvature="0"
           id="path34"
           style="fill:#000000;fill-opacity:1;fill-rule:evenodd;stroke:none"
           d="m 2061.48,6608.44 h 4.8008 v 4.8008 h -4.8008 z" /><path
           inkscape:connector-curvature="0"
           id="path36"
           style="fill:#000000;fill-opacity:1;fill-rule:evenodd;stroke:none"
           d="m 2066.29,6608.44 h 2405 v 4.8008 h -2405 z" /><path
           inkscape:connector-curvature="0"
           id="path38"
           style="fill:#000000;fill-opacity:1;fill-rule:evenodd;stroke:none"
           d="m 4471.29,6608.44 h 4.8008 v 4.8008 h -4.8008 z" /><path
           inkscape:connector-curvature="0"
           id="path40"
           style="fill:#000000;fill-opacity:1;fill-rule:evenodd;stroke:none"
           d="m 4471.29,6608.44 h 4.8008 v 4.8008 h -4.8008 z" /><path
           inkscape:connector-curvature="0"
           id="path42"
           style="fill:#000000;fill-opacity:1;fill-rule:evenodd;stroke:none"
           d="m 22.5,6468.05 h 4.80078 v 140.391 H 22.5 Z" /><path
           inkscape:connector-curvature="0"
           id="path44"
           style="fill:#000000;fill-opacity:1;fill-rule:evenodd;stroke:none"
           d="m 2061.48,6468.05 h 4.8008 v 140.391 h -4.8008 z" /><path
           inkscape:connector-curvature="0"
           id="path46"
           style="fill:#000000;fill-opacity:1;fill-rule:evenodd;stroke:none"
           d="m 4471.29,6468.05 h 4.8008 v 140.391 h -4.8008 z" /><g
           transform="scale(10)"
           id="g48"><text
             id="text54"
             style="font-variant:normal;font-weight:normal;font-size:12px;font-family:'DejaVu Sans';-inkscape-font-specification:DejaVuSans;writing-mode:lr-tb;fill:#000000;fill-opacity:1;fill-rule:nonzero;stroke:none"
             transform="matrix(1,0,0,-1,7.88984,635.043)"><tspan
               id="tspan50"
               sodipodi:role="line"
               y="0"
               x="0 8.6638594 14.664052 18.000088 203.90289 210.57483 216.57501 219.91106 224.57907 227.83101 233.8311 239.17108 242.50708 248.50717 253.87117 258.53918 261.77899 265.11502 271.1152 274.36713 280.37894 285.70682 291.70691 297.70676 303.70697 307.72684 310.95496 314.29095 317.67502 323.6752 329.00323 332.24307 335.5791 341.57898 344.8309 353.49475 359.49496 362.83099 368.83084 372.05896 377.3988 383.39865 389.39886 392.73489 396.77899 402.77884 406.11484 409.36679 413.36279 422.02667 428.02664 434.02658">AutoPuts valves in vapour line to Auto control (V51 </tspan><tspan
               id="tspan52"
               sodipodi:role="line"
               y="13.9801"
               x="203.89999 209.22787 215.22807 221.24026 224.24025 232.90411 238.89197 244.89192">and V54)</tspan></text>
</g><path
           inkscape:connector-curvature="0"
           id="path56"
           style="fill:#000000;fill-opacity:1;fill-rule:evenodd;stroke:none"
           d="m 22.5,6463.25 h 4.80078 v 4.8008 H 22.5 Z" /><path
           inkscape:connector-curvature="0"
           id="path58"
           style="fill:#000000;fill-opacity:1;fill-rule:evenodd;stroke:none"
           d="m 27.3008,6463.25 h 2034.18 v 4.8008 H 27.3008 Z" /><path
           inkscape:connector-curvature="0"
           id="path60"
           style="fill:#000000;fill-opacity:1;fill-rule:evenodd;stroke:none"
           d="m 2061.48,6463.25 h 4.8008 v 4.8008 h -4.8008 z" /><path
           inkscape:connector-curvature="0"
           id="path62"
           style="fill:#000000;fill-opacity:1;fill-rule:evenodd;stroke:none"
           d="m 2066.29,6463.25 h 2405 v 4.8008 h -2405 z" /><path
           inkscape:connector-curvature="0"
           id="path64"
           style="fill:#000000;fill-opacity:1;fill-rule:evenodd;stroke:none"
           d="m 4471.29,6463.25 h 4.8008 v 4.8008 h -4.8008 z" /><path
           inkscape:connector-curvature="0"
           id="path66"
           style="fill:#000000;fill-opacity:1;fill-rule:evenodd;stroke:none"
           d="m 22.5,6183.63 h 4.80078 v 279.613 H 22.5 Z" /><path
           inkscape:connector-curvature="0"
           id="path68"
           style="fill:#000000;fill-opacity:1;fill-rule:evenodd;stroke:none"
           d="m 2061.48,6183.63 h 4.8008 v 279.613 h -4.8008 z" /><path
           inkscape:connector-curvature="0"
           id="path70"
           style="fill:#000000;fill-opacity:1;fill-rule:evenodd;stroke:none"
           d="m 4471.29,6183.63 h 4.8008 v 279.613 h -4.8008 z" /><g
           transform="scale(10)"
           id="g72"><text
             id="text78"
             style="font-variant:normal;font-weight:normal;font-size:12px;font-family:'DejaVu Sans';-inkscape-font-specification:DejaVuSans;writing-mode:lr-tb;fill:#000000;fill-opacity:1;fill-rule:nonzero;stroke:none"
             transform="matrix(1,0,0,-1,7.88984,606.603)"><tspan
               id="tspan74"
               sodipodi:role="line"
               y="0"
               x="0 10.668109 15.995989 22.007893 28.008085 33.36018 203.91498 210.58691 216.58711 219.92314 224.59116 230.06302 236.06311 241.40309 244.73909 250.7392 256.10318 260.77118 266.17117 269.50717 275.50739 280.91946 286.93127 292.25916 298.25925 304.25909 310.25928 314.27917 319.66705 323.00305 326.38712 332.3873 337.71536 343.11533 346.45139 352.45123 357.86331 368.53143 373.87143 379.87161 385.8718 391.22391 394.55991 399.97198 405.31183 411.31171 417.31189 420.64792 424.69205 430.69189 434.02789">ManualPuts valves in vapour line to Manual control </tspan><tspan
               id="tspan76"
               sodipodi:role="line"
               y="13.9801"
               x="203.89999 207.89601 216.55988 222.55984 228.5477 231.54768 236.88766 242.88786 248.88794 251.88792 260.55179 266.55176 272.55173">(V51 and V54)</tspan></text>
</g><path
           inkscape:connector-curvature="0"
           id="path80"
           style="fill:#000000;fill-opacity:1;fill-rule:evenodd;stroke:none"
           d="m 22.5,6178.83 h 4.80078 v 4.8008 H 22.5 Z" /><path
           inkscape:connector-curvature="0"
           id="path82"
           style="fill:#000000;fill-opacity:1;fill-rule:evenodd;stroke:none"
           d="m 27.3008,6178.83 h 2034.18 v 4.8008 H 27.3008 Z" /><path
           inkscape:connector-curvature="0"
           id="path84"
           style="fill:#000000;fill-opacity:1;fill-rule:evenodd;stroke:none"
           d="m 2061.48,6178.83 h 4.8008 v 4.8008 h -4.8008 z" /><path
           inkscape:connector-curvature="0"
           id="path86"
           style="fill:#000000;fill-opacity:1;fill-rule:evenodd;stroke:none"
           d="m 2066.29,6178.83 h 2405 v 4.8008 h -2405 z" /><path
           inkscape:connector-curvature="0"
           id="path88"
           style="fill:#000000;fill-opacity:1;fill-rule:evenodd;stroke:none"
           d="m 4471.29,6178.83 h 4.8008 v 4.8008 h -4.8008 z" /><path
           inkscape:connector-curvature="0"
           id="path90"
           style="fill:#000000;fill-opacity:1;fill-rule:evenodd;stroke:none"
           d="m 22.5,5899.22 h 4.80078 v 279.613 H 22.5 Z" /><path
           inkscape:connector-curvature="0"
           id="path92"
           style="fill:#000000;fill-opacity:1;fill-rule:evenodd;stroke:none"
           d="m 2061.48,5899.22 h 4.8008 v 279.613 h -4.8008 z" /><path
           inkscape:connector-curvature="0"
           id="path94"
           style="fill:#000000;fill-opacity:1;fill-rule:evenodd;stroke:none"
           d="m 4471.29,5899.22 h 4.8008 v 279.613 h -4.8008 z" /><g
           transform="scale(10)"
           id="g96"><text
             id="text100"
             style="font-variant:normal;font-weight:normal;font-size:12px;font-family:'DejaVu Sans';-inkscape-font-specification:DejaVuSans;writing-mode:lr-tb;fill:#000000;fill-opacity:1;fill-rule:nonzero;stroke:none"
             transform="matrix(1,0,0,-1,7.88984,578.163)"><tspan
               id="tspan98"
               sodipodi:role="line"
               y="0"
               x="0 8.6638594 13.99198 17.328016 20.664015 26.664108 32.040024 35.37606 203.90286 215.12282 218.45882 221.84286 225.17886 228.17885 234.1787 240.17879 245.50684 251.50702 254.507 263.17087 271.17493 278.50699 281.50696 287.51917 290.85516 296.18329 302.18347 307.51135 311.54333 317.55554 322.87149 325.87146 331.88327 337.21115 340.5831 346.58319 351.91122 354.91122 359.00333 367.66718 373.65506 379.655">ActivateWill open VRL dicharge valve (V51)</tspan></text>
</g><path
           inkscape:connector-curvature="0"
           id="path102"
           style="fill:#000000;fill-opacity:1;fill-rule:evenodd;stroke:none"
           d="m 22.5,5894.42 h 4.80078 v 4.8008 H 22.5 Z" /><path
           inkscape:connector-curvature="0"
           id="path104"
           style="fill:#000000;fill-opacity:1;fill-rule:evenodd;stroke:none"
           d="m 27.3008,5894.42 h 2034.18 v 4.8008 H 27.3008 Z" /><path
           inkscape:connector-curvature="0"
           id="path106"
           style="fill:#000000;fill-opacity:1;fill-rule:evenodd;stroke:none"
           d="m 2061.48,5894.42 h 4.8008 v 4.8008 h -4.8008 z" /><path
           inkscape:connector-curvature="0"
           id="path108"
           style="fill:#000000;fill-opacity:1;fill-rule:evenodd;stroke:none"
           d="m 2066.29,5894.42 h 2405 v 4.8008 h -2405 z" /><path
           inkscape:connector-curvature="0"
           id="path110"
           style="fill:#000000;fill-opacity:1;fill-rule:evenodd;stroke:none"
           d="m 4471.29,5894.42 h 4.8008 v 4.8008 h -4.8008 z" /><path
           inkscape:connector-curvature="0"
           id="path112"
           style="fill:#000000;fill-opacity:1;fill-rule:evenodd;stroke:none"
           d="m 22.5,5754.61 h 4.80078 v 139.801 H 22.5 Z" /><path
           inkscape:connector-curvature="0"
           id="path114"
           style="fill:#000000;fill-opacity:1;fill-rule:evenodd;stroke:none"
           d="m 2061.48,5754.61 h 4.8008 v 139.801 h -4.8008 z" /><path
           inkscape:connector-curvature="0"
           id="path116"
           style="fill:#000000;fill-opacity:1;fill-rule:evenodd;stroke:none"
           d="m 4471.29,5754.61 h 4.8008 v 139.801 h -4.8008 z" /><g
           transform="scale(10)"
           id="g118"><text
             id="text122"
             style="font-variant:normal;font-weight:normal;font-size:12px;font-family:'DejaVu Sans';-inkscape-font-specification:DejaVuSans;writing-mode:lr-tb;fill:#000000;fill-opacity:1;fill-rule:nonzero;stroke:none"
             transform="matrix(1,0,0,-1,7.88984,563.703)"><tspan
               id="tspan120"
               sodipodi:role="line"
               y="0"
               x="0 8.6638288 13.991877 19.319756 24.647877 28.007732 31.343733 37.343826 42.683815 46.067898 203.9039 215.12386 218.45985 221.8439 225.1799 228.17989 233.508 236.89204 242.89191 247.55992 252.88797 255.88795 264.55182 272.55588 279.85199 282.85196 288.86417 292.20016 297.52829 303.52847 308.89227 312.88834 318.90054 324.24069 327.24066 333.25247 338.58035 341.91635 347.91647 353.28046 356.28043 360.27646 368.94031 374.94028 380.92813">DeactivateWill close VRL dicharge valve (V51)</tspan></text>
</g><path
           inkscape:connector-curvature="0"
           id="path124"
           style="fill:#000000;fill-opacity:1;fill-rule:evenodd;stroke:none"
           d="m 22.5,5749.84 h 4.80078 v 4.7695 H 22.5 Z" /><path
           inkscape:connector-curvature="0"
           id="path126"
           style="fill:#000000;fill-opacity:1;fill-rule:evenodd;stroke:none"
           d="m 27.3008,5749.84 h 2034.18 v 4.7695 H 27.3008 Z" /><path
           inkscape:connector-curvature="0"
           id="path128"
           style="fill:#000000;fill-opacity:1;fill-rule:evenodd;stroke:none"
           d="m 2061.48,5749.84 h 4.8008 v 4.7695 h -4.8008 z" /><path
           inkscape:connector-curvature="0"
           id="path130"
           style="fill:#000000;fill-opacity:1;fill-rule:evenodd;stroke:none"
           d="m 2066.29,5749.84 h 2405 v 4.7695 h -2405 z" /><path
           inkscape:connector-curvature="0"
           id="path132"
           style="fill:#000000;fill-opacity:1;fill-rule:evenodd;stroke:none"
           d="m 4471.29,5749.84 h 4.8008 v 4.7695 h -4.8008 z" /><path
           inkscape:connector-curvature="0"
           id="path134"
           style="fill:#000000;fill-opacity:1;fill-rule:evenodd;stroke:none"
           d="m 22.5,5610.04 h 4.80078 v 139.801 H 22.5 Z" /><path
           inkscape:connector-curvature="0"
           id="path136"
           style="fill:#000000;fill-opacity:1;fill-rule:evenodd;stroke:none"
           d="m 2061.48,5610.04 h 4.8008 v 139.801 h -4.8008 z" /><path
           inkscape:connector-curvature="0"
           id="path138"
           style="fill:#000000;fill-opacity:1;fill-rule:evenodd;stroke:none"
           d="m 4471.29,5610.04 h 4.8008 v 139.801 h -4.8008 z" /><g
           transform="scale(10)"
           id="g140"><text
             id="text146"
             style="font-variant:normal;font-weight:normal;font-size:12px;font-family:'DejaVu Sans';-inkscape-font-specification:DejaVuSans;writing-mode:lr-tb;fill:#000000;fill-opacity:1;fill-rule:nonzero;stroke:none"
             transform="matrix(1,0,0,-1,7.88984,549.243)"><tspan
               id="tspan142"
               sodipodi:role="line"
               y="0"
               x="0 3.9958596 9.9960518 15.347932 19.343994 203.89799 215.11795 218.45395 221.838 225.174 229.86617 235.86603 241.8661 247.23009 251.22615 256.55405 259.93811 269.97006 273.30606 279.30627 284.63431 288.67844 292.01447 296.70663 302.70673 308.03461 311.37061 317.38242 322.73428 327.41437 331.39825 340.06213 346.06207 352.06204 360.82214 366.16211 372.16232 382.79443 388.79453 394.12256 400.12277 403.4588 408.10291 414.103 419.44299 422.77899 428.77908 434.14307">InertWill operateinert valve (V04)andvent valve </tspan><tspan
               id="tspan144"
               sodipodi:role="line"
               y="13.9801"
               x="203.89999 207.89601 216.55988 222.55984 228.5477">(V54)</tspan></text>
</g><path
           inkscape:connector-curvature="0"
           id="path148"
           style="fill:#000000;fill-opacity:1;fill-rule:evenodd;stroke:none"
           d="m 22.5,5605.24 h 4.80078 v 4.8008 H 22.5 Z" /><path
           inkscape:connector-curvature="0"
           id="path150"
           style="fill:#000000;fill-opacity:1;fill-rule:evenodd;stroke:none"
           d="m 27.3008,5605.24 h 2034.18 v 4.8008 H 27.3008 Z" /><path
           inkscape:connector-curvature="0"
           id="path152"
           style="fill:#000000;fill-opacity:1;fill-rule:evenodd;stroke:none"
           d="m 2061.48,5605.24 h 4.8008 v 4.8008 h -4.8008 z" /><path
           inkscape:connector-curvature="0"
           id="path154"
           style="fill:#000000;fill-opacity:1;fill-rule:evenodd;stroke:none"
           d="m 2066.29,5605.24 h 2405 v 4.8008 h -2405 z" /><path
           inkscape:connector-curvature="0"
           id="path156"
           style="fill:#000000;fill-opacity:1;fill-rule:evenodd;stroke:none"
           d="m 4471.29,5605.24 h 4.8008 v 4.8008 h -4.8008 z" /><path
           inkscape:connector-curvature="0"
           id="path158"
           style="fill:#000000;fill-opacity:1;fill-rule:evenodd;stroke:none"
           d="m 22.5,5325.62 h 4.80078 v 279.609 H 22.5 Z" /><path
           inkscape:connector-curvature="0"
           id="path160"
           style="fill:#000000;fill-opacity:1;fill-rule:evenodd;stroke:none"
           d="m 2061.48,5325.62 h 4.8008 v 279.609 h -4.8008 z" /><path
           inkscape:connector-curvature="0"
           id="path162"
           style="fill:#000000;fill-opacity:1;fill-rule:evenodd;stroke:none"
           d="m 4471.29,5325.62 h 4.8008 v 279.609 h -4.8008 z" /><g
           transform="scale(10)"
           id="g164"><text
             id="text170"
             style="font-variant:normal;font-weight:normal;font-size:12px;font-family:'DejaVu Sans';-inkscape-font-specification:DejaVuSans;writing-mode:lr-tb;fill:#000000;fill-opacity:1;fill-rule:nonzero;stroke:none"
             transform="matrix(1,0,0,-1,7.88984,520.803)"><tspan
               id="tspan166"
               sodipodi:role="line"
               y="0"
               x="0 3.9958596 9.9960518 15.347932 19.343994 22.715958 25.715942 29.711817 33.707878 39.707737 48.935581 51.935566 58.607517 64.607712 70.619904 76.619987 79.955986 83.291985 88.643867 203.91574 215.1357 218.47169 221.84364 225.17964 230.4718 236.48376 242.48386 247.8119 251.82007 257.16006 260.49609 265.84796 271.11594 279.77979 287.74792 295.06784 300.27603 306.27612 309.61212 314.28015 319.6442 325.64438 330.98438 334.99255 341.00473 346.32068 351.5527 357.5528 362.88068 366.21667 372.21677 377.58075 382.78894 386.78494 395.44882 401.44879 407.44873 411.39999 416.64413 421.97198 427.9722 433.97229">Inert from SupplierWill operate VRL discharge valve (V51) and </tspan><tspan
               id="tspan168"
               sodipodi:role="line"
               y="13.9801"
               x="203.89999 209.9001 215.22813 221.22833 224.56438 227.56436 233.56445 238.94037 242.27637 248.27646 253.60451 256.60449 260.64856 269.31241 275.30026 281.30023">vent valve (V54)</tspan></text>
</g><path
           inkscape:connector-curvature="0"
           id="path172"
           style="fill:#000000;fill-opacity:1;fill-rule:evenodd;stroke:none"
           d="m 22.5,5320.82 h 4.80078 v 4.8008 H 22.5 Z" /><path
           inkscape:connector-curvature="0"
           id="path174"
           style="fill:#000000;fill-opacity:1;fill-rule:evenodd;stroke:none"
           d="m 27.3008,5320.82 h 2034.18 v 4.8008 H 27.3008 Z" /><path
           inkscape:connector-curvature="0"
           id="path176"
           style="fill:#000000;fill-opacity:1;fill-rule:evenodd;stroke:none"
           d="m 2061.48,5320.82 h 4.8008 v 4.8008 h -4.8008 z" /><path
           inkscape:connector-curvature="0"
           id="path178"
           style="fill:#000000;fill-opacity:1;fill-rule:evenodd;stroke:none"
           d="m 2066.29,5320.82 h 2405 v 4.8008 h -2405 z" /><path
           inkscape:connector-curvature="0"
           id="path180"
           style="fill:#000000;fill-opacity:1;fill-rule:evenodd;stroke:none"
           d="m 4471.29,5320.82 h 4.8008 v 4.8008 h -4.8008 z" /><path
           inkscape:connector-curvature="0"
           id="path182"
           style="fill:#000000;fill-opacity:1;fill-rule:evenodd;stroke:none"
           d="m 22.5,5041.21 h 4.80078 v 279.609 H 22.5 Z" /><path
           inkscape:connector-curvature="0"
           id="path184"
           style="fill:#000000;fill-opacity:1;fill-rule:evenodd;stroke:none"
           d="m 2061.48,5041.21 h 4.8008 v 279.609 h -4.8008 z" /><path
           inkscape:connector-curvature="0"
           id="path186"
           style="fill:#000000;fill-opacity:1;fill-rule:evenodd;stroke:none"
           d="m 4471.29,5041.21 h 4.8008 v 279.609 h -4.8008 z" /><g
           transform="scale(10)"
           id="g188"><text
             id="text194"
             style="font-variant:normal;font-weight:normal;font-size:12px;font-family:'DejaVu Sans';-inkscape-font-specification:DejaVuSans;writing-mode:lr-tb;fill:#000000;fill-opacity:1;fill-rule:nonzero;stroke:none"
             transform="matrix(1,0,0,-1,7.88984,492.363)"><tspan
               id="tspan190"
               sodipodi:role="line"
               y="0"
               x="0 3.9958596 9.9960518 15.347932 19.343994 22.715958 25.715942 29.051979 35.051834 38.051819 44.72377 50.735676 56.73576 62.735844 66.071846 69.407845 74.759727 203.91573 215.13568 218.47168 221.84361 225.17961 234.44366 240.44351 246.4436 251.77165 255.79153 261.11942 264.45544 279.10733 282.44333 288.44354 293.77158 297.81567 301.13962 310.40366 316.40375 321.73163 325.06763 331.06772 336.4317 345.65982 349.65582 358.3197 364.31964 370.31961 374.30353 383.56757 388.89545 394.89563 400.89572 410.13556 418.79941 426.75543 434.08749">Inert to SupplierWill operateinert valve (V04) and VRL </tspan><tspan
               id="tspan192"
               sodipodi:role="line"
               y="13.9801"
               x="203.89999 209.90009 213.23608 217.9041 223.28026 229.28046 234.60834 238.62822 244.62831 249.95636 252.95634 258.95645 264.2843 267.66837 273.66846 278.99649 281.99649 286.01633 294.66849 300.66843 306.6684">discharge valve (V51)</tspan></text>
</g><path
           inkscape:connector-curvature="0"
           id="path196"
           style="fill:#000000;fill-opacity:1;fill-rule:evenodd;stroke:none"
           d="m 22.5,5036.44 h 4.80078 v 4.7695 H 22.5 Z" /><path
           inkscape:connector-curvature="0"
           id="path198"
           style="fill:#000000;fill-opacity:1;fill-rule:evenodd;stroke:none"
           d="m 27.3008,5036.44 h 2034.18 v 4.7695 H 27.3008 Z" /><path
           inkscape:connector-curvature="0"
           id="path200"
           style="fill:#000000;fill-opacity:1;fill-rule:evenodd;stroke:none"
           d="m 2061.48,5036.44 h 4.8008 v 4.7695 h -4.8008 z" /><path
           inkscape:connector-curvature="0"
           id="path202"
           style="fill:#000000;fill-opacity:1;fill-rule:evenodd;stroke:none"
           d="m 2066.29,5036.44 h 2405 v 4.7695 h -2405 z" /><path
           inkscape:connector-curvature="0"
           id="path204"
           style="fill:#000000;fill-opacity:1;fill-rule:evenodd;stroke:none"
           d="m 4471.29,5036.44 h 4.8008 v 4.7695 h -4.8008 z" /><path
           inkscape:connector-curvature="0"
           id="path206"
           style="fill:#000000;fill-opacity:1;fill-rule:evenodd;stroke:none"
           d="m 22.5,4756.84 h 4.80078 v 279.609 H 22.5 Z" /><path
           inkscape:connector-curvature="0"
           id="path208"
           style="fill:#000000;fill-opacity:1;fill-rule:evenodd;stroke:none"
           d="m 2061.48,4756.84 h 4.8008 v 279.609 h -4.8008 z" /><path
           inkscape:connector-curvature="0"
           id="path210"
           style="fill:#000000;fill-opacity:1;fill-rule:evenodd;stroke:none"
           d="m 4471.29,4756.84 h 4.8008 v 279.609 h -4.8008 z" /><g
           transform="scale(10)"
           id="g212"><text
             id="text218"
             style="font-variant:normal;font-weight:normal;font-size:12px;font-family:'DejaVu Sans';-inkscape-font-specification:DejaVuSans;writing-mode:lr-tb;fill:#000000;fill-opacity:1;fill-rule:nonzero;stroke:none"
             transform="matrix(1,0,0,-1,7.88984,463.903)"><tspan
               id="tspan214"
               sodipodi:role="line"
               y="0"
               x="0 8.6638288 13.991877 19.991961 23.988022 29.316071 34.007915 38.675926 44.676117 48.696011 52.032009 57.360134 203.89693 215.11688 218.45288 221.83693 225.17293 228.17291 234.17278 240.17285 245.5009 251.5011 254.50108 260.51291 265.86478 271.87668 275.20059 278.21268 284.21277 289.54065 292.92471 298.9248 304.25284 307.25284 311.27267 319.93655 325.93649 331.93646 335.92038 338.93246">DepressurizeWill open vent valve (V54). </tspan><tspan
               id="tspan216"
               sodipodi:role="line"
               y="13.9797"
               x="203.89999 212.56389 218.56375 221.89978 227.22783 231.24765 234.24763 244.91574 250.91592 255.58394 258.9559 261.96799 267.96808 273.29614 276.29611 285.54819 290.87607 296.87625 302.87643 308.20432 311.58838 314.92438 320.92447 323.92444 329.25256 332.6366 338.64859 343.31659 348.63254 354.64471">Note! Must be manually closed.</tspan></text>
</g><path
           inkscape:connector-curvature="0"
           id="path220"
           style="fill:#000000;fill-opacity:1;fill-rule:evenodd;stroke:none"
           d="m 22.5,4752.04 h 4.80078 v 4.8008 H 22.5 Z" /><path
           inkscape:connector-curvature="0"
           id="path222"
           style="fill:#000000;fill-opacity:1;fill-rule:evenodd;stroke:none"
           d="m 27.3008,4752.04 h 2034.18 v 4.8008 H 27.3008 Z" /><path
           inkscape:connector-curvature="0"
           id="path224"
           style="fill:#000000;fill-opacity:1;fill-rule:evenodd;stroke:none"
           d="m 2061.48,4752.04 h 4.8008 v 4.8008 h -4.8008 z" /><path
           inkscape:connector-curvature="0"
           id="path226"
           style="fill:#000000;fill-opacity:1;fill-rule:evenodd;stroke:none"
           d="m 2066.29,4752.04 h 2405 v 4.8008 h -2405 z" /><path
           inkscape:connector-curvature="0"
           id="path228"
           style="fill:#000000;fill-opacity:1;fill-rule:evenodd;stroke:none"
           d="m 4471.29,4752.04 h 4.8008 v 4.8008 h -4.8008 z" /><path
           inkscape:connector-curvature="0"
           id="path230"
           style="fill:#000000;fill-opacity:1;fill-rule:evenodd;stroke:none"
           d="m 22.5,4472.23 h 4.80078 v 279.801 H 22.5 Z" /><path
           inkscape:connector-curvature="0"
           id="path232"
           style="fill:#000000;fill-opacity:1;fill-rule:evenodd;stroke:none"
           d="m 2061.48,4472.23 h 4.8008 v 279.801 h -4.8008 z" /><path
           inkscape:connector-curvature="0"
           id="path234"
           style="fill:#000000;fill-opacity:1;fill-rule:evenodd;stroke:none"
           d="m 4471.29,4472.23 h 4.8008 v 279.801 h -4.8008 z" /><g
           transform="scale(10)"
           id="g236"><text
             id="text244"
             style="font-variant:normal;font-weight:normal;font-size:12px;font-family:'DejaVu Sans';-inkscape-font-specification:DejaVuSans;writing-mode:lr-tb;fill:#000000;fill-opacity:1;fill-rule:nonzero;stroke:none"
             transform="matrix(1,0,0,-1,7.88984,435.463)"><tspan
               id="tspan238"
               sodipodi:role="line"
               y="0"
               x="0 6.6719532 12.000001 15.336001 20.664049 26.028109 29.364145 32.364128 40.368004 46.368198 52.3801 58.367947 63.695992 67.715881 70.715866 75.383881 78.719917 84.083725 87.419762 90.791695 96.803665 102.80386 105.80384 203.90384 211.23584 217.24774 222.57579 226.46367 232.46376 237.79164 241.12764 247.12773 252.49171 257.15973 261.05972 265.05573 270.38361 276.41962 282.41949 288.41959 293.74762 297.64761 300.98361 304.35553 309.02356 312.35959 317.72357 323.72366 327.71967 331.63177 336.9599 342.97186 348.97205 354.97223 360.30029 365.58899 368.97308 374.30112 380.30121 384.2012 387.53723 393.53708 397.44919 406.11304 414.06906 421.40112 425.27725 430.60513 433.94119">Select Bunker station 1The valves (above listed) connected to VRL at </tspan><tspan
               id="tspan240"
               sodipodi:role="line"
               y="13.9801"
               x="203.89999 209.90009 215.90027 221.91219 227.91214 233.22807 237.24797 242.21591 246.88393 250.21997 255.58377 258.9198 262.30386 268.30371 274.30389 279.2121 285.21207 290.12024 295.44812 299.44418 304.80817 309.71637 315.04449 321.04434 327.04453 330.38055 334.42468 340.42453 343.76053 347.14456 352.47263 358.47272 363.39261 369.3927 375.39279 380.30096 383.63702 389.64893 394.96487 399.92072 405.24881 411.24869 417.24887 420.5849 424.62903 430.62888 433.96487">bunker station 1 are controlled by the control </tspan><tspan
               id="tspan242"
               sodipodi:role="line"
               y="27.960199"
               x="203.89999 208.56801 214.5681 219.23611 222.60808 227.93613">system</tspan></text>
</g><path
           inkscape:connector-curvature="0"
           id="path246"
           style="fill:#000000;fill-opacity:1;fill-rule:evenodd;stroke:none"
           d="m 22.5,4467.43 h 4.80078 v 4.8008 H 22.5 Z" /><path
           inkscape:connector-curvature="0"
           id="path248"
           style="fill:#000000;fill-opacity:1;fill-rule:evenodd;stroke:none"
           d="m 27.3008,4467.43 h 2034.18 v 4.8008 H 27.3008 Z" /><path
           inkscape:connector-curvature="0"
           id="path250"
           style="fill:#000000;fill-opacity:1;fill-rule:evenodd;stroke:none"
           d="m 2061.48,4467.43 h 4.8008 v 4.8008 h -4.8008 z" /><path
           inkscape:connector-curvature="0"
           id="path252"
           style="fill:#000000;fill-opacity:1;fill-rule:evenodd;stroke:none"
           d="m 2066.29,4467.43 h 2405 v 4.8008 h -2405 z" /><path
           inkscape:connector-curvature="0"
           id="path254"
           style="fill:#000000;fill-opacity:1;fill-rule:evenodd;stroke:none"
           d="m 4471.29,4467.43 h 4.8008 v 4.8008 h -4.8008 z" /><path
           inkscape:connector-curvature="0"
           id="path256"
           style="fill:#000000;fill-opacity:1;fill-rule:evenodd;stroke:none"
           d="m 22.5,4048.04 h 4.80078 v 419.383 H 22.5 Z" /><path
           inkscape:connector-curvature="0"
           id="path258"
           style="fill:#000000;fill-opacity:1;fill-rule:evenodd;stroke:none"
           d="m 2061.48,4048.04 h 4.8008 v 419.383 h -4.8008 z" /><path
           inkscape:connector-curvature="0"
           id="path260"
           style="fill:#000000;fill-opacity:1;fill-rule:evenodd;stroke:none"
           d="m 4471.29,4048.04 h 4.8008 v 419.383 h -4.8008 z" /><g
           transform="scale(10)"
           id="g262"><text
             id="text270"
             style="font-variant:normal;font-weight:normal;font-size:12px;font-family:'DejaVu Sans';-inkscape-font-specification:DejaVuSans;writing-mode:lr-tb;fill:#000000;fill-opacity:1;fill-rule:nonzero;stroke:none"
             transform="matrix(1,0,0,-1,7.88984,393.043)"><tspan
               id="tspan264"
               sodipodi:role="line"
               y="0"
               x="0 6.6719532 12.000001 15.336001 20.664049 26.028109 29.364145 32.364128 40.380116 46.380306 52.392208 58.380054 63.708103 67.727989 70.727974 75.395988 78.732025 84.095833 87.43187 90.80381 96.815773 102.81596 105.81595 203.90382 211.23582 217.24773 222.57578 226.46365 232.46375 237.79163 241.12762 247.12772 252.49171 257.15973 261.05969 265.05573 270.38361 276.41962 282.41946 288.41956 293.74762 297.64758 300.98358 304.35553 309.02356 312.35959 317.72357 323.72366 327.71967 331.63177 336.95987 342.97183 348.97205 354.97223 360.30029 365.58899 368.97308 374.30112 380.30121 384.2012 387.53723 393.53708 397.44919 406.11304 414.06906 421.40112 425.27725 430.60513 433.94119">Select Bunker station 2The valves (above listed) connected to VRL at </tspan><tspan
               id="tspan266"
               sodipodi:role="line"
               y="13.9801"
               x="203.89999 209.90009 215.90027 221.91219 227.91214 233.22807 237.24797 242.21591 246.88393 250.21997 255.58377 258.9198 262.30386 268.30371 274.30389 279.2121 285.21207 290.12024 295.44812 299.44418 304.80817 309.71637 315.04449 321.04434 327.04453 330.38055 334.42468 340.42453 343.76053 347.14456 352.47263 358.47272 363.39261 369.3927 375.39279 380.30096 383.63702 389.64893 394.96487 399.92072 405.24881 411.24869 417.24887 420.5849 424.62903 430.62888 433.96487">bunker station 2 are controlled by the control </tspan><tspan
               id="tspan268"
               sodipodi:role="line"
               y="27.960199"
               x="203.89999 208.56801 214.5681 219.23611 222.60808 227.93613">system</tspan></text>
</g><path
           inkscape:connector-curvature="0"
           id="path272"
           style="fill:#000000;fill-opacity:1;fill-rule:evenodd;stroke:none"
           d="m 22.5,4043.25 h 4.80078 v 4.8008 H 22.5 Z" /><path
           inkscape:connector-curvature="0"
           id="path274"
           style="fill:#000000;fill-opacity:1;fill-rule:evenodd;stroke:none"
           d="m 27.3008,4043.25 h 2034.18 v 4.8008 H 27.3008 Z" /><path
           inkscape:connector-curvature="0"
           id="path276"
           style="fill:#000000;fill-opacity:1;fill-rule:evenodd;stroke:none"
           d="m 2061.48,4043.25 h 4.8008 v 4.8008 h -4.8008 z" /><path
           inkscape:connector-curvature="0"
           id="path278"
           style="fill:#000000;fill-opacity:1;fill-rule:evenodd;stroke:none"
           d="m 2066.29,4043.25 h 2405 v 4.8008 h -2405 z" /><path
           inkscape:connector-curvature="0"
           id="path280"
           style="fill:#000000;fill-opacity:1;fill-rule:evenodd;stroke:none"
           d="m 4471.29,4043.25 h 4.8008 v 4.8008 h -4.8008 z" /><path
           inkscape:connector-curvature="0"
           id="path282"
           style="fill:#000000;fill-opacity:1;fill-rule:evenodd;stroke:none"
           d="m 22.5,3623.83 h 4.80078 v 419.41 H 22.5 Z" /><path
           inkscape:connector-curvature="0"
           id="path284"
           style="fill:#000000;fill-opacity:1;fill-rule:evenodd;stroke:none"
           d="m 22.5,3619.03 h 4.80078 v 4.8008 H 22.5 Z" /><path
           inkscape:connector-curvature="0"
           id="path286"
           style="fill:#000000;fill-opacity:1;fill-rule:evenodd;stroke:none"
           d="m 22.5,3619.03 h 4.80078 v 4.8008 H 22.5 Z" /><path
           inkscape:connector-curvature="0"
           id="path288"
           style="fill:#000000;fill-opacity:1;fill-rule:evenodd;stroke:none"
           d="m 27.3008,3619.03 h 2034.18 v 4.8008 H 27.3008 Z" /><path
           inkscape:connector-curvature="0"
           id="path290"
           style="fill:#000000;fill-opacity:1;fill-rule:evenodd;stroke:none"
           d="m 2061.48,3623.83 h 4.8008 v 419.41 h -4.8008 z" /><path
           inkscape:connector-curvature="0"
           id="path292"
           style="fill:#000000;fill-opacity:1;fill-rule:evenodd;stroke:none"
           d="m 2061.48,3619.03 h 4.8008 v 4.8008 h -4.8008 z" /><path
           inkscape:connector-curvature="0"
           id="path294"
           style="fill:#000000;fill-opacity:1;fill-rule:evenodd;stroke:none"
           d="m 2066.29,3619.03 h 2405 v 4.8008 h -2405 z" /><path
           inkscape:connector-curvature="0"
           id="path296"
           style="fill:#000000;fill-opacity:1;fill-rule:evenodd;stroke:none"
           d="m 4471.29,3623.83 h 4.8008 v 419.41 h -4.8008 z" /><path
           inkscape:connector-curvature="0"
           id="path298"
           style="fill:#000000;fill-opacity:1;fill-rule:evenodd;stroke:none"
           d="m 4471.29,3619.03 h 4.8008 v 4.8008 h -4.8008 z" /><path
           inkscape:connector-curvature="0"
           id="path300"
           style="fill:#000000;fill-opacity:1;fill-rule:evenodd;stroke:none"
           d="m 4471.29,3619.03 h 4.8008 v 4.8008 h -4.8008 z" /></g></g></g></svg>